<?xml version="1.0" encoding="UTF-8"?>
<svg width="23px" height="32px" viewBox="0 0 23 32" version="1.1" xmlns="http://www.w3.org/2000/svg" xmlns:xlink="http://www.w3.org/1999/xlink">
    <title>6A9EC643-BF7C-41CE-BBB8-117C5A8CF013</title>
    <g id="DESKTOP" stroke="none" stroke-width="1" fill="none" fill-rule="evenodd">
        <g id="Blog-Artikels" transform="translate(-158.000000, -1214.000000)">
            <g id="icon/article" transform="translate(158.000000, 1214.000000)">
                <polygon id="Fill-1" fill="#303CF4" points="0 0 0 1.77777778 0 3.55555556 0 5.33333333 0 7.11111111 0 8.88888889 0 10.6666667 0 12.4444444 0 14.2222222 0 16 0 17.7777778 0 19.5555556 0 21.3333333 0 23.1111111 0 24.8888889 0 26.6666667 0 28.4444444 0 30.2222222 0 32 1.76923077 32 3.53846154 32 5.30769231 32 7.07692308 32 8.84615385 32 10.6153846 32 12.3846154 32 14.1538462 32 15.9230769 32 17.6923077 32 19.4615385 32 21.2307692 32 23 32 23 8.88888889 21.2307692 8.88888889 19.4615385 8.88888889 17.6923077 8.88888889 15.9230769 8.88888889 14.1538462 8.88888889 14.1538462 7.11111111 14.1538462 5.33333333 14.1538462 3.55555556 14.1538462 1.77777778 14.1538462 0"></polygon>
                <polygon id="Fill-2" fill="#DB9195" points="15.9230769 14.2224 14.1538462 14.2224 12.3846154 14.2224 10.6153846 14.2224 8.84615385 14.2224 7.07692308 14.2224 5.30769231 14.2224 5.30769231 16.0001778 7.07692308 16.0001778 8.84615385 16.0001778 10.6153846 16.0001778 12.3846154 16.0001778 14.1538462 16.0001778 15.9230769 16.0001778 17.6923077 16.0001778 17.6923077 14.2224"></polygon>
                <polygon id="Fill-3" fill="#DB9195" points="15.9230769 24.8896 14.1538462 24.8896 12.3846154 24.8896 10.6153846 24.8896 8.84615385 24.8896 7.07692308 24.8896 5.30769231 24.8896 5.30769231 26.6673778 7.07692308 26.6673778 8.84615385 26.6673778 10.6153846 26.6673778 12.3846154 26.6673778 14.1538462 26.6673778 15.9230769 26.6673778 17.6923077 26.6673778 17.6923077 24.8896"></polygon>
                <polygon id="Fill-4" fill="#DB9195" points="12.3849692 19.5552 10.6157385 19.5552 8.84650769 19.5552 7.07550769 19.5552 5.30627692 19.5552 5.30627692 21.3329778 7.07550769 21.3329778 8.84650769 21.3329778 10.6157385 21.3329778 12.3849692 21.3329778 14.1542 21.3329778 14.1542 19.5552"></polygon>
                <polygon id="Fill-5" fill="#202248" points="14.1540231 0 14.1540231 1.77777778 14.1540231 3.55555556 14.1540231 5.33333333 14.1540231 7.11111111 14.1540231 8.88888889 15.9232538 8.88888889 17.6924846 8.88888889 19.4617154 8.88888889 21.2309462 8.88888889 22.9984077 8.88888889 22.9984077 5.33333333 21.2309462 5.33333333 21.2309462 3.55555556 19.4617154 3.55555556 19.4617154 1.77777778 17.6924846 1.77777778 17.6924846 0"></polygon>
            </g>
        </g>
    </g>
</svg>