<svg xmlns="http://www.w3.org/2000/svg" xmlns:xlink="http://www.w3.org/1999/xlink" width="2075.62" height="103" viewBox="0 0 2075.62 103"><defs><style>.a{fill:none;}.a,.b{stroke:rgba(255,255,255,0.5);stroke-miterlimit:10;}.b{fill:rgba(31,42,201,0);font-size:72px;font-family:Poppins-SemiBold, Poppins;font-weight:600;}.c{fill:url(#a);}.d{fill:url(#b);}</style><linearGradient id="a" y1="0.5" x2="1" y2="0.5" gradientUnits="objectBoundingBox"><stop offset="0" stop-color="#59008b"/><stop offset="1" stop-color="#59008b" stop-opacity="0"/></linearGradient><linearGradient id="b" x1="1" x2="0" xlink:href="#a"/></defs><g transform="translate(0.5 1)"><g transform="translate(0 19.12)"><path class="a" d="M267.624,75.888V67.1h2.88a4.525,4.525,0,0,0,3.2-.936,4.393,4.393,0,0,0,.972-3.24V16.992h10.152V62.928q0,12.96-13.032,12.96Zm-117.864,0v-58.9h10.152v8.28a13,13,0,0,1,5.076-6.408,15.155,15.155,0,0,1,8.6-2.376,17.138,17.138,0,0,1,9.072,2.448,16.535,16.535,0,0,1,6.3,7.092,24.6,24.6,0,0,1,2.268,10.908,24.6,24.6,0,0,1-2.268,10.908,16.535,16.535,0,0,1-6.3,7.092,17.138,17.138,0,0,1-9.072,2.448,14.985,14.985,0,0,1-8.6-2.412,13.2,13.2,0,0,1-5.076-6.444v27.36ZM51.084,56.232a15.449,15.449,0,0,1-6.84-5.508,15,15,0,0,1-2.484-8.676,13.045,13.045,0,0,1,2.412-7.956,14.958,14.958,0,0,1,6.948-5A12.076,12.076,0,0,1,45.036,24.7a12.052,12.052,0,0,1-2.052-7.056,12.347,12.347,0,0,1,2.052-6.84,14.493,14.493,0,0,1,6.12-5.112,22.638,22.638,0,0,1,9.828-1.944,22.638,22.638,0,0,1,9.828,1.944,14.493,14.493,0,0,1,6.12,5.112,12.347,12.347,0,0,1,2.052,6.84,12.167,12.167,0,0,1-2.016,7.092,11.957,11.957,0,0,1-6.048,4.356,14.958,14.958,0,0,1,6.948,5,13.045,13.045,0,0,1,2.412,7.956,14.847,14.847,0,0,1-2.52,8.676,15.687,15.687,0,0,1-6.876,5.508,24.85,24.85,0,0,1-9.9,1.872A24.85,24.85,0,0,1,51.084,56.232Zm364.788-2.34a14.68,14.68,0,0,1-5.688-9.972h9.72a6.569,6.569,0,0,0,2.592,4.644,9.4,9.4,0,0,0,5.832,1.692,5.645,5.645,0,0,0,3.96-1.26,4.249,4.249,0,0,0,1.368-3.276,3.619,3.619,0,0,0-1.188-2.808,8.022,8.022,0,0,0-2.952-1.656q-1.764-.576-5-1.368a56.472,56.472,0,0,1-7.236-2.052,11.552,11.552,0,0,1-4.752-3.348,9.4,9.4,0,0,1-1.98-6.336,10.374,10.374,0,0,1,3.96-8.424q3.96-3.24,10.944-3.24,7.272,0,11.664,3.672a15.9,15.9,0,0,1,5.472,9.792h-9.5a7.906,7.906,0,0,0-2.592-4.608,7.793,7.793,0,0,0-5.256-1.728A6.039,6.039,0,0,0,421.2,24.84a4.121,4.121,0,0,0-1.44,3.312,3.368,3.368,0,0,0,1.152,2.664,8.3,8.3,0,0,0,2.88,1.584q1.728.576,4.968,1.368a51.1,51.1,0,0,1,7.38,2.124,12.209,12.209,0,0,1,4.9,3.528,9.726,9.726,0,0,1,2.052,6.516,10.066,10.066,0,0,1-4,8.28q-4,3.168-10.764,3.168Q420.552,57.384,415.872,53.892ZM346.248,54.9a17.465,17.465,0,0,1-7.056-7.092,22.317,22.317,0,0,1-2.52-10.872,22.528,22.528,0,0,1,2.52-10.908,17.175,17.175,0,0,1,7.056-7.092,21.487,21.487,0,0,1,10.368-2.448,19.74,19.74,0,0,1,12.852,4.176,18.245,18.245,0,0,1,6.444,11.376H365.184a8.28,8.28,0,0,0-2.952-5A9.067,9.067,0,0,0,356.4,25.2a8.7,8.7,0,0,0-6.732,2.988q-2.7,2.988-2.7,8.748t2.7,8.748a8.7,8.7,0,0,0,6.732,2.988,9.067,9.067,0,0,0,5.832-1.836,8.28,8.28,0,0,0,2.952-5h10.728a18.245,18.245,0,0,1-6.444,11.376,19.74,19.74,0,0,1-12.852,4.176A21.232,21.232,0,0,1,346.248,54.9Zm-44.712,0a17.465,17.465,0,0,1-7.056-7.092,22.317,22.317,0,0,1-2.52-10.872,22.528,22.528,0,0,1,2.52-10.908,17.175,17.175,0,0,1,7.056-7.092A21.487,21.487,0,0,1,311.9,16.488a21.018,21.018,0,0,1,10.332,2.448,17.256,17.256,0,0,1,6.84,6.732,19.536,19.536,0,0,1,2.412,9.756,19.194,19.194,0,0,1-.36,3.456H301.9q.216,5.328,2.88,7.848a9.265,9.265,0,0,0,6.624,2.52,9.611,9.611,0,0,0,5.868-1.728,7.654,7.654,0,0,0,2.988-4.68h10.728a17.166,17.166,0,0,1-3.384,7.488,17.692,17.692,0,0,1-6.66,5.184,22.817,22.817,0,0,1-19.4-.612Zm-65.268,0a18.223,18.223,0,0,1-7.308-7.092A21.349,21.349,0,0,1,226.3,36.936a21.548,21.548,0,0,1,2.664-10.908,17.913,17.913,0,0,1,7.308-7.092,23.64,23.64,0,0,1,20.952,0,17.913,17.913,0,0,1,7.308,7.092,21.548,21.548,0,0,1,2.664,10.908,21.349,21.349,0,0,1-2.664,10.872A18.223,18.223,0,0,1,257.22,54.9a23.333,23.333,0,0,1-20.952,0ZM399.1,56.88q-6.7,0-10.26-3.24t-3.564-10.8V25.56h-5.544V16.992h5.544V7.128h10.152v9.864h8.928V25.56h-8.928V42.984q0,2.88,1.152,4.032a5.378,5.378,0,0,0,3.888,1.152h3.96V56.88Zm-200.664,0V16.992h10.152v7.632a16.683,16.683,0,0,1,5.9-6.012,15.682,15.682,0,0,1,8.208-2.2V27.288h-2.952q-11.16,0-11.16,10.368V56.88ZM87.336,31.032q0-25.776,19.44-25.776,10.3,0,14.832,6.912t4.536,18.864q0,12.024-4.536,18.936T106.776,56.88Q87.336,56.88,87.336,31.032ZM0,56.448v-7.56q24.408-16.92,24.408-28.08a8.072,8.072,0,0,0-1.62-5.328q-1.62-1.944-5.076-1.944-7.128,0-7.56,9.72H.288q.432-9,5.472-13.644A18.077,18.077,0,0,1,18.5,4.968q7.848,0,12.06,4.068t4.212,10.836a21.058,21.058,0,0,1-3.132,10.692,43.415,43.415,0,0,1-7.956,9.864,62.46,62.46,0,0,1-10.152,7.74H35.784v8.28ZM275.184,9.468a5.039,5.039,0,0,1-1.728-3.924,5.119,5.119,0,0,1,1.728-4A6.54,6.54,0,0,1,279.72,0a6.451,6.451,0,0,1,4.536,1.584,5.148,5.148,0,0,1,1.728,3.96,5.039,5.039,0,0,1-1.728,3.924,7.42,7.42,0,0,1-9.072,0Z"/><text class="b" transform="translate(695.188 56.88)"><tspan x="-168.156" y="0">5 experts</tspan></text><path class="a" d="M146.2,49.212q-3.2-3.06-3.2-8.46t3.2-8.46a11.446,11.446,0,0,1,8.244-3.06,11.321,11.321,0,0,1,8.208,3.06q3.168,3.06,3.168,8.46t-3.168,8.46a11.321,11.321,0,0,1-8.208,3.06A11.446,11.446,0,0,1,146.2,49.212Zm492.156.432a17.465,17.465,0,0,1-7.056-7.092,22.317,22.317,0,0,1-2.52-10.872,22.528,22.528,0,0,1,2.52-10.908,17.175,17.175,0,0,1,7.056-7.092,21.487,21.487,0,0,1,10.368-2.448,21.017,21.017,0,0,1,10.332,2.448,17.256,17.256,0,0,1,6.84,6.732,19.536,19.536,0,0,1,2.412,9.756,19.194,19.194,0,0,1-.36,3.456H638.712q.216,5.328,2.88,7.848a9.264,9.264,0,0,0,6.624,2.52,9.611,9.611,0,0,0,5.868-1.728,7.654,7.654,0,0,0,2.988-4.68H667.8a17.165,17.165,0,0,1-3.384,7.488,17.692,17.692,0,0,1-6.66,5.184,22.817,22.817,0,0,1-19.4-.612Zm-44.424,0a17.464,17.464,0,0,1-7.056-7.092,22.317,22.317,0,0,1-2.52-10.872,22.528,22.528,0,0,1,2.52-10.908,17.175,17.175,0,0,1,7.056-7.092A21.487,21.487,0,0,1,604.3,11.232a19.74,19.74,0,0,1,12.852,4.176,18.245,18.245,0,0,1,6.444,11.376H612.864a8.28,8.28,0,0,0-2.952-5,9.066,9.066,0,0,0-5.832-1.836,8.7,8.7,0,0,0-6.732,2.988q-2.7,2.988-2.7,8.748t2.7,8.748a8.7,8.7,0,0,0,6.732,2.988,9.066,9.066,0,0,0,5.832-1.836,8.28,8.28,0,0,0,2.952-5h10.728a18.245,18.245,0,0,1-6.444,11.376A19.74,19.74,0,0,1,604.3,52.128,21.232,21.232,0,0,1,593.928,49.644Zm-74.592,0a17.465,17.465,0,0,1-7.056-7.092,22.317,22.317,0,0,1-2.52-10.872,22.528,22.528,0,0,1,2.52-10.908,17.175,17.175,0,0,1,7.056-7.092A21.487,21.487,0,0,1,529.7,11.232a21.018,21.018,0,0,1,10.332,2.448,17.256,17.256,0,0,1,6.84,6.732,19.536,19.536,0,0,1,2.412,9.756,19.194,19.194,0,0,1-.36,3.456H519.7q.216,5.328,2.88,7.848a9.265,9.265,0,0,0,6.624,2.52,9.611,9.611,0,0,0,5.868-1.728,7.655,7.655,0,0,0,2.988-4.68h10.728a17.166,17.166,0,0,1-3.384,7.488,17.692,17.692,0,0,1-6.66,5.184,22.817,22.817,0,0,1-19.4-.612Zm-196.452,0a18.223,18.223,0,0,1-7.308-7.092,21.348,21.348,0,0,1-2.664-10.872,21.548,21.548,0,0,1,2.664-10.908,17.913,17.913,0,0,1,7.308-7.092,23.64,23.64,0,0,1,20.952,0,17.913,17.913,0,0,1,7.308,7.092,21.548,21.548,0,0,1,2.664,10.908,21.349,21.349,0,0,1-2.664,10.872,18.223,18.223,0,0,1-7.308,7.092,23.333,23.333,0,0,1-20.952,0Zm-44.82,0a17.465,17.465,0,0,1-7.056-7.092,22.317,22.317,0,0,1-2.52-10.872,22.528,22.528,0,0,1,2.52-10.908,17.175,17.175,0,0,1,7.056-7.092,21.487,21.487,0,0,1,10.368-2.448,19.74,19.74,0,0,1,12.852,4.176,18.245,18.245,0,0,1,6.444,11.376H297a8.28,8.28,0,0,0-2.952-5,9.067,9.067,0,0,0-5.832-1.836,8.7,8.7,0,0,0-6.732,2.988q-2.7,2.988-2.7,8.748t2.7,8.748a8.7,8.7,0,0,0,6.732,2.988,9.067,9.067,0,0,0,5.832-1.836,8.28,8.28,0,0,0,2.952-5h10.728a18.245,18.245,0,0,1-6.444,11.376,19.74,19.74,0,0,1-12.852,4.176A21.232,21.232,0,0,1,278.064,49.644Zm-82.368,0a17.465,17.465,0,0,1-7.056-7.092,22.317,22.317,0,0,1-2.52-10.872,22.528,22.528,0,0,1,2.52-10.908A17.175,17.175,0,0,1,195.7,13.68a21.487,21.487,0,0,1,10.368-2.448A21.018,21.018,0,0,1,216.4,13.68a17.256,17.256,0,0,1,6.84,6.732,19.536,19.536,0,0,1,2.412,9.756,19.194,19.194,0,0,1-.36,3.456H196.056q.216,5.328,2.88,7.848a9.264,9.264,0,0,0,6.624,2.52,9.611,9.611,0,0,0,5.868-1.728,7.654,7.654,0,0,0,2.988-4.68h10.728a17.166,17.166,0,0,1-3.384,7.488,17.692,17.692,0,0,1-6.66,5.184,22.817,22.817,0,0,1-19.4-.612Zm360.792,1.98V11.736H566.64v7.632a16.683,16.683,0,0,1,5.9-6.012,15.682,15.682,0,0,1,8.208-2.2V22.032H577.8q-11.16,0-11.16,10.368V51.624Zm-63.72,0V29.592q0-4.608-2.34-7.092a8.425,8.425,0,0,0-6.444-2.484,8.876,8.876,0,0,0-6.768,2.664q-2.52,2.664-2.52,7.776V51.624h-10.08V29.592q0-4.608-2.34-7.092a8.425,8.425,0,0,0-6.444-2.484,8.876,8.876,0,0,0-6.768,2.664q-2.52,2.664-2.52,7.776V51.624H436.392V11.736h10.152V19.3a12.36,12.36,0,0,1,5-6.012A14.769,14.769,0,0,1,459.5,11.16a15.106,15.106,0,0,1,8.388,2.3,14.082,14.082,0,0,1,5.364,6.624,15.062,15.062,0,0,1,13.9-8.928q7.272,0,11.484,4.5t4.212,12.78V51.624Zm-75.384,0V29.592q0-4.608-2.34-7.092a8.425,8.425,0,0,0-6.444-2.484,8.876,8.876,0,0,0-6.768,2.664q-2.52,2.664-2.52,7.776V51.624h-10.08V29.592q0-4.608-2.34-7.092a8.425,8.425,0,0,0-6.444-2.484,8.876,8.876,0,0,0-6.768,2.664q-2.52,2.664-2.52,7.776V51.624H361.008V11.736H371.16V19.3a12.36,12.36,0,0,1,5-6.012,14.769,14.769,0,0,1,7.956-2.124,15.105,15.105,0,0,1,8.388,2.3,14.082,14.082,0,0,1,5.364,6.624,15.062,15.062,0,0,1,13.9-8.928q7.272,0,11.484,4.5t4.212,12.78V51.624Zm-295.56,0L150.12.648h9.792l-28.3,50.976ZM71.784,25.776Q71.784,0,91.224,0q10.3,0,14.832,6.912t4.536,18.864q0,12.024-4.536,18.936T91.224,51.624Q71.784,51.624,71.784,25.776Zm-45.5,0Q26.28,0,45.72,0q10.3,0,14.832,6.912t4.536,18.864q0,12.024-4.536,18.936T45.72,51.624Q26.28,51.624,26.28,25.776ZM7.632,51.624V10.3H0V.792H18.288V51.624ZM228.1,30.168V21.744h30.6v8.424ZM119.124,19.98q-3.2-3.06-3.2-8.46t3.2-8.46a12.635,12.635,0,0,1,16.488,0q3.2,3.06,3.2,8.46t-3.2,8.46a12.635,12.635,0,0,1-16.488,0Z" transform="translate(945.172 5.256)"/><path class="a" d="M347.976,54.9a17.465,17.465,0,0,1-7.056-7.092,22.317,22.317,0,0,1-2.52-10.872,22.528,22.528,0,0,1,2.52-10.908,17.175,17.175,0,0,1,7.056-7.092,21.487,21.487,0,0,1,10.368-2.448,21.018,21.018,0,0,1,10.332,2.448,17.256,17.256,0,0,1,6.84,6.732,19.536,19.536,0,0,1,2.412,9.756,19.194,19.194,0,0,1-.36,3.456H348.336q.216,5.328,2.88,7.848a9.265,9.265,0,0,0,6.624,2.52,9.611,9.611,0,0,0,5.868-1.728,7.654,7.654,0,0,0,2.988-4.68h10.728a17.166,17.166,0,0,1-3.384,7.488,17.692,17.692,0,0,1-6.66,5.184,22.817,22.817,0,0,1-19.4-.612Zm-49.68.036a16.535,16.535,0,0,1-6.3-7.092,24.6,24.6,0,0,1-2.268-10.908A24.6,24.6,0,0,1,292,26.028a16.535,16.535,0,0,1,6.3-7.092,17.138,17.138,0,0,1,9.072-2.448,15.155,15.155,0,0,1,8.6,2.376,13.409,13.409,0,0,1,5.148,6.408V3.6H331.2V56.88H321.12V48.528a13.614,13.614,0,0,1-5.148,6.444,14.985,14.985,0,0,1-8.6,2.412A17.138,17.138,0,0,1,298.3,54.936Zm-130.176,0a16.535,16.535,0,0,1-6.3-7.092,24.594,24.594,0,0,1-2.268-10.908,24.594,24.594,0,0,1,2.268-10.908,16.535,16.535,0,0,1,6.3-7.092,17.138,17.138,0,0,1,9.072-2.448,15.155,15.155,0,0,1,8.6,2.376,13.41,13.41,0,0,1,5.148,6.408V3.6h10.08V56.88h-10.08V48.528a13.614,13.614,0,0,1-5.148,6.444,14.985,14.985,0,0,1-8.6,2.412A17.138,17.138,0,0,1,168.12,54.936ZM74.2,54.9a18.223,18.223,0,0,1-7.308-7.092,21.349,21.349,0,0,1-2.664-10.872,21.548,21.548,0,0,1,2.664-10.908A17.913,17.913,0,0,1,74.2,18.936a23.64,23.64,0,0,1,20.952,0,17.913,17.913,0,0,1,7.308,7.092,21.548,21.548,0,0,1,2.664,10.908,21.348,21.348,0,0,1-2.664,10.872A18.223,18.223,0,0,1,95.148,54.9a23.333,23.333,0,0,1-20.952,0Zm198.18,1.98V16.992h10.152V56.88Zm-27,0-8.568-29.016L228.024,56.88H216.792L206.136,16.992h10.152l6.48,30.816,8.856-30.816h10.728l8.928,30.816,6.552-30.816h9.5L256.608,56.88Zm-103.176,0V3.6h10.152V56.88Zm-29.88,0V16.992h10.152v7.632a16.683,16.683,0,0,1,5.9-6.012,15.682,15.682,0,0,1,8.208-2.2V27.288h-2.952q-11.16,0-11.16,10.368V56.88Zm-73.08,0L30.672,27.864,21.888,56.88H10.656L0,16.992H10.152l6.48,30.816,8.856-30.816H36.216l8.928,30.816L51.7,16.992h9.5L50.472,56.88ZM272.952,9.468a5.039,5.039,0,0,1-1.728-3.924,5.12,5.12,0,0,1,1.728-4,7.42,7.42,0,0,1,9.072,0,5.12,5.12,0,0,1,1.728,4,5.039,5.039,0,0,1-1.728,3.924,7.42,7.42,0,0,1-9.072,0Z" transform="translate(1696.692)"/></g><rect class="c" width="320" height="96" transform="translate(78.188)"/><rect class="d" width="320" height="96" transform="translate(1678.188)"/></g></svg>