<svg width="209" height="209" viewBox="0 0 209 209" fill="none" xmlns="http://www.w3.org/2000/svg">
<rect width="209" height="209" fill=""/>
<path d="M137.633 93.0092H131.087V116.939H137.633V93.0092Z" fill="white"/>
<path d="M120.859 99.1077C115.769 99.1077 111.639 103.189 111.639 108.215C111.639 113.241 115.769 117.323 120.859 117.323C125.949 117.323 130.078 113.241 130.078 108.215C130.094 103.189 125.965 99.1077 120.859 99.1077ZM120.859 110.84C119.45 110.84 118.314 109.656 118.314 108.215C118.314 106.775 119.45 105.59 120.859 105.59C122.267 105.59 123.404 106.775 123.404 108.215C123.404 109.656 122.267 110.84 120.859 110.84Z" fill="white"/>
<path d="M81.2908 90H57.0252C55.3605 90 54 91.3605 54 93.0252V117.275C54 118.955 55.3605 120.3 57.0252 120.3H81.2748C82.9555 120.3 84.3 118.939 84.3 117.275V93.0252C84.316 91.3605 82.9555 90 81.2908 90Z" fill="white"/>
<path d="M150.39 93.0092V107.559C150.39 110.344 148.886 110.84 147.797 110.84C146.709 110.84 145.3 109.992 145.3 108.215C145.3 107.047 146.293 105.83 147.797 105.814C148.437 105.814 148.982 106.038 149.398 106.374V99.2516C148.886 99.1716 148.341 99.1236 147.797 99.1236C142.675 99.1236 138.642 103.109 138.642 108.231C138.642 113.353 142.675 117.339 147.797 117.339C152.919 117.339 156.953 113.657 156.953 107.591V93.0092H150.39Z" fill="white"/>
<path d="M98.8817 93.0092V107.559C98.8817 110.344 100.386 110.84 101.475 110.84C102.563 110.84 103.972 109.992 103.972 108.215C103.972 107.047 102.979 105.83 101.475 105.814C100.834 105.814 100.29 106.038 99.8741 106.374V99.2516C100.386 99.1716 100.931 99.1236 101.475 99.1236C106.597 99.1236 110.63 103.109 110.63 108.231C110.63 113.353 106.597 117.339 101.475 117.339C96.3527 117.339 92.3191 113.657 92.3191 107.591V93.0092H98.8817Z" fill="white"/>
<path d="M67.4616 96.0024V106.967C67.4616 109.064 68.598 109.432 69.4144 109.432C70.2467 109.432 71.2871 108.792 71.2871 107.463C71.2871 106.583 70.5348 105.654 69.4144 105.654C68.9342 105.654 68.534 105.83 68.2139 106.086V100.708C68.598 100.644 68.9982 100.612 69.4144 100.612C73.2719 100.612 76.3131 103.605 76.3131 107.463C76.3131 111.321 73.2719 114.314 69.4144 114.314C65.5568 114.314 62.5156 111.545 62.5156 106.967V96.0024H67.4616Z" fill="white"/>
</svg>
