<?xml version="1.0" encoding="utf-8"?>
<!-- Generator: Adobe Illustrator 25.4.1, SVG Export Plug-In . SVG Version: 6.00 Build 0)  -->
<svg version="1.1" id="Layer_1" xmlns="http://www.w3.org/2000/svg" xmlns:xlink="http://www.w3.org/1999/xlink" x="0px" y="0px"
	 width="37.4px" height="23.8px" viewBox="0 0 37.4 23.8" style="enable-background:new 0 0 37.4 23.8;" xml:space="preserve">
<style type="text/css">
	.st0{fill-rule:evenodd;clip-rule:evenodd;fill:#DB9195;}
	.st1{fill-rule:evenodd;clip-rule:evenodd;fill:#202248;}
	.st2{fill-rule:evenodd;clip-rule:evenodd;fill:#303CF4;}
</style>
<rect y="17.3" class="st0" width="2.2" height="6.5"/>
<rect x="35.2" y="17.3" class="st0" width="2.2" height="6.5"/>
<rect x="33.1" y="15.1" class="st0" width="2.2" height="2.2"/>
<rect x="2.2" y="15.1" class="st0" width="2.2" height="2.2"/>
<rect x="4.3" y="13" class="st0" width="2.2" height="2.2"/>
<rect x="13" y="19.4" class="st0" width="2.2" height="2.2"/>
<rect x="13" y="21.6" class="st0" width="4.3" height="2.2"/>
<rect x="6.5" y="10.8" class="st1" width="2.2" height="2.2"/>
<rect x="8.6" y="13" class="st1" width="2.2" height="2.2"/>
<rect x="10.8" y="15.1" class="st1" width="2.2" height="2.2"/>
<rect x="13" y="17.3" class="st1" width="2.2" height="2.2"/>
<rect x="30.9" y="13" class="st0" width="2.2" height="2.2"/>
<rect x="28.7" y="10.8" class="st1" width="2.2" height="2.2"/>
<rect x="26.6" y="13" class="st1" width="2.2" height="2.2"/>
<rect x="24.4" y="15.1" class="st1" width="2.2" height="2.2"/>
<rect x="22.3" y="17.3" class="st1" width="2.2" height="2.2"/>
<rect x="20.1" y="17.3" class="st1" width="2.2" height="2.2"/>
<rect x="17.9" y="17.3" class="st1" width="2.2" height="2.2"/>
<rect x="15.8" y="17.3" class="st1" width="2.2" height="2.2"/>
<rect x="15.1" y="17.3" class="st1" width="2.2" height="2.2"/>
<rect x="15.1" y="19.4" class="st1" width="2.2" height="2.2"/>
<rect x="20.1" y="19.4" class="st1" width="2.2" height="2.2"/>
<rect x="17.3" y="19.4" class="st1" width="2.8" height="2.2"/>
<rect x="17.3" y="21.6" class="st1" width="2.2" height="2.2"/>
<rect x="17.9" y="21.6" class="st1" width="2.2" height="2.2"/>
<rect x="26.6" y="8.6" class="st2" width="2.2" height="2.2"/>
<rect x="24.4" y="6.5" class="st2" width="2.2" height="2.2"/>
<rect x="8.6" y="8.6" class="st2" width="2.2" height="2.2"/>
<rect x="10.8" y="6.5" class="st2" width="2.2" height="2.2"/>
<rect x="13" y="4.3" class="st2" width="2.2" height="2.2"/>
<rect x="22.3" y="4.3" class="st2" width="2.2" height="2.2"/>
<rect x="20.1" y="2.2" class="st2" width="2.2" height="2.2"/>
<rect x="17.9" class="st2" width="2.2" height="2.2"/>
<rect x="15.1" y="2.2" class="st2" width="2.2" height="2.2"/>
<rect x="17.3" class="st2" width="2.2" height="2.2"/>
<rect x="8.6" y="10.8" class="st1" width="20.1" height="2.2"/>
<rect x="10.8" y="13" class="st1" width="15.8" height="2.2"/>
<rect x="13" y="15.1" class="st1" width="11.5" height="2.2"/>
<rect x="6.5" y="13" class="st0" width="2.2" height="2.2"/>
<rect x="4.3" y="15.1" class="st0" width="6.5" height="2.2"/>
<rect x="2.2" y="17.3" class="st0" width="10.8" height="6.5"/>
<rect x="24.4" y="17.3" class="st0" width="10.8" height="6.5"/>
<rect x="26.6" y="15.1" class="st0" width="6.5" height="2.2"/>
<rect x="28.7" y="13" class="st0" width="2.2" height="2.2"/>
<rect x="22.3" y="19.4" class="st0" width="2.2" height="2.2"/>
<rect x="20.1" y="21.6" class="st0" width="4.3" height="2.2"/>
<rect x="10.8" y="8.6" class="st2" width="15.8" height="2.2"/>
<rect x="12.9" y="6.5" class="st2" width="11.5" height="2.2"/>
<rect x="15.1" y="4.3" class="st2" width="7.2" height="2.2"/>
<rect x="17.3" y="2.2" class="st2" width="2.8" height="2.2"/>
</svg>
