<svg xmlns="http://www.w3.org/2000/svg" width="192" height="96" viewBox="0 0 192 96"><defs><style>.a{fill:none;}.b{fill:#fff;}</style></defs><rect class="a" width="192" height="96" rx="4"/><g transform="translate(69 29)"><path class="b" d="M16.15,15.171l-.095.091a7.212,7.212,0,0,1-5.123,2.372,6.449,6.449,0,0,1-6.57-6.763,6.45,6.45,0,0,1,6.57-6.76,7.2,7.2,0,0,1,5.123,2.379l.095.094L18.6,3.639l-.066-.08A9.361,9.361,0,0,0,11.051,0,11.389,11.389,0,0,0,3.3,2.829,10.541,10.541,0,0,0,0,10.871a10.557,10.557,0,0,0,3.3,8.048,11.352,11.352,0,0,0,7.754,2.832,9.358,9.358,0,0,0,7.483-3.56l.066-.074Z" transform="translate(0 12.296)"/><path class="b" d="M0,21.009H4.325V0H0Z" transform="translate(21.073 12.637)"/><path class="b" d="M13.117,22.959a6.29,6.29,0,0,1-3.192,1.051c-1.4,0-2.029-.734-2.029-2.368V10.493h4.4V6.537H7.9V0L3.657,2.257v4.28H0v3.956H3.657V22.352c0,3.231,1.923,5.438,4.794,5.5a6.843,6.843,0,0,0,3.839-.962l.042-.031L13.373,22.8l-.256.156Z" transform="translate(29.222 6.12)"/><path class="b" d="M0,21.009H4.328V0H0Z" transform="translate(45.922 12.637)"/><path class="b" d="M34.643,8.909A21.346,21.346,0,0,0,17.419,0,21.326,21.326,0,0,0,.2,8.909L0,9.2H4.985l.055-.06a17.052,17.052,0,0,1,24.763,0l.055.06h4.984Z" transform="translate(18.197)"/></g></svg>