<svg width="209" height="209" viewBox="0 0 209 209" fill="none" xmlns="http://www.w3.org/2000/svg">
<rect width="209" height="209" fill=""/>
<path d="M39.1009 111.108C37.5107 109.562 36.5566 107.433 36.5566 105C36.5566 102.567 37.4862 100.438 39.0031 98.8923C40.3242 97.5238 40.3242 95.3949 39.0031 94.0264C37.682 92.6579 35.6269 92.6579 34.3058 94.0264C31.6881 96.8395 30 100.717 30 105C30 109.283 31.6881 113.161 34.4037 115.974C35.7248 117.342 37.7798 117.342 39.1009 115.974C40.2997 114.605 40.2997 112.476 39.1009 111.108Z" fill="white"/>
<path d="M38.8923 99.082C40.4382 97.4908 42.5924 96.5606 45 96.5606C47.4076 96.5606 49.5618 97.4908 51.1077 99.0086C52.4762 100.33 54.6051 100.33 55.9736 99.0086C57.3421 97.6867 57.3421 95.6304 55.9736 94.3084C53.1605 91.6891 49.283 90 45 90C40.717 90 36.8395 91.6891 34.0264 94.4064C32.6579 95.7283 32.6579 97.7846 34.0264 99.1065C35.3949 100.282 37.5238 100.282 38.8923 99.082Z" fill="white"/>
<path d="M51.1077 111.826C49.5618 113.258 47.4076 114.095 45 114.095C42.5924 114.095 40.4382 113.258 38.8923 111.892C37.5238 110.703 35.3949 110.703 34.0264 111.892C32.6579 113.082 32.6579 114.933 34.0264 116.122C36.8395 118.48 40.717 120 45 120C49.283 120 53.1605 118.48 55.9736 116.034C57.3421 114.845 57.3421 112.994 55.9736 111.804C54.6051 110.747 52.4762 110.747 51.1077 111.826Z" fill="white"/>
<path d="M36.5 100C38.433 100 40 98.433 40 96.5C40 94.567 38.433 93 36.5 93C34.567 93 33 94.567 33 96.5C33 98.433 34.567 100 36.5 100Z" fill="white"/>
<path d="M36.5 117C38.433 117 40 115.657 40 114C40 112.343 38.433 111 36.5 111C34.567 111 33 112.343 33 114C33 115.657 34.567 117 36.5 117Z" fill="white"/>
<path d="M71.53 108.69C72.4771 107.881 72.6765 108.403 73.4491 109.187C73.823 109.578 74.9695 110.388 74.2218 110.989C72.7014 112.295 71.3555 112.896 69.3616 112.896C64.9749 112.896 61.8095 109.396 62.0089 104.877C62.1086 102.787 62.8563 100.881 64.4016 99.5746C65.8223 98.3731 67.5421 97.7724 69.3616 97.8769C70.3087 97.8769 71.0813 98.0858 71.9287 98.3731C72.502 98.5821 73.0753 98.8694 73.5488 99.2612C74.4959 100.071 74.0224 100.463 73.3494 101.272C73.15 101.481 73.0753 101.664 72.8759 101.769C72.502 102.16 72.2029 102.474 71.7293 102.056C70.7822 101.351 69.4363 100.959 68.2898 101.246C64.4764 102.239 64.6509 109.343 69.3366 109.343C70.0844 109.5 70.9567 109.213 71.53 108.69ZM177.607 112.608C176.934 112.608 176.461 112.112 176.461 111.407V95.6828C176.461 94.9776 176.934 94.4813 177.607 94.4813H178.853C179.526 94.4813 180 94.9776 180 95.6828V111.407C180 112.112 179.526 112.608 178.853 112.608H177.607ZM171.027 110.806C169.681 112.112 168.36 112.817 166.441 112.817C162.528 112.817 160.709 109.422 160.709 105.713V99.3134C160.709 98.6082 161.182 98.1119 161.855 98.1119H163.101C163.774 98.1119 164.248 98.6082 164.248 99.3134V105.713C164.248 107.802 165.295 109.422 167.488 109.422C169.582 109.422 170.928 107.515 170.928 105.53V99.3134C170.928 98.6082 171.401 98.1119 172.074 98.1119H173.32C173.993 98.1119 174.467 98.6082 174.467 99.3134V111.407C174.467 112.112 173.993 112.608 173.32 112.608H172.274C171.601 112.608 171.227 112.007 171.127 111.407L171.027 110.806ZM156.123 98.1903H158.515C159.188 98.1903 159.662 98.791 159.662 99.3918V100.201C159.662 100.907 159.188 101.403 158.515 101.403H156.123V111.407C156.123 112.112 155.649 112.608 154.976 112.608H153.73C153.057 112.608 152.583 112.112 152.583 111.407V97.694C152.583 94.6903 154.203 92.2873 157.169 92H158.989C159.662 92 160.135 92.6007 160.135 93.2015V94.0112C160.135 94.7164 159.662 95.2127 158.989 95.2127H158.042C156.621 95.2127 156.048 96.3097 156.048 97.7201V98.2164H156.123V98.1903V98.1903ZM147.424 98.1903H150.091C150.764 98.1903 151.237 98.6866 151.237 99.3918V100.201C151.237 100.907 150.764 101.403 150.091 101.403H147.424V107.489C147.424 108.69 147.997 109.291 149.144 109.291H149.717C150.39 109.291 150.864 109.787 150.864 110.493V111.381C150.864 112.086 150.39 112.582 149.717 112.582H148.097C145.231 112.373 143.985 110.493 143.985 107.489V95.6828C143.985 94.9776 144.458 94.4813 145.131 94.4813H146.377C147.05 94.4813 147.524 94.9776 147.524 95.6828V98.1903H147.424V98.1903ZM109.141 98.1903H111.807C112.48 98.1903 112.954 98.6866 112.954 99.3918V100.201C112.954 100.907 112.48 101.403 111.807 101.403H109.141V107.489C109.141 108.69 109.714 109.396 110.86 109.396H111.434C112.107 109.396 112.58 109.892 112.58 110.597V111.407C112.58 112.112 112.107 112.608 111.434 112.608H110.661C107.52 112.608 105.701 111.198 105.701 107.515V95.709C105.701 95.0037 106.175 94.5075 106.848 94.5075H108.094C108.767 94.5075 109.24 95.0037 109.24 95.709V98.2164C109.24 98.1903 109.141 98.1903 109.141 98.1903ZM93.5879 99.8881C94.8341 98.5821 96.2548 97.8769 97.9745 97.8769C101.888 97.8769 103.906 101.168 103.906 104.981V111.407C103.906 112.112 103.433 112.608 102.76 112.608H101.514C100.841 112.608 100.367 112.112 100.367 111.407V105.007C100.367 102.918 99.3204 101.299 97.1271 101.299C95.0335 101.299 93.6876 103.101 93.6876 105.19V111.407C93.6876 112.112 93.214 112.608 92.541 112.608H91.2948C90.6219 112.608 90.1483 112.112 90.1483 111.407V99.2873C90.1483 98.5821 90.6219 98.0858 91.2948 98.0858H92.3417C93.0146 98.0858 93.3885 98.6866 93.4882 99.2873L93.5879 99.8881ZM131.971 99.8881C133.217 98.5821 134.638 97.8769 136.358 97.8769C140.271 97.8769 142.29 101.168 142.29 104.981V111.407C142.29 112.112 141.816 112.608 141.143 112.608H139.897C139.224 112.608 138.75 112.112 138.75 111.407V105.007C138.75 102.918 137.704 101.299 135.51 101.299C133.417 101.299 132.071 103.101 132.071 105.19V111.407C132.071 112.112 131.597 112.608 130.924 112.608H129.678C129.005 112.608 128.532 112.112 128.532 111.407V99.2873C128.532 98.5821 129.005 98.0858 129.678 98.0858H130.725C131.398 98.0858 131.772 98.6866 131.871 99.2873L131.971 99.8881ZM81.8236 97.7985C77.6115 97.7985 74.6704 101.011 74.6704 105.399C74.6704 109.787 77.6364 113 81.8236 113C86.1106 113 89.0766 109.892 89.0766 105.399C89.0766 100.985 86.0358 97.7985 81.8236 97.7985ZM116.792 106.705C117.066 108.716 118.986 109.604 120.805 109.604C121.652 109.604 122.625 109.396 123.372 109.004C123.472 108.899 123.646 108.899 123.746 108.795C124.22 108.507 124.594 108.403 124.992 108.795L125.665 109.5L126.239 110.101C126.812 110.91 126.438 111.093 125.765 111.511C124.344 112.504 122.525 113 120.805 113C116.219 113 113.153 110.101 113.153 105.295C113.153 100.698 116.219 97.694 120.506 97.694C124.992 97.694 127.485 100.384 127.584 105.112C127.584 106.418 127.684 106.81 126.438 106.81H116.792C116.792 106.81 116.792 106.705 116.792 106.705ZM81.8236 101.194C84.017 101.194 85.4626 103.205 85.4626 105.399C85.4626 107.698 84.1167 109.5 81.8236 109.5C79.5306 109.5 78.1847 107.698 78.1847 105.399C78.1847 103.101 79.6303 101.194 81.8236 101.194ZM116.867 103.597H124.02C123.746 101.69 122.301 100.985 120.581 100.985C118.786 100.985 117.366 101.899 116.867 103.597Z" fill="white"/>
</svg>
