<?xml version="1.0" encoding="UTF-8"?>
<svg width="38px" height="45px" viewBox="0 0 38 45" version="1.1" xmlns="http://www.w3.org/2000/svg" xmlns:xlink="http://www.w3.org/1999/xlink">
    <title>2F40B0DC-1D5D-44C1-89E9-4015BA4E6E95</title>
    <g id="DESKTOP" stroke="none" stroke-width="1" fill="none" fill-rule="evenodd">
        <g id="Home" transform="translate(-746.000000, -3487.000000)">
            <g id="icon/development" transform="translate(746.000000, 3487.000000)">
                <polygon id="Fill-1" fill="#303CF4" points="33.5294644 23.5712245 31.2941965 23.5712245 31.2941965 25.714102 29.0566935 25.714102 29.0566935 27.8569796 26.8214256 27.8569796 26.8214256 29.9998571 24.5861578 29.9998571 24.5861578 32.1427347 22.3531253 32.1427347 22.3531253 34.2834694 20.1178574 34.2834694 20.1178574 36.4284898 17.8825896 36.4284898 17.8825896 34.2834694 15.6473218 34.2834694 15.6473218 32.1427347 13.412054 32.1427347 13.412054 29.9998571 11.1767862 29.9998571 11.1767862 27.8569796 8.93928307 27.8569796 8.93928307 25.714102 6.70401525 25.714102 6.70401525 23.5712245 4.46874743 23.5712245 2.23571487 23.5712245 2.23571487 25.714102 0.000447053564 25.714102 0.000447053564 27.8569796 2.23571487 27.8569796 2.23571487 29.9998571 4.46874743 29.9998571 4.46874743 32.1427347 6.70401525 32.1427347 6.70401525 34.2834694 8.93928307 34.2834694 8.93928307 36.4284898 11.1767862 36.4284898 11.1767862 38.5713673 13.412054 38.5713673 13.412054 40.7142449 15.6473218 40.7142449 15.6473218 42.8571224 17.8825896 42.8571224 17.8825896 45 20.1178574 45 20.1178574 42.8571224 22.3531253 42.8571224 22.3531253 40.7142449 24.5861578 40.7142449 24.5861578 38.5713673 26.8214256 38.5713673 26.8214256 36.4284898 29.0566935 36.4284898 29.0566935 34.2834694 31.2941965 34.2834694 31.2941965 32.1427347 33.5294644 32.1427347 33.5294644 29.9998571 35.7647322 29.9998571 35.7647322 27.8569796 38 27.8569796 38 25.714102 35.7647322 25.714102 35.7647322 23.5712245"></polygon>
                <polygon id="Fill-2" fill="#DB9195" points="17.8821426 0 17.8821426 2.14287755 15.6468747 2.14287755 15.6468747 4.2857551 13.4116069 4.2857551 13.4116069 6.42863265 11.1763391 6.42863265 11.1763391 8.5715102 8.93883601 8.5715102 8.93883601 10.7122449 6.70580346 10.7122449 6.70580346 12.8551224 4.47053564 12.8551224 4.47053564 14.998 2.23526782 14.998 2.23526782 17.1430204 0 17.1430204 0 19.285898 2.23526782 19.285898 2.23526782 21.4287755 4.47053564 21.4287755 6.70580346 21.4287755 6.70580346 19.285898 8.93883601 19.285898 8.93883601 17.1430204 11.1763391 17.1430204 11.1763391 14.998 13.4116069 14.998 13.4116069 12.8551224 15.6468747 12.8551224 15.6468747 10.7122449 17.8821426 10.7122449 17.8821426 8.5715102 20.1174104 8.5715102 20.1174104 10.7122449 22.3526782 10.7122449 22.3526782 12.8551224 24.587946 12.8551224 24.587946 14.998 26.8232138 14.998 26.8232138 17.1430204 29.0562464 17.1430204 29.0562464 19.285898 31.2937495 19.285898 31.2937495 21.4287755 33.5290173 21.4287755 35.7642851 21.4287755 35.7642851 19.285898 37.9995529 19.285898 37.9995529 17.1430204 35.7642851 17.1430204 35.7642851 14.998 33.5290173 14.998 33.5290173 12.8551224 31.2937495 12.8551224 31.2937495 10.7122449 29.0562464 10.7122449 29.0562464 8.5715102 26.8232138 8.5715102 26.8232138 6.42863265 24.587946 6.42863265 24.587946 4.2857551 22.3526782 4.2857551 22.3526782 2.14287755 20.1174104 2.14287755 20.1174104 0"></polygon>
                <polygon id="Fill-3" fill="#202248" points="31.293526 21.4281326 31.293526 19.2852551 29.0582581 19.2852551 29.0582581 17.1423775 26.8229903 17.1423775 26.8229903 14.9995 24.5877225 14.9995 24.5877225 12.8566224 22.3524547 12.8566224 22.3524547 10.7137449 20.1171869 10.7137449 20.1171869 8.57086734 17.881919 8.57086734 17.881919 10.7137449 15.6466512 10.7137449 15.6466512 12.8566224 13.4113834 12.8566224 13.4113834 14.9995 11.1761156 14.9995 11.1761156 17.1423775 8.94084775 17.1423775 8.94084775 19.2852551 6.70557993 19.2852551 6.70557993 21.4281326 4.47031211 21.4281326 4.47031211 23.5710102 6.70557993 23.5710102 6.70557993 25.7138878 8.94084775 25.7138878 8.94084775 27.8567653 11.1761156 27.8567653 11.1761156 29.9996429 13.4113834 29.9996429 13.4113834 32.1425204 15.6466512 32.1425204 15.6466512 34.285398 17.881919 34.285398 17.881919 36.4282755 20.1171869 36.4282755 20.1171869 34.285398 22.3524547 34.285398 22.3524547 32.1425204 24.5877225 32.1425204 24.5877225 29.9996429 26.8229903 29.9996429 26.8229903 27.8567653 29.0582581 27.8567653 29.0582581 25.7138878 31.293526 25.7138878 31.293526 23.5710102 33.5287938 23.5710102 33.5287938 21.4281326"></polygon>
            </g>
        </g>
    </g>
</svg>