<?xml version="1.0" encoding="utf-8"?>
<!-- Generator: Adobe Illustrator 26.2.1, SVG Export Plug-In . SVG Version: 6.00 Build 0)  -->
<svg version="1.1" id="Laag_1" xmlns="http://www.w3.org/2000/svg" xmlns:xlink="http://www.w3.org/1999/xlink" x="0px" y="0px"
	 viewBox="0 0 209 209" style="enable-background:new 0 0 209 209;" xml:space="preserve">
<style type="text/css">
	.st0{fill:none;}
	.st1{fill:#FFFFFF;}
</style>
<rect class="st0" width="209" height="209"/>
<path class="st1" d="M56.1,114.9h-4.2v-10.4H49v-3.4h2.8v-2.4c0-2.9,1.3-4.9,5.4-4.9c0.9,0,2.3,0.2,2.3,0.2v3.2h-1.5
	c-1.5,0-2.1,0.5-2.1,1.7v2.3h3.5l-0.3,3.4h-3.2L56.1,114.9z M65.6,100.8c-0.1,0-0.1,0-0.2,0c-3.9,0-5.7,2.9-5.7,7.1
	c0,5.2,2.3,7.3,5.7,7.3c1.9,0,3.2-0.8,4-2.3v2.1h4v-13.8h-4v2.1C68.8,101.8,67.5,100.8,65.6,100.8z M66.7,104.1
	c1.6,0,2.6,1.1,2.6,3.1l0,2c0,1.3-0.8,2.8-2.6,2.8c-2.8,0-2.7-3-2.7-4C64,104.6,65.4,104.1,66.7,104.1L66.7,104.1z M75.1,108
	c0-1.7-0.1-7.2,7.1-7.2c2.9,0,4.1,0.9,4.1,0.9l-1,3c0,0-1.2-0.7-2.8-0.7c-2,0-3.3,1.2-3.3,3.2l0,1.5c0,2,1.2,3.3,3.3,3.3
	c1.4,0,2.7-0.7,2.7-0.7l1,2.9c0,0-1.1,0.9-4,0.9C75.3,115.2,75.1,110.3,75.1,108L75.1,108z M109.5,100.8c3.9,0,5.7,2.9,5.7,7.1
	c0,5.2-2.3,7.3-5.7,7.3c-1.9,0-3.4-0.8-4.1-2.3v2.1l-3.9,0V94.2l4.2-0.4v9.2C106.2,101.4,108.2,100.8,109.5,100.8L109.5,100.8z
	 M108.3,104.1c-1.6,0-2.7,1.1-2.7,3.1l0,2c0,1.3,0.8,2.8,2.7,2.8c2.8,0,2.7-3,2.7-4C111,104.6,109.6,104.1,108.3,104.1z M93.4,100.8
	c-4.4,0-6.7,2.4-6.7,6.7v0.8c0,5.5,3.3,7,7.1,7c3.8,0,5.5-1.1,5.5-1.1l-0.8-2.8c0,0-2,0.9-4.2,0.9c-2.3,0-3.3-0.6-3.5-2.8h8.8v-2.3
	C99.7,102.6,97.1,100.8,93.4,100.8L93.4,100.8z M93.5,103.7c1.5,0,2.5,0.9,2.5,3.1h-5.1C90.9,104.5,92,103.7,93.5,103.7L93.5,103.7z
	 M123.5,100.8c-4.5,0-6.9,2.5-6.9,7.1c0,6.3,4.1,7.3,6.9,7.3c4.1,0,6.8-2.2,6.8-7.2C130.3,102.8,127.3,100.8,123.5,100.8z
	 M123.4,104.1c2,0,2.8,1.5,2.8,3.2v1.5c0,2-1.1,3.2-2.8,3.2c-1.6,0-2.7-1.1-2.7-3.2v-1.5C120.8,105,122.1,104.1,123.4,104.1z
	 M138.6,100.8c-4.5,0-6.9,2.5-6.9,7.1c0,6.3,4.1,7.3,6.9,7.3c4.1,0,6.8-2.2,6.8-7.2C145.5,102.8,142.4,100.8,138.6,100.8z
	 M138.6,104.1c2,0,2.8,1.5,2.8,3.2v1.5c0,2-1.1,3.2-2.8,3.2c-1.6,0-2.7-1.1-2.7-3.2v-1.5C135.9,105,137.2,104.1,138.6,104.1z
	 M147.1,114.9V94.2l4.2-0.4v13.9l4.1-6.6h4.4l-4.3,6.9l4.5,7h-4.4l-4.3-6.8v6.8H147.1z"/>
</svg>
