<?xml version="1.0" encoding="UTF-8"?>
<svg width="16px" height="21px" viewBox="0 0 16 21" version="1.1" xmlns="http://www.w3.org/2000/svg" xmlns:xlink="http://www.w3.org/1999/xlink">
    <title>6489C604-937F-47A3-A33F-7F82BEF6B816</title>
    <g id="DESKTOP" stroke="none" stroke-width="1" fill="none" fill-rule="evenodd">
        <g id="Home" transform="translate(-480.000000, -2945.000000)">
            <g id="icon/flag" transform="translate(480.000000, 2945.000000)">
                <polygon id="Fill-1" fill="#FFFFFF" points="0 0 0 1 0 2 0 3 0 4 0 4.999 0 5.999 0 6.999 0 8 0 9 0 10 0 11 0 12 0 13 0 13.999 0 14.999 0 15.999 0 17 0 18 0 19 0 20 0 21 1 21 2 21 2 20 2 19 2 18 2 17 2 15.999 2 14.999 2 13.999 2 13 2 12 2 11 2 10 2 9 2 8 2 6.999 2 5.999 2 4.999 2 4 2 3 2 2 2 1 2 0"></polygon>
                <polygon id="Fill-2" fill="#DB9195" points="15.0003 0.9999 14.0003 0.9999 12.9993 0.9999 11.9993 0.9999 10.9993 0.9999 10.0003 0.9999 9.0003 0.9999 8.0003 0.9999 7.0003 0.9999 6.0003 0.9999 5.0003 0.9999 3.9993 0.9999 2.9993 0.9999 1.9993 0.9999 1.9993 1.9999 1.9993 2.9999 1.9993 3.9999 1.9993 4.9999 1.9993 5.9989 1.9993 6.9989 1.9993 7.9999 1.9993 8.9999 1.9993 9.9999 1.9993 10.9999 1.9993 11.9999 2.9993 11.9999 3.9993 11.9999 5.0003 11.9999 6.0003 11.9999 7.0003 11.9999 8.0003 11.9999 9.0003 11.9999 10.0003 11.9999 10.9993 11.9999 11.9993 11.9999 12.9993 11.9999 14.0003 11.9999 15.0003 11.9999 16.0003 11.9999 16.0003 10.9999 15.0003 10.9999 15.0003 9.9999 14.0003 9.9999 14.0003 8.9999 12.9993 8.9999 12.9993 7.9999 11.9993 7.9999 11.9993 6.9989 10.9993 6.9989 10.9993 5.9989 11.9993 5.9989 11.9993 4.9999 12.9993 4.9999 12.9993 3.9999 14.0003 3.9999 14.0003 2.9999 15.0003 2.9999 15.0003 1.9999 16.0003 1.9999 16.0003 0.9999"></polygon>
            </g>
        </g>
    </g>
</svg>