<?xml version="1.0" encoding="UTF-8"?>
<svg width="25px" height="32px" viewBox="0 0 25 32" version="1.1" xmlns="http://www.w3.org/2000/svg" xmlns:xlink="http://www.w3.org/1999/xlink">
    <title>182A1EFE-D034-4A18-A7E0-3E1BEA01B8FC</title>
    <g id="DESKTOP" stroke="none" stroke-width="1" fill="none" fill-rule="evenodd">
        <g id="Home" transform="translate(-159.000000, -4963.000000)">
            <g id="Footer" transform="translate(0.000000, 4843.000000)">
                <g id="logo-emblem" transform="translate(159.000000, 120.000000)">
                    <path d="M12.454875,25.5379508 C9.17506343,25.5379508 6.46719826,22.8705371 6.46719826,19.6380659 C6.46719826,16.4048804 9.17506343,13.7374666 12.454875,13.7374666 C15.4820587,13.7374666 18.0213846,16.0087687 18.3954331,18.8987051 C18.4266038,19.1415869 18.4429141,19.3880405 18.4429141,19.6380659 L18.4429141,22.0650981 L24.9108373,22.0650981 L24.9108373,19.6380659 L24.9108373,1.24344979e-14 L18.3954331,1.24344979e-14 L18.3954331,8.85911404 C16.6270388,7.90616011 14.6027546,7.36396219 12.454875,7.36396219 C5.60456687,7.36396219 0,12.8870231 0,19.6380659 C0,26.3883944 5.60456687,31.9118125 12.454875,31.9118125 L14.9184487,31.9118125 L14.9184487,25.5379508 L12.454875,25.5379508 Z" id="Path" fill="#FFFFFF"></path>
                    <polygon id="Path" fill="#DB9195" points="18.4374773 32.0000357 25 32.0000357 25 25.5318788 18.4374773 25.5318788"></polygon>
                </g>
            </g>
        </g>
    </g>
</svg>