<?xml version="1.0" encoding="UTF-8"?>
<svg width="17px" height="16px" viewBox="0 0 17 16" version="1.1" xmlns="http://www.w3.org/2000/svg" xmlns:xlink="http://www.w3.org/1999/xlink">
    <title>15E4B618-3280-450B-B160-6B7DCEDFE451</title>
    <g id="DESKTOP" stroke="none" stroke-width="1" fill="none" fill-rule="evenodd">
        <g id="Home" transform="translate(-1635.000000, -5250.000000)" fill="#DB9195">
            <g id="Footer" transform="translate(0.000000, 4843.000000)">
                <path d="M1644.19558,413.368696 C1645.68025,410.670261 1652,410.470609 1652,415.952348 L1652,415.952348 L1652,423 L1648.46683,423 L1648.46683,417.157217 C1648.46683,413.642783 1644.19629,413.908522 1644.19629,417.157217 L1644.19629,417.157217 L1644.19629,423 L1640.67658,423 L1640.67658,411.869565 L1644.19558,411.869565 Z M1638.54167,411.869565 L1638.54167,423 L1635,423 L1635,411.869565 L1638.54167,411.869565 Z M1636.77083,407 C1637.74125,407 1638.5275,407.77913 1638.5275,408.73913 C1638.5275,409.699826 1637.74125,410.478261 1636.77083,410.478261 C1635.80042,410.478261 1635.01417,409.699826 1635.01417,408.73913 C1635.01417,407.77913 1635.80042,407 1636.77083,407 Z" id="icon/linkedin"></path>
            </g>
        </g>
    </g>
</svg>