<?xml version="1.0" encoding="UTF-8"?>
<svg width="18px" height="18px" viewBox="0 0 18 18" version="1.1" xmlns="http://www.w3.org/2000/svg" xmlns:xlink="http://www.w3.org/1999/xlink">
    <title>D5CA1873-9FE3-414B-8B05-80E31099CAF2</title>
    <g id="DESKTOP" stroke="none" stroke-width="1" fill="none" fill-rule="evenodd">
        <g id="Home" transform="translate(-1577.000000, -5249.000000)" fill="#DB9195">
            <g id="Footer" transform="translate(0.000000, 4843.000000)">
                <path d="M1586.98651,406.00083 C1588.55411,406.00403 1588.89881,406.017308 1589.71175,406.05475 C1592.98325,406.20475 1594.799,408.02425 1594.946,411.28975 C1594.95269,411.437442 1594.9586,411.569655 1594.96382,411.696557 L1594.97112,411.884195 C1594.98925,412.380721 1594.99686,412.873597 1594.99917,414.013546 L1594.99995,414.727302 L1594.99995,414.727302 L1595,415 C1595,415.09401 1594.99998,415.184857 1594.99995,415.272702 L1594.99917,415.986502 C1594.99597,417.554096 1594.98269,417.898692 1594.94525,418.711 C1594.7975,421.9825 1592.9765,423.796 1589.711,423.946 C1588.89869,423.982808 1588.5541,423.995988 1586.9865,423.999173 L1586.2727,423.999952 L1586.2727,423.999952 L1586,424 C1585.90599,424 1585.81514,423.999984 1585.7273,423.999952 L1585.01354,423.999173 C1584.01608,423.997146 1583.514,423.991072 1583.07124,423.977437 L1582.88385,423.97112 C1582.69755,423.96432 1582.51071,423.956038 1582.289,423.946 C1579.0175,423.796 1577.204,421.9795 1577.054,418.711 C1577.01719,417.898692 1577.00401,417.554096 1577.00083,415.986502 L1577.00083,414.013543 C1577.00403,412.446099 1577.01731,412.101942 1577.05475,411.289 C1577.20475,408.0175 1579.02125,406.204 1582.28975,406.054 C1582.43744,406.047308 1582.56966,406.041396 1582.69656,406.036184 L1582.8842,406.02888 C1583.38072,406.010746 1583.8736,406.003143 1585.01355,406.000827 Z M1586,410.378425 C1583.44775,410.378425 1581.3785,412.447675 1581.3785,414.999925 C1581.3785,417.552175 1583.44775,419.622175 1586,419.622175 C1588.55225,419.622175 1590.6215,417.552925 1590.6215,414.999925 C1590.6215,412.447675 1588.55225,410.378425 1586,410.378425 Z M1586,412 C1587.65675,412 1589,413.34325 1589,415 C1589,416.6575 1587.65675,418 1586,418 C1584.34325,418 1583,416.6575 1583,415 C1583,413.34325 1584.34325,412 1586,412 Z M1590.80472,409.1161 C1590.20772,409.1161 1589.72397,409.59985 1589.72397,410.1961 C1589.72397,410.79235 1590.20772,411.2761 1590.80472,411.2761 C1591.40097,411.2761 1591.88322,410.79235 1591.88322,410.1961 C1591.88322,409.59985 1591.40097,409.1161 1590.80472,409.1161 Z" id="icon/instagram"></path>
            </g>
        </g>
    </g>
</svg>