<?xml version="1.0" encoding="UTF-8"?>
<svg width="18px" height="18px" viewBox="0 0 18 18" version="1.1" xmlns="http://www.w3.org/2000/svg" xmlns:xlink="http://www.w3.org/1999/xlink">
    <title>5538DBDE-EE6E-442B-B754-0F5D3C1DEC34</title>
    <g id="DESKTOP" stroke="none" stroke-width="1" fill="none" fill-rule="evenodd">
        <g id="Home" transform="translate(-1741.000000, -5249.000000)" fill="#DB9195">
            <g id="Footer" transform="translate(0.000000, 4843.000000)">
                <path d="M1755.32342,413.977872 C1752.42277,412.254963 1747.63709,412.096547 1744.86767,412.937098 C1744.42295,413.071977 1743.95266,412.820919 1743.81789,412.376193 C1743.68312,411.931253 1743.93396,411.461271 1744.379,411.326069 C1747.5581,410.360956 1752.84298,410.547423 1756.18254,412.529988 C1756.58341,412.767397 1756.71452,413.284023 1756.47701,413.683502 C1756.24057,414.083519 1755.72256,414.215389 1755.32385,413.977872 L1755.32342,413.977872 Z M1755.22884,416.529725 C1755.02572,416.860207 1754.59369,416.964456 1754.26375,416.761331 C1751.84458,415.274004 1748.15693,414.843357 1745.29551,415.711959 C1744.92441,415.824054 1744.53247,415.61491 1744.41984,415.244449 C1744.30807,414.873342 1744.51731,414.482138 1744.88776,414.369291 C1748.15628,413.377525 1752.21965,413.857932 1754.99778,415.56515 C1755.32771,415.768275 1755.43196,416.200319 1755.22884,416.529833 L1755.22884,416.529725 Z M1754.12726,418.980661 C1753.96606,419.245046 1753.62,419.328875 1753.35562,419.16659 C1751.24253,417.875832 1748.5824,417.583504 1745.44962,418.299278 C1745.14774,418.368061 1744.84682,418.178908 1744.77804,417.876907 C1744.70893,417.574906 1744.89733,417.27398 1745.19997,417.205197 C1748.62829,416.421607 1751.56902,416.759182 1753.94134,418.209 C1754.20572,418.371285 1754.28954,418.716276 1754.12726,418.980661 L1754.12726,418.980661 Z M1749.99995,406 C1745.02952,406 1741,410.029507 1741,415.000054 C1741,419.970815 1745.02952,424 1749.99995,424 C1754.97091,424 1759,419.970815 1759,415.000054 C1759,410.02983 1754.97091,406.00043 1749.99984,406.00043 L1749.99995,406 Z" id="icon/spotify"></path>
            </g>
        </g>
    </g>
</svg>