<svg xmlns="http://www.w3.org/2000/svg" xmlns:xlink="http://www.w3.org/1999/xlink" width="192" height="96" viewBox="0 0 192 96"><defs><style>.a{fill:none;}.b{fill:#141313;}.c{fill:#fff;}.d{clip-path:url(#a);}</style><clipPath id="a"><path class="a" d="M0,0H1.734V1.747H0Z" transform="translate(0)"/></clipPath></defs><rect class="a" width="192" height="96" rx="4"/><g transform="translate(49 34)"><path class="b" d="M16.924,8.462A8.462,8.462,0,1,1,8.462,0,8.462,8.462,0,0,1,16.924,8.462Z" transform="translate(4.151 3.353)"/><path class="c" d="M16.706,28.118a2.739,2.739,0,0,1-1.057-.246,11.666,11.666,0,0,0-2.98-1.033h-.358a11.666,11.666,0,0,0-2.98,1.033,2.741,2.741,0,0,1-1.057.246c-1.069,0-1.6-.919-2.213-1.983l-.027-.046a1.473,1.473,0,0,0-1.407-.669,8.652,8.652,0,0,0-2.369.5c-.252.078-.49.151-.682.2l-.1.025A3.931,3.931,0,0,1,.6,26.3a.544.544,0,0,1-.5-.215c-.241-.37-.043-1.264.606-2.733A16.359,16.359,0,0,0,2.121,17.61V10.159A10.276,10.276,0,0,1,12.488,0,10.275,10.275,0,0,1,22.854,10.159V17.5a16.429,16.429,0,0,0,1.42,5.846c.649,1.469.847,2.363.606,2.733a.544.544,0,0,1-.5.215,3.924,3.924,0,0,1-.878-.157l-.1-.025c-.192-.048-.429-.121-.681-.2a8.656,8.656,0,0,0-2.37-.5,1.473,1.473,0,0,0-1.408.669l-.027.047C18.3,27.2,17.775,28.118,16.706,28.118ZM7.333,13.06h0a7.539,7.539,0,0,0,1.89,3.5,4.575,4.575,0,0,0,3.267,1.517,4.575,4.575,0,0,0,3.266-1.517,7.526,7.526,0,0,0,1.889-3.5,6.316,6.316,0,0,1-10.311,0Zm8.355-7.52c-1.115,0-2.022,1.407-2.022,3.136s.907,3.136,2.022,3.136,2.021-1.407,2.021-3.136S16.8,5.54,15.688,5.54Zm-6.4,0c-1.115,0-2.022,1.407-2.022,3.136s.907,3.136,2.022,3.136S11.31,10.4,11.31,8.675,10.4,5.54,9.289,5.54Z" transform="translate(0)"/><path class="c" d="M3.722,6.666H7.016V11.32c0,2.348-1.2,3.689-3.508,3.689S0,13.668,0,11.32V3.689C0,1.341,1.2,0,3.507,0S7.016,1.341,7.016,3.689V5.115H4.791V3.542c0-1.048-.47-1.446-1.219-1.446s-1.219.4-1.219,1.446v7.924c0,1.048.471,1.426,1.219,1.426s1.219-.377,1.219-1.426v-2.7H3.722Z" transform="translate(27.143 5.269)"/><path class="c" d="M2.353,14.673H0V0H2.353V6.289H5.026V0h2.4V14.673h-2.4V8.385H2.353Z" transform="translate(35.765 5.429)"/><path class="c" d="M3.572,15.01A3.521,3.521,0,0,1,.92,14.045,3.794,3.794,0,0,1,0,11.32V3.689A3.792,3.792,0,0,1,.92.964,3.522,3.522,0,0,1,3.572,0,3.522,3.522,0,0,1,6.225.964a3.792,3.792,0,0,1,.92,2.725V11.32a3.794,3.794,0,0,1-.92,2.725A3.521,3.521,0,0,1,3.572,15.01Zm0-12.914c-.821,0-1.22.473-1.22,1.446v7.924c0,.973.4,1.446,1.22,1.446s1.219-.473,1.219-1.446V3.542C4.791,2.569,4.392,2.1,3.572,2.1Z" transform="translate(44.706 5.269)"/><path class="c" d="M3.53,0C5.819,0,6.995,1.342,6.995,3.69v.461H4.77V3.543C4.77,2.495,4.342,2.1,3.593,2.1s-1.176.4-1.176,1.446c0,3.018,4.6,3.585,4.6,7.777,0,2.348-1.2,3.689-3.508,3.689S0,13.668,0,11.32v-.9H2.224v1.048c0,1.048.471,1.425,1.219,1.425s1.219-.377,1.219-1.425c0-3.019-4.6-3.585-4.6-7.777C.064,1.342,1.24,0,3.53,0Z" transform="translate(53.008 5.269)"/><path class="c" d="M0,0H7.272V2.1H4.813V14.674H2.46V2.1H0Z" transform="translate(60.513 5.429)"/><path class="c" d="M2.352,6.184h3.23v2.1H2.352v4.3H6.416v2.1H0V0H6.416V2.1H2.352Z" transform="translate(68.975 5.429)"/><path class="c" d="M2.353,14.675H0V0H3.551C5.93,0,7.038,1.072,7.038,3.375V4.528c0,1.527-.5,2.5-1.541,2.976,1.065.437,1.562,1.43,1.562,3.124v2.263a4.253,4.253,0,0,0,.256,1.781h-2.4l-.008-.023a4.472,4.472,0,0,1-.206-1.78V10.565c0-1.325-.446-1.866-1.54-1.866H2.353v5.974Zm0-12.578V6.6h.92c.976,0,1.411-.478,1.411-1.551V3.605c0-1.044-.369-1.509-1.2-1.509Z" transform="translate(76.799 5.429)"/><path class="c" d="M2.973,9.81,0,0H2.459l1.8,6.687L6.054,0H8.3L5.326,9.81v4.863H2.973Z" transform="translate(84.462 5.429)"/><g transform="translate(93.265 5.486)"><path class="a" d="M0,0H1.734V1.747H0Z" transform="translate(0)"/><g class="d"><path class="c" d="M.868,1.747A.852.852,0,0,1,0,.874.843.843,0,0,1,.868,0a.841.841,0,0,1,.866.874A.85.85,0,0,1,.868,1.747ZM.868.17a.673.673,0,0,0-.688.7.673.673,0,0,0,.688.7.671.671,0,0,0,.686-.7A.672.672,0,0,0,.868.17ZM.783,1.4H.594V.351H.882c.193,0,.283.087.283.274V.646a.23.23,0,0,1-.13.242c.089.035.13.116.13.251v.113a.333.333,0,0,0,.021.142H.993a.3.3,0,0,1-.019-.146V1.137C.974,1.029.937.986.848.986H.783V1.4Z" transform="translate(0)"/></g></g></g></svg>