<?xml version="1.0" encoding="utf-8"?>
<!-- Generator: Adobe Illustrator 26.2.1, SVG Export Plug-In . SVG Version: 6.00 Build 0)  -->
<svg version="1.1" id="Laag_1" xmlns="http://www.w3.org/2000/svg" xmlns:xlink="http://www.w3.org/1999/xlink" x="0px" y="0px"
	 viewBox="0 0 209 209" style="enable-background:new 0 0 209 209;" xml:space="preserve">
<style type="text/css">
	.st0{fill:none;}
	.st1{fill:#FFFFFF;}
</style>
<rect class="st0" width="209" height="209"/>
<g>
	<path class="st1" d="M96.7,105.4c0,5.1-4,8.9-8.9,8.9c-4.9,0-8.9-3.8-8.9-8.9c0-5.2,4-8.9,8.9-8.9C92.7,96.5,96.7,100.3,96.7,105.4
		z M92.8,105.4c0-3.2-2.3-5.4-5-5.4s-5,2.2-5,5.4c0,3.2,2.3,5.4,5,5.4S92.8,108.6,92.8,105.4z"/>
	<path class="st1" d="M115.9,105.4c0,5.1-4,8.9-8.9,8.9s-8.9-3.8-8.9-8.9c0-5.1,4-8.9,8.9-8.9S115.9,100.3,115.9,105.4z M112,105.4
		c0-3.2-2.3-5.4-5-5.4s-5,2.2-5,5.4c0,3.2,2.3,5.4,5,5.4S112,108.6,112,105.4z"/>
	<path class="st1" d="M134.4,97.1V113c0,6.6-3.9,9.2-8.4,9.2c-4.3,0-6.9-2.9-7.9-5.2l3.4-1.4c0.6,1.4,2.1,3.2,4.5,3.2
		c2.9,0,4.7-1.8,4.7-5.2v-1.3h-0.1c-0.9,1.1-2.6,2-4.7,2c-4.4,0-8.5-3.9-8.5-8.8c0-5,4.1-8.9,8.5-8.9c2.1,0,3.8,0.9,4.7,2h0.1v-1.4
		L134.4,97.1L134.4,97.1z M130.9,105.5c0-3.1-2.1-5.4-4.7-5.4c-2.7,0-4.9,2.3-4.9,5.4c0,3.1,2.3,5.4,4.9,5.4
		C128.9,110.8,130.9,108.6,130.9,105.5z"/>
	<path class="st1" d="M140.5,87.7v26h-3.8v-26H140.5z"/>
	<path class="st1" d="M155.3,108.4l3,2c-1,1.4-3.3,3.9-7.4,3.9c-5,0-8.8-3.9-8.8-8.9c0-5.3,3.8-8.9,8.4-8.9c4.6,0,6.9,3.7,7.6,5.7
		l0.4,1l-11.9,4.9c0.9,1.8,2.3,2.7,4.3,2.7C152.9,110.8,154.3,109.8,155.3,108.4L155.3,108.4z M146,105.2l7.9-3.3
		c-0.4-1.1-1.8-1.9-3.3-1.9C148.6,100,145.9,101.7,146,105.2z"/>
	<path class="st1" d="M64.5,103.1v-3.8h12.7c0.1,0.7,0.2,1.4,0.2,2.3c0,2.8-0.8,6.3-3.3,8.8c-2.4,2.5-5.5,3.9-9.6,3.9
		c-7.6,0-14-6.2-14-13.8s6.4-13.8,14-13.8c4.2,0,7.2,1.7,9.5,3.8l-2.7,2.7c-1.6-1.5-3.8-2.7-6.8-2.7c-5.6,0-9.9,4.5-9.9,10
		s4.3,10,9.9,10c3.6,0,5.7-1.4,7-2.8c1.1-1.1,1.8-2.6,2-4.7L64.5,103.1z"/>
</g>
</svg>
