<?xml version="1.0" encoding="utf-8"?>
<!-- Generator: Adobe Illustrator 26.2.1, SVG Export Plug-In . SVG Version: 6.00 Build 0)  -->
<svg version="1.1" id="Laag_1" xmlns="http://www.w3.org/2000/svg" xmlns:xlink="http://www.w3.org/1999/xlink" x="0px" y="0px"
	 viewBox="0 0 209 209" style="enable-background:new 0 0 209 209;" xml:space="preserve">
<style type="text/css">
	.st0{fill:none;}
	.st1{fill-rule:evenodd;clip-rule:evenodd;fill:#FFFFFF;}
</style>
<rect class="st0" width="209" height="209"/>
<path class="st1" d="M69.5,117.9h1.6c0.4,0,0.7-0.3,0.7-0.7V99.6c0-1.7-1.4-3.1-3.1-3.1h-2.1c-0.4,0-0.7-0.3-0.7-0.7v-1.6
	c0-1.7-1.4-3.1-3.1-3.1H49.5c-1.7,0-3.1,1.4-3.1,3.1v17.6c0,1.7,1.4,3.1,3.1,3.1h15.5c0.1,0,0.3,0,0.4,0.1l3.8,2.7
	C69.2,117.9,69.4,117.9,69.5,117.9z M65.7,112.5H49.5c-0.4,0-0.7-0.3-0.7-0.7V94.3c0-0.4,0.3-0.7,0.7-0.7h13.3
	c0.4,0,0.7,0.3,0.7,0.7v1.6c0,0.4-0.3,0.7-0.7,0.7h-9.9c-0.4,0-0.7,0.3-0.7,0.7v11.7c0,0.4,0.3,0.7,0.7,0.7h12.3
	c0.4,0,0.7-0.3,0.7-0.7v-9.2c0-0.4,0.3-0.7,0.7-0.7h2c0.4,0,0.7,0.3,0.7,0.7V114c0,0.4-0.4,0.6-0.7,0.4l-2.5-1.8
	C66,112.5,65.9,112.5,65.7,112.5z M63.1,107.1H55c-0.2,0-0.3-0.1-0.3-0.3v-7.4c0-0.2,0.1-0.3,0.3-0.3h8.1c0.2,0,0.3,0.1,0.3,0.3v7.4
	C63.4,106.9,63.3,107.1,63.1,107.1z M134.5,94.8c1,0,1.9-0.8,1.9-1.9c0-1-0.8-1.9-1.9-1.9c-1,0-1.9,0.8-1.9,1.9
	C132.6,94,133.4,94.8,134.5,94.8z M113.1,97.6v-1h-3v12.9h3v-8.8l3.5-1.5v-3h0L113.1,97.6z M101.5,96.5c-2,0-3.5,0.6-4.8,1.9
	c-0.6,0.6-1,1.3-1.3,2.1c-0.3,0.8-0.5,1.6-0.5,2.5c0,1.8,0.5,3.3,1.6,4.5c1.2,1.3,2.8,1.9,4.8,1.9c2,0,3.5-0.6,4.7-1.9
	c1.1-1.2,1.7-2.8,1.7-4.6c0-1.9-0.6-3.4-1.6-4.6C104.9,97.1,103.4,96.5,101.5,96.5z M103.8,105.7c-0.6,0.7-1.4,1.1-2.4,1.1
	c-1.1,0-2-0.4-2.6-1.1c-0.3-0.3-0.6-0.7-0.7-1.2c-0.2-0.5-0.3-1-0.3-1.5c0-1,0.3-1.9,0.8-2.6c0.6-0.8,1.5-1.2,2.6-1.2
	c1.1,0,1.9,0.4,2.5,1.1c0.6,0.7,0.9,1.6,0.9,2.7C104.7,104.1,104.4,105,103.8,105.7z M132.9,96.5h3v13h-3V96.5z M87.2,96.5
	c-1.7,0-3.1,0.5-4.2,1.5c-1,1-1.5,2.1-1.5,3.6c0,1.3,0.5,2.3,1.4,3.2c-0.8,0.6-1.2,1.4-1.2,2.3c0,0.5,0.1,1,0.2,1.4
	c0.1,0.4,0.4,0.8,0.7,1.1c-1.4,0.7-2,2-2,3.6c0,1.4,0.7,2.6,1.9,3.4c1.2,0.9,2.8,1.3,4.8,1.3c2,0,3.4-0.4,4.4-1.1
	c1-0.8,1.5-1.9,1.5-3.3c0-1.4-0.4-2.5-1.2-3.3c-0.4-0.4-1-0.7-1.7-1c-0.7-0.3-1.6-0.5-2.8-0.7c-1.2-0.2-2.1-0.4-2.6-0.7
	c-0.2-0.1-0.4-0.2-0.5-0.3c-0.1-0.1-0.1-0.3-0.1-0.5s0.2-0.5,0.4-0.9c0.7,0.2,1.4,0.3,2.2,0.3c1.6,0,3-0.5,4-1.5
	c0.5-0.5,0.8-1,1.1-1.6c0.3-0.6,0.4-1.3,0.4-2c0-0.7-0.2-1.5-0.5-2.1c0,0,0,0,0,0h1.3v-2.5H87.2z M85.1,110.5l0.6,0.1
	c1.7,0.3,3,0.6,3.7,1.1c0.6,0.4,1,0.9,1,1.6c0,1.4-1,2.1-3,2.1c-1.2,0-2.1-0.2-2.8-0.7c-0.3-0.2-0.6-0.5-0.8-0.8
	c-0.2-0.3-0.3-0.6-0.3-1c0-0.4,0.1-0.8,0.4-1.2C84.2,111.2,84.6,110.8,85.1,110.5z M88.9,103.1c-0.5,0.4-1.1,0.7-1.7,0.7
	c-0.9,0-1.6-0.2-2.1-0.7c-0.2-0.2-0.4-0.5-0.6-0.7c-0.1-0.3-0.2-0.6-0.2-0.8c0-0.3,0.1-0.6,0.2-0.9c0.4-1,1.2-1.5,2.6-1.5
	c0.8,0,1.4,0.2,1.9,0.6c0.4,0.4,0.7,1,0.7,1.6C89.7,102,89.4,102.6,88.9,103.1z M149.2,99.4c0.2,0.6,0.3,1.3,0.3,2v8.1h-2.9v-0.6
	c-0.9,0.4-1.7,0.6-2.4,0.6c-0.9,0-1.7-0.1-2.4-0.3c-0.7-0.2-1.2-0.4-1.7-0.8c-0.9-0.7-1.4-1.7-1.4-3c0-1.1,0.6-2.1,1.7-2.9
	c1.2-0.8,2.9-1.2,5-1.2l0.5,0c0,0,0.1,0,0.2,0c0.1,0,0.1,0,0.2,0c0.1,0,0.1,0,0.2,0c0.1,0,0.1,0,0.2,0c-0.1-1.3-0.6-2-1.7-2.3
	c-0.3-0.1-0.7-0.1-1.1-0.1c-0.4,0-0.8,0-1.1,0.1c-0.4,0.1-0.7,0.2-1.1,0.3c-0.8,0.2-1.3,0.5-1.7,0.8l0,0l-0.4-2.6
	c1.4-0.7,3-1.1,4.6-1.1C146.8,96.5,148.4,97.5,149.2,99.4z M146.6,106.4v-1.7v-1.1c-0.2,0-0.5-0.1-0.7-0.1h-0.5
	c-1.8,0-2.9,0.4-3.4,1.2c-0.1,0.2-0.2,0.5-0.2,0.7s0.1,0.5,0.1,0.7c0.1,0.2,0.3,0.4,0.5,0.5c0.4,0.2,1,0.4,1.9,0.4
	C145.1,107,145.9,106.8,146.6,106.4z M160.6,102.3c0.5,0.2,0.9,0.5,1.2,0.9c0.6,0.6,0.9,1.5,0.9,2.5c0,1.1-0.5,2-1.4,2.8
	c-0.9,0.7-2.3,1.1-3.9,1.1c-2,0-3.6-0.3-4.8-1v-3.2c0,0,0.1,0.1,0.2,0.2c0.1,0.1,0.4,0.3,0.7,0.5c0.3,0.2,0.7,0.4,1.2,0.5
	c1,0.3,1.9,0.5,3,0.5c1.4,0,2.1-0.5,2.1-1.4c0-0.3-0.1-0.5-0.4-0.7c-0.5-0.2-1.2-0.4-2.1-0.6c-0.9-0.1-1.7-0.3-2.3-0.6
	c-0.6-0.2-1.1-0.5-1.4-0.9c-0.7-0.6-1-1.5-1-2.5c0-1.2,0.5-2.2,1.4-2.9c1-0.7,2.3-1.1,3.9-1.1c1.7,0,3.1,0.5,4.3,1.4
	c-0.1,0.2-0.1,0.4-0.2,0.6c-0.2,0.5-0.3,0.9-0.4,1.1l-0.3,0.7c0,0.1,0,0.1,0,0.1c0,0-0.1-0.1-0.2-0.3c-0.5-0.6-1.3-1-2.4-1.2
	c-0.3-0.1-0.7-0.1-1-0.1c-1.5,0-2.2,0.4-2.2,1.3c0,0.3,0.1,0.5,0.5,0.7c0.6,0.3,1.4,0.5,2.3,0.7C159.3,101.8,160,102,160.6,102.3z
	 M124.1,96.5c-1.7,0-3.1,0.5-4.2,1.5c-1,1-1.5,2.1-1.5,3.6c0,1.3,0.4,2.3,1.4,3.2c-0.8,0.6-1.2,1.4-1.2,2.3c0,0.5,0.1,1,0.2,1.4
	c0.1,0.4,0.4,0.8,0.7,1.1c-1.4,0.7-2,2-2,3.6c0,1.4,0.7,2.6,1.9,3.4c1.2,0.9,2.8,1.3,4.8,1.3c2,0,3.4-0.4,4.4-1.1
	c1-0.8,1.5-1.9,1.5-3.3c0-1.4-0.4-2.5-1.2-3.3c-0.4-0.4-1-0.7-1.7-1c-0.7-0.3-1.6-0.5-2.8-0.7c-1.2-0.2-2.1-0.4-2.6-0.7
	c-0.2-0.1-0.4-0.2-0.5-0.3c-0.1-0.1-0.1-0.3-0.1-0.5s0.2-0.5,0.4-0.9c0.7,0.2,1.4,0.3,2.2,0.3c1.6,0,3-0.5,4-1.5
	c0.5-0.5,0.8-1,1.1-1.6c0.3-0.6,0.4-1.3,0.4-2c0-0.7-0.2-1.5-0.5-2.1c0,0,0,0,0,0h1.3v-2.5H124.1z M122,110.5l0.6,0.1
	c1.7,0.3,3,0.6,3.7,1.1c0.6,0.4,1,0.9,1,1.6c0,1.4-1,2.1-3,2.1c-1.2,0-2.1-0.2-2.8-0.7c-0.3-0.2-0.6-0.5-0.8-0.8
	c-0.2-0.3-0.3-0.6-0.3-1c0-0.4,0.1-0.8,0.4-1.2C121.1,111.2,121.5,110.8,122,110.5z M125.8,103.1c-0.5,0.4-1.1,0.7-1.7,0.7
	c-0.9,0-1.6-0.2-2.1-0.7c-0.2-0.2-0.4-0.5-0.6-0.7c-0.1-0.3-0.2-0.6-0.2-0.8c0-0.3,0.1-0.6,0.2-0.9c0.4-1,1.2-1.5,2.6-1.5
	c0.8,0,1.4,0.2,1.9,0.6c0.5,0.4,0.7,1,0.7,1.6C126.6,102,126.3,102.6,125.8,103.1z"/>
</svg>
