<?xml version="1.0" encoding="UTF-8"?>
<svg width="105px" height="56px" viewBox="0 0 105 56" version="1.1" xmlns="http://www.w3.org/2000/svg" xmlns:xlink="http://www.w3.org/1999/xlink">
    <title>35850045-303D-4E73-A9B3-3AEBAF4332F7</title>
    <defs>
        <polygon id="path-1" points="0 56 105 56 105 0 0 0"></polygon>
    </defs>
    <g id="DESKTOP" stroke="none" stroke-width="1" fill="none" fill-rule="evenodd">
        <g id="Home" transform="translate(-160.000000, -42.000000)">
            <g id="Logo" transform="translate(160.000000, 42.000000)">
                <path d="M39.9192538,25.5681814 C37.0176495,25.5681814 34.6276154,24.6231555 32.747347,22.7313001 C30.8679808,20.8403465 29.9287488,18.508441 29.9287488,15.7346817 C29.9287488,13.0114199 30.8869278,10.691237 32.8041881,8.77413288 C34.7223506,6.85883224 37.0429123,5.90028018 39.7676775,5.90028018 C42.617854,5.90028018 44.9591672,6.83989566 46.7871057,8.71822486 C48.6168487,10.5965541 49.5317202,12.9221474 49.5317202,15.6968085 L49.5317202,17.5877621 L34.9244524,17.5877621 C35.2258006,18.6464075 35.805941,19.4850279 36.6639714,20.1027213 C37.5210995,20.7213165 38.6191258,21.0297124 39.9571479,21.0297124 C40.9920173,21.0297124 41.9186179,20.7646002 42.737852,20.2352774 C43.5588905,19.7059547 44.1823384,18.9872661 44.6118047,18.0792116 L48.7368466,20.5382629 C47.8797185,22.0766352 46.6995884,23.2993978 45.1982608,24.2065505 C43.6969332,25.114605 41.937565,25.5681814 39.9192538,25.5681814 M39.8055715,10.4387492 C38.7454394,10.4387492 37.8053052,10.7101736 36.9860711,11.2521207 C36.1668371,11.7940678 35.5533138,12.5190686 35.1509147,13.4262214 L44.3086521,13.4262214 C43.6274608,11.4360761 42.1261332,10.4387492 39.8055715,10.4387492" id="Fill-1" fill="#FFFFFF"></path>
                <path d="M18.0733135,20.4615246 C15.4820798,20.4615246 13.3428684,18.3243953 13.3428684,15.7345915 C13.3428684,13.1438859 15.4820798,11.0067566 18.0733135,11.0067566 C20.4642498,11.0067566 22.4708319,12.8264726 22.7658644,15.1421468 C22.7911271,15.3369231 22.8037585,15.5344047 22.8037585,15.7345915 L22.8037585,17.6787479 L27.9131443,17.6787479 L27.9131443,15.7345915 L27.9131443,9.01742295e-05 L22.7658644,9.01742295e-05 L22.7658644,7.09860552 C21.3691967,6.3348298 19.7704271,5.90019001 18.0733135,5.90019001 C12.6616771,5.90019001 8.2343848,10.3250395 8.2343848,15.7345915 C8.2343848,21.14234 12.6616771,25.5680912 18.0733135,25.5680912 L20.0194454,25.5680912 L20.0194454,20.4615246 L18.0733135,20.4615246 Z" id="Fill-3" fill="#FFFFFF"></path>
                <mask id="mask-2" fill="white">
                    <use xlink:href="#path-1"></use>
                </mask>
                <g id="Clip-6"></g>
                <polygon id="Fill-5" fill="#DB9195" mask="url(#mask-2)" points="22.7996082 25.6392387 27.98388 25.6392387 27.98388 20.4569257 22.7996082 20.4569257"></polygon>
                <path d="M84.5854636,5.33263341 C78.1136951,4.53819845 74.2927082,8.39675373 74.2927082,13.9190235 L74.2927082,25.1899005 L79.2884118,25.1899005 L79.2884118,13.9190235 C79.2884118,11.1569869 81.4068716,9.45449744 84.5854636,10.0225951 L84.5854636,5.33263341 Z" id="Fill-7" fill="#FFFFFF" mask="url(#mask-2)"></path>
                <path d="M60.7577528,25.5681814 C58.4868144,25.5681814 56.399933,24.6989018 54.4953041,22.9585392 C52.5888707,21.2190783 51.6379096,18.8105246 51.6379096,15.7346817 C51.6379096,13.6155873 52.1169991,11.7877556 53.0751781,10.250285 C54.0342593,8.7128144 55.1882245,7.60276964 56.5379757,6.9219542 C57.887727,6.24023703 59.319582,5.90028018 60.833541,5.90028018 C63.1793653,5.90028018 65.0596338,6.64421758 66.4716396,8.13209236 L66.4716396,6.27811021 L71.6568136,6.27811021 L71.6568136,25.1903514 L66.4716396,25.1903514 L66.4716396,23.0721587 C65.0596338,24.7358732 63.1541026,25.5681814 60.7577528,25.5681814 M61.7799909,20.8024734 C63.166734,20.8024734 64.3206991,20.3047116 65.2418863,19.3082864 C66.1630735,18.3127629 66.6232159,17.1089369 66.6232159,15.6968085 C66.6232159,14.28468 66.1630735,13.0862645 65.2418863,12.1042672 C64.3206991,11.1195646 63.166734,10.6290168 61.7799909,10.6290168 C60.3409179,10.6290168 59.1373295,11.1078419 58.1656169,12.0645905 C57.1948065,13.0240443 56.7084991,14.2341825 56.7084991,15.6968085 C56.7084991,17.1585327 57.1948065,18.3758848 58.1656169,19.3470613 C59.1373295,20.317336 60.3409179,20.8024734 61.7799909,20.8024734" id="Fill-8" fill="#FFFFFF" mask="url(#mask-2)"></path>
                <path d="M10.1421716,42.4970404 C11.5298169,42.4970404 12.6828798,41.9992786 13.604067,41.0028534 C14.5252541,40.0064281 14.9862988,38.8035039 14.9862988,37.3904737 C14.9862988,35.979247 14.5252541,34.7808315 13.604067,33.7988342 C12.6828798,32.8150333 11.5298169,32.3235838 10.1421716,32.3235838 C8.70400079,32.3235838 7.49951021,32.8015072 6.52779759,33.7600593 C5.55698721,34.7186113 5.07067977,35.9296512 5.07067977,37.3904737 C5.07067977,38.8530997 5.55698721,40.0704518 6.52779759,41.0416283 C7.49951021,42.011903 8.70400079,42.4970404 10.1421716,42.4970404 L10.1421716,42.4970404 Z M96.2582856,38.7151332 C96.2582856,44.0480371 99.2862035,47.4521143 105.00009,46.8470452 L105.00009,42.3085762 C102.540584,42.4600689 101.291883,41.4762681 101.291883,38.7151332 L101.291883,20.4566552 L96.2582856,20.4566552 L96.2582856,38.7151332 Z M22.7996984,46.8849184 L27.9839702,46.8849184 L27.9839702,27.9726772 L22.7996984,27.9726772 L22.7996984,46.8849184 Z M40.2075195,42.4970404 C41.5951649,42.4970404 42.74913,41.9992786 43.6703172,41.0028534 C44.5906021,40.0064281 45.0516468,38.8035039 45.0516468,37.3904737 C45.0516468,35.979247 44.5906021,34.7808315 43.6703172,33.7988342 C42.74913,32.8150333 41.5951649,32.3235838 40.2075195,32.3235838 C38.7693488,32.3235838 37.5648582,32.8015072 36.5940478,33.7600593 C35.6223352,34.7186113 35.1360277,35.9296512 35.1360277,37.3904737 C35.1360277,38.8530997 35.6223352,40.0704518 36.5940478,41.0416283 C37.5648582,42.011903 38.7693488,42.4970404 40.2075195,42.4970404 L40.2075195,42.4970404 Z M39.1861837,47.2627484 C36.9152453,47.2627484 34.8283639,46.3934688 32.9237349,44.6531062 C31.0173015,42.9136453 30.0654382,40.5059934 30.0654382,37.4292487 C30.0654382,35.3101543 30.5454299,33.4823226 31.503609,31.9439503 C32.4626902,30.4064797 33.6166554,29.2964349 34.9664066,28.6165212 C36.3161578,27.934804 37.7471107,27.5948472 39.2619719,27.5948472 C41.5825335,27.5948472 43.4628019,28.4019065 44.9000705,30.0151235 L44.9000705,27.9726772 L50.0852445,27.9726772 L50.0852445,46.3546939 C50.0852445,49.1546037 49.2272141,51.4612605 47.5111534,53.2764677 C45.7959949,55.091675 43.3996451,55.9997295 40.3212018,55.9997295 C38.0250006,55.9997295 36.0130051,55.4830311 34.2852153,54.4496345 C32.5574254,53.4153361 31.2879736,52.1168272 30.4813709,50.553206 L35.0611418,47.9823387 C36.1203717,50.1248784 37.8734243,51.19705 40.3212018,51.19705 C41.6835844,51.19705 42.7879263,50.7434736 43.6324231,49.8354191 C44.4769198,48.9273647 44.9000705,47.8299443 44.9000705,46.5449615 L44.9000705,44.7667257 C43.4871624,46.4304402 41.5825335,47.2627484 39.1861837,47.2627484 L39.1861837,47.2627484 Z M52.5447511,46.8849184 L57.7281207,46.8849184 L57.7281207,27.9726772 L52.5447511,27.9726772 L52.5447511,46.8849184 Z M68.1805726,27.9726772 L71.7381055,27.9726772 L71.7381055,32.6247657 L68.1805726,32.6247657 L68.1805726,38.6384851 C68.1805726,40.1281633 68.3826744,41.0668771 68.7859758,41.4573315 C69.1883749,41.8486876 70.1727188,42.043464 71.7381055,42.043464 L71.7381055,46.8849184 L70.9802238,46.8849184 C67.9775686,46.8849184 65.8970028,46.2861615 64.736722,45.087746 C63.575539,43.8911339 62.9963008,41.7540047 62.9963008,38.67726 L62.9963008,32.6247657 L59.8177088,32.6247657 L59.8177088,27.9726772 L62.9963008,27.9726772 L68.1805726,27.9726772 Z M83.9012047,42.4970404 C85.28885,42.4970404 86.4428152,41.9992786 87.3631001,41.0028534 C88.2842873,40.0064281 88.745332,38.8035039 88.745332,37.3904737 C88.745332,35.979247 88.2842873,34.7808315 87.3631001,33.7988342 C86.4428152,32.8150333 85.28885,32.3235838 83.9012047,32.3235838 C82.4630339,32.3235838 81.2585434,32.8015072 80.2868307,33.7600593 C79.3160203,34.7186113 78.8297129,35.9296512 78.8297129,37.3904737 C78.8297129,38.8530997 79.3160203,40.0704518 80.2868307,41.0416283 C81.2585434,42.011903 82.4630339,42.4970404 83.9012047,42.4970404 L83.9012047,42.4970404 Z M82.8789666,47.2627484 C80.6089305,47.2627484 78.5211468,46.3934688 76.6165179,44.6531062 C74.7109867,42.9136453 73.7591234,40.5059934 73.7591234,37.4292487 C73.7591234,35.3101543 74.2382129,33.4823226 75.1972941,31.9439503 C76.1563754,30.4064797 77.3103405,29.2964349 78.6600918,28.6165212 C80.009843,27.934804 81.4416981,27.5948472 82.9565593,27.5948472 C85.3005792,27.5948472 87.1817498,28.3387846 88.5937556,29.8266594 L88.5937556,27.9726772 L93.7789297,27.9726772 L93.7789297,46.8849184 L88.5937556,46.8849184 L88.5937556,44.7667257 C87.1817498,46.4304402 85.2762187,47.2627484 82.8789666,47.2627484 L82.8789666,47.2627484 Z M9.11993349,47.2627484 C6.84899508,47.2627484 4.76211365,46.3934688 2.85658249,44.6531062 C0.951953565,42.9136453 9.02240134e-05,40.5059934 9.02240134e-05,37.4292487 C9.02240134e-05,35.3101543 0.479179735,33.4823226 1.43735876,31.9439503 C2.39644002,30.4064797 3.55130739,29.2964349 4.90105863,28.6165212 C6.25080987,27.934804 7.68176272,27.5948472 9.1966239,27.5948472 C11.5424483,27.5948472 13.4218144,28.3387846 14.8347225,29.8266594 L14.8347225,20.9003124 L20.0198965,20.9003124 L20.0198965,46.8849184 L14.8347225,46.8849184 L14.8347225,44.7667257 C13.4218144,46.4304402 11.5171855,47.2627484 9.11993349,47.2627484 L9.11993349,47.2627484 Z" id="Fill-9" fill="#FFFFFF" mask="url(#mask-2)"></path>
            </g>
        </g>
    </g>
</svg>