<svg xmlns="http://www.w3.org/2000/svg" width="19" height="24" viewBox="0 0 19 24"><defs><style>.a{fill:#202248;}</style></defs><path class="a" d="M0,1H1V0H0Z" transform="translate(2 21)"/><path class="a" d="M0,1H1V0H0Z" transform="translate(16 21)"/><path class="a" d="M0,1H1V0H0Z" transform="translate(17 20)"/><path class="a" d="M0,1H1V0H0Z" transform="translate(17 18.999)"/><path class="a" d="M0,1H1V0H0Z" transform="translate(17 18)"/><path class="a" d="M0,1H1V0H0Z" transform="translate(17 17)"/><path class="a" d="M0,1H1V0H0Z" transform="translate(17 16)"/><path class="a" d="M0,1H1V0H0Z" transform="translate(17 15)"/><path class="a" d="M0,1H1V0H0Z" transform="translate(17 14)"/><path class="a" d="M0,1H1V0H0Z" transform="translate(17 13)"/><path class="a" d="M0,1H1V0H0Z" transform="translate(17 12)"/><path class="a" d="M0,1H1V0H0Z" transform="translate(17 11)"/><path class="a" d="M0,1H1V0H0Z" transform="translate(17 9.999)"/><path class="a" d="M0,1H1V0H0Z" transform="translate(1 20)"/><path class="a" d="M0,1H1V0H0Z" transform="translate(1 18.999)"/><path class="a" d="M0,1H1V0H0Z" transform="translate(1 18)"/><path class="a" d="M0,1H1V0H0Z" transform="translate(1 17)"/><path class="a" d="M0,1H1V0H0Z" transform="translate(1 16)"/><path class="a" d="M0,1H1V0H0Z" transform="translate(1 15)"/><path class="a" d="M0,1H1V0H0Z" transform="translate(1 14)"/><path class="a" d="M0,1H1V0H0Z" transform="translate(1 13)"/><path class="a" d="M0,1H1V0H0Z" transform="translate(1 12)"/><path class="a" d="M0,1H1V0H0Z" transform="translate(1 11)"/><path class="a" d="M0,1H1V0H0Z" transform="translate(1 9.999)"/><path class="a" d="M0,1H1V0H0Z" transform="translate(17 9)"/><path class="a" d="M0,1H1V0H0Z" transform="translate(17 8)"/><path class="a" d="M0,1H1V0H0Z" transform="translate(1 9)"/><path class="a" d="M0,1H1V0H0Z" transform="translate(1 8)"/><path class="a" d="M0,1H1V0H0Z" transform="translate(1 7)"/><path class="a" d="M0,1H1V0H0Z" transform="translate(0 20)"/><path class="a" d="M0,1H1V0H0Z" transform="translate(0 21)"/><path class="a" d="M0,1H1V0H0Z" transform="translate(0 18.999)"/><path class="a" d="M0,1H1V0H0Z" transform="translate(0 18)"/><path class="a" d="M0,1H1V0H0Z" transform="translate(0 17)"/><path class="a" d="M0,1H1V0H0Z" transform="translate(0 16)"/><path class="a" d="M0,1H1V0H0Z" transform="translate(0 15)"/><path class="a" d="M0,1H1V0H0Z" transform="translate(0 14)"/><path class="a" d="M0,1H1V0H0Z" transform="translate(0 13)"/><path class="a" d="M0,1H1V0H0Z" transform="translate(0 12)"/><path class="a" d="M0,1H1V0H0Z" transform="translate(0 11)"/><path class="a" d="M0,1H1V0H0Z" transform="translate(0 9.999)"/><path class="a" d="M0,1H1V0H0Z" transform="translate(0 9)"/><path class="a" d="M0,1H1V0H0Z" transform="translate(0 8)"/><path class="a" d="M0,1H1V0H0Z" transform="translate(0 7)"/><path class="a" d="M0,1H1V0H0Z" transform="translate(2 7)"/><path class="a" d="M0,1H1V0H0Z" transform="translate(3 7)"/><path class="a" d="M0,1H1V0H0Z" transform="translate(4 7)"/><path class="a" d="M0,1H1V0H0Z" transform="translate(4 5)"/><path class="a" d="M0,1H1V0H0Z" transform="translate(4 4)"/><path class="a" d="M0,1H1V0H0Z" transform="translate(4 3)"/><path class="a" d="M0,1H1V0H0Z" transform="translate(4 2)"/><path class="a" d="M0,1H1V0H0Z" transform="translate(14 5)"/><path class="a" d="M0,1H1V0H0Z" transform="translate(4 6)"/><path class="a" d="M0,1H1V0H0Z" transform="translate(14 6)"/><path class="a" d="M0,1H1V0H0Z" transform="translate(14 4)"/><path class="a" d="M0,1H1V0H0Z" transform="translate(14 3)"/><path class="a" d="M0,1H1V0H0Z" transform="translate(14 2)"/><path class="a" d="M0,1H1V0H0Z" transform="translate(5 0.999)"/><path class="a" d="M0,1H1V0H0Z" transform="translate(6)"/><path class="a" d="M0,1H1V0H0Z" transform="translate(7)"/><path class="a" d="M0,1H1V0H0Z" transform="translate(8)"/><path class="a" d="M0,1H1V0H0Z" transform="translate(9)"/><path class="a" d="M0,1H1V0H0Z" transform="translate(10)"/><path class="a" d="M0,1H1V0H0Z" transform="translate(11)"/><path class="a" d="M0,1H1V0H0Z" transform="translate(12)"/><path class="a" d="M0,1H1V0H0Z" transform="translate(13 0.999)"/><path class="a" d="M0,1H1V0H0Z" transform="translate(5 7)"/><path class="a" d="M0,1H1V0H0Z" transform="translate(6 7)"/><path class="a" d="M0,1H1V0H0Z" transform="translate(7 7)"/><path class="a" d="M0,1H1V0H0Z" transform="translate(8 7)"/><path class="a" d="M0,1H1V0H0Z" transform="translate(9 7)"/><path class="a" d="M0,1H1V0H0Z" transform="translate(10 7)"/><path class="a" d="M0,1H1V0H0Z" transform="translate(11 7)"/><path class="a" d="M0,1H1V0H0Z" transform="translate(12 7)"/><path class="a" d="M0,1H1V0H0Z" transform="translate(13 7)"/><path class="a" d="M0,1H1V0H0Z" transform="translate(14 7)"/><path class="a" d="M0,1H1V0H0Z" transform="translate(15 7)"/><path class="a" d="M0,1H1V0H0Z" transform="translate(16 7)"/><path class="a" d="M0,1H1V0H0Z" transform="translate(2 8)"/><path class="a" d="M0,1H1V0H0Z" transform="translate(3 8)"/><path class="a" d="M0,1H1V0H0Z" transform="translate(4 8)"/><path class="a" d="M0,1H1V0H0Z" transform="translate(5 8)"/><path class="a" d="M0,1H1V0H0Z" transform="translate(6 8)"/><path class="a" d="M0,1H1V0H0Z" transform="translate(7 8)"/><path class="a" d="M0,1H1V0H0Z" transform="translate(8 8)"/><path class="a" d="M0,1H1V0H0Z" transform="translate(9 8)"/><path class="a" d="M0,1H1V0H0Z" transform="translate(10 8)"/><path class="a" d="M0,1H1V0H0Z" transform="translate(11 8)"/><path class="a" d="M0,1H1V0H0Z" transform="translate(12 8)"/><path class="a" d="M0,1H1V0H0Z" transform="translate(13 8)"/><path class="a" d="M0,1H1V0H0Z" transform="translate(14 8)"/><path class="a" d="M0,1H1V0H0Z" transform="translate(15 8)"/><path class="a" d="M0,1H1V0H0Z" transform="translate(16 8)"/><path class="a" d="M0,1H1V0H0Z" transform="translate(2 9)"/><path class="a" d="M0,1H1V0H0Z" transform="translate(3 9)"/><path class="a" d="M0,1H1V0H0Z" transform="translate(4 9)"/><path class="a" d="M0,1H1V0H0Z" transform="translate(5 9)"/><path class="a" d="M0,1H1V0H0Z" transform="translate(6 9)"/><path class="a" d="M0,1H1V0H0Z" transform="translate(7 9)"/><path class="a" d="M0,1H1V0H0Z" transform="translate(8 9)"/><path class="a" d="M0,1H1V0H0Z" transform="translate(9 9)"/><path class="a" d="M0,1H1V0H0Z" transform="translate(10 9)"/><path class="a" d="M0,1H1V0H0Z" transform="translate(11 9)"/><path class="a" d="M0,1H1V0H0Z" transform="translate(12 9)"/><path class="a" d="M0,1H1V0H0Z" transform="translate(13 9)"/><path class="a" d="M0,1H1V0H0Z" transform="translate(14 9)"/><path class="a" d="M0,1H1V0H0Z" transform="translate(15 9)"/><path class="a" d="M0,1H1V0H0Z" transform="translate(16 9)"/><path class="a" d="M0,1H1V0H0Z" transform="translate(2 9.999)"/><path class="a" d="M0,1H1V0H0Z" transform="translate(3 9.999)"/><path class="a" d="M0,1H1V0H0Z" transform="translate(4 9.999)"/><path class="a" d="M0,1H1V0H0Z" transform="translate(5 9.999)"/><path class="a" d="M0,1H1V0H0Z" transform="translate(6 9.999)"/><path class="a" d="M0,1H1V0H0Z" transform="translate(7 9.999)"/><path class="a" d="M0,1H1V0H0Z" transform="translate(8 9.999)"/><path class="a" d="M0,1H1V0H0Z" transform="translate(9 9.999)"/><path class="a" d="M0,1H1V0H0Z" transform="translate(10 9.999)"/><path class="a" d="M0,1H1V0H0Z" transform="translate(11 9.999)"/><path class="a" d="M0,1H1V0H0Z" transform="translate(12 9.999)"/><path class="a" d="M0,1H1V0H0Z" transform="translate(13 9.999)"/><path class="a" d="M0,1H1V0H0Z" transform="translate(14 9.999)"/><path class="a" d="M0,1H1V0H0Z" transform="translate(15 9.999)"/><path class="a" d="M0,1H1V0H0Z" transform="translate(16 9.999)"/><path class="a" d="M0,1H1V0H0Z" transform="translate(2 11)"/><path class="a" d="M0,1H1V0H0Z" transform="translate(3 11)"/><path class="a" d="M0,1H1V0H0Z" transform="translate(4 11)"/><path class="a" d="M0,1H1V0H0Z" transform="translate(5 11)"/><path class="a" d="M0,1H1V0H0Z" transform="translate(6 11)"/><path class="a" d="M0,1H1V0H0Z" transform="translate(7 11)"/><path class="a" d="M0,1H1V0H0Z" transform="translate(8 11)"/><path class="a" d="M0,1H1V0H0Z" transform="translate(9 11)"/><path class="a" d="M0,1H1V0H0Z" transform="translate(10 11)"/><path class="a" d="M0,1H1V0H0Z" transform="translate(11 11)"/><path class="a" d="M0,1H1V0H0Z" transform="translate(12 11)"/><path class="a" d="M0,1H1V0H0Z" transform="translate(13 11)"/><path class="a" d="M0,1H1V0H0Z" transform="translate(14 11)"/><path class="a" d="M0,1H1V0H0Z" transform="translate(15 11)"/><path class="a" d="M0,1H1V0H0Z" transform="translate(16 11)"/><path class="a" d="M0,1H1V0H0Z" transform="translate(2 12)"/><path class="a" d="M0,1H1V0H0Z" transform="translate(3 12)"/><path class="a" d="M0,1H1V0H0Z" transform="translate(4 12)"/><path class="a" d="M0,1H1V0H0Z" transform="translate(5 12)"/><path class="a" d="M0,1H1V0H0Z" transform="translate(6 12)"/><path class="a" d="M0,1H1V0H0Z" transform="translate(7 12)"/><path class="a" d="M0,1H1V0H0Z" transform="translate(8 12)"/><path class="a" d="M0,1H1V0H0Z" transform="translate(9 12)"/><path class="a" d="M0,1H1V0H0Z" transform="translate(10 12)"/><path class="a" d="M0,1H1V0H0Z" transform="translate(11 12)"/><path class="a" d="M0,1H1V0H0Z" transform="translate(12 12)"/><path class="a" d="M0,1H1V0H0Z" transform="translate(13 12)"/><path class="a" d="M0,1H1V0H0Z" transform="translate(14 12)"/><path class="a" d="M0,1H1V0H0Z" transform="translate(15 12)"/><path class="a" d="M0,1H1V0H0Z" transform="translate(16 12)"/><path class="a" d="M0,1H1V0H0Z" transform="translate(2 13)"/><path class="a" d="M0,1H1V0H0Z" transform="translate(3 13)"/><path class="a" d="M0,1H1V0H0Z" transform="translate(4 13)"/><path class="a" d="M0,1H1V0H0Z" transform="translate(5 13)"/><path class="a" d="M0,1H1V0H0Z" transform="translate(6 13)"/><path class="a" d="M0,1H1V0H0Z" transform="translate(7 13)"/><path class="a" d="M0,1H1V0H0Z" transform="translate(8 13)"/><path class="a" d="M0,1H1V0H0Z" transform="translate(9 13)"/><path class="a" d="M0,1H1V0H0Z" transform="translate(10 13)"/><path class="a" d="M0,1H1V0H0Z" transform="translate(11 13)"/><path class="a" d="M0,1H1V0H0Z" transform="translate(12 13)"/><path class="a" d="M0,1H1V0H0Z" transform="translate(13 13)"/><path class="a" d="M0,1H1V0H0Z" transform="translate(14 13)"/><path class="a" d="M0,1H1V0H0Z" transform="translate(15 13)"/><path class="a" d="M0,1H1V0H0Z" transform="translate(16 13)"/><path class="a" d="M0,1H1V0H0Z" transform="translate(2 14)"/><path class="a" d="M0,1H1V0H0Z" transform="translate(3 14)"/><path class="a" d="M0,1H1V0H0Z" transform="translate(4 14)"/><path class="a" d="M0,1H1V0H0Z" transform="translate(5 14)"/><path class="a" d="M0,1H1V0H0Z" transform="translate(6 14)"/><path class="a" d="M0,1H1V0H0Z" transform="translate(7 14)"/><path class="a" d="M0,1H1V0H0Z" transform="translate(8 14)"/><path class="a" d="M0,1H1V0H0Z" transform="translate(9 14)"/><path class="a" d="M0,1H1V0H0Z" transform="translate(10 14)"/><path class="a" d="M0,1H1V0H0Z" transform="translate(11 14)"/><path class="a" d="M0,1H1V0H0Z" transform="translate(12 14)"/><path class="a" d="M0,1H1V0H0Z" transform="translate(13 14)"/><path class="a" d="M0,1H1V0H0Z" transform="translate(14 14)"/><path class="a" d="M0,1H1V0H0Z" transform="translate(15 14)"/><path class="a" d="M0,1H1V0H0Z" transform="translate(16 14)"/><path class="a" d="M0,1H1V0H0Z" transform="translate(2 15)"/><path class="a" d="M0,1H1V0H0Z" transform="translate(3 15)"/><path class="a" d="M0,1H1V0H0Z" transform="translate(4 15)"/><path class="a" d="M0,1H1V0H0Z" transform="translate(5 15)"/><path class="a" d="M0,1H1V0H0Z" transform="translate(6 15)"/><path class="a" d="M0,1H1V0H0Z" transform="translate(7 15)"/><path class="a" d="M0,1H1V0H0Z" transform="translate(8 15)"/><path class="a" d="M0,1H1V0H0Z" transform="translate(9 15)"/><path class="a" d="M0,1H1V0H0Z" transform="translate(10 15)"/><path class="a" d="M0,1H1V0H0Z" transform="translate(11 15)"/><path class="a" d="M0,1H1V0H0Z" transform="translate(12 15)"/><path class="a" d="M0,1H1V0H0Z" transform="translate(13 15)"/><path class="a" d="M0,1H1V0H0Z" transform="translate(14 15)"/><path class="a" d="M0,1H1V0H0Z" transform="translate(15 15)"/><path class="a" d="M0,1H1V0H0Z" transform="translate(16 15)"/><path class="a" d="M0,1H1V0H0Z" transform="translate(2 16)"/><path class="a" d="M0,1H1V0H0Z" transform="translate(3 16)"/><path class="a" d="M0,1H1V0H0Z" transform="translate(4 16)"/><path class="a" d="M0,1H1V0H0Z" transform="translate(5 16)"/><path class="a" d="M0,1H1V0H0Z" transform="translate(6 16)"/><path class="a" d="M0,1H1V0H0Z" transform="translate(7 16)"/><path class="a" d="M0,1H1V0H0Z" transform="translate(8 16)"/><path class="a" d="M0,1H1V0H0Z" transform="translate(9 16)"/><path class="a" d="M0,1H1V0H0Z" transform="translate(10 16)"/><path class="a" d="M0,1H1V0H0Z" transform="translate(11 16)"/><path class="a" d="M0,1H1V0H0Z" transform="translate(12 16)"/><path class="a" d="M0,1H1V0H0Z" transform="translate(13 16)"/><path class="a" d="M0,1H1V0H0Z" transform="translate(14 16)"/><path class="a" d="M0,1H1V0H0Z" transform="translate(15 16)"/><path class="a" d="M0,1H1V0H0Z" transform="translate(16 16)"/><path class="a" d="M0,1H1V0H0Z" transform="translate(2 17)"/><path class="a" d="M0,1H1V0H0Z" transform="translate(3 17)"/><path class="a" d="M0,1H1V0H0Z" transform="translate(4 17)"/><path class="a" d="M0,1H1V0H0Z" transform="translate(5 17)"/><path class="a" d="M0,1H1V0H0Z" transform="translate(6 17)"/><path class="a" d="M0,1H1V0H0Z" transform="translate(7 17)"/><path class="a" d="M0,1H1V0H0Z" transform="translate(8 17)"/><path class="a" d="M0,1H1V0H0Z" transform="translate(9 17)"/><path class="a" d="M0,1H1V0H0Z" transform="translate(10 17)"/><path class="a" d="M0,1H1V0H0Z" transform="translate(11 17)"/><path class="a" d="M0,1H1V0H0Z" transform="translate(12 17)"/><path class="a" d="M0,1H1V0H0Z" transform="translate(13 17)"/><path class="a" d="M0,1H1V0H0Z" transform="translate(14 17)"/><path class="a" d="M0,1H1V0H0Z" transform="translate(15 17)"/><path class="a" d="M0,1H1V0H0Z" transform="translate(16 17)"/><path class="a" d="M0,1H1V0H0Z" transform="translate(2 18)"/><path class="a" d="M0,1H1V0H0Z" transform="translate(3 18)"/><path class="a" d="M0,1H1V0H0Z" transform="translate(4 18)"/><path class="a" d="M0,1H1V0H0Z" transform="translate(5 18)"/><path class="a" d="M0,1H1V0H0Z" transform="translate(6 18)"/><path class="a" d="M0,1H1V0H0Z" transform="translate(7 18)"/><path class="a" d="M0,1H1V0H0Z" transform="translate(8 18)"/><path class="a" d="M0,1H1V0H0Z" transform="translate(9 18)"/><path class="a" d="M0,1H1V0H0Z" transform="translate(10 18)"/><path class="a" d="M0,1H1V0H0Z" transform="translate(11 18)"/><path class="a" d="M0,1H1V0H0Z" transform="translate(12 18)"/><path class="a" d="M0,1H1V0H0Z" transform="translate(13 18)"/><path class="a" d="M0,1H1V0H0Z" transform="translate(14 18)"/><path class="a" d="M0,1H1V0H0Z" transform="translate(15 18)"/><path class="a" d="M0,1H1V0H0Z" transform="translate(16 18)"/><path class="a" d="M0,1H1V0H0Z" transform="translate(2 18.999)"/><path class="a" d="M0,1H1V0H0Z" transform="translate(3 18.999)"/><path class="a" d="M0,1H1V0H0Z" transform="translate(4 18.999)"/><path class="a" d="M0,1H1V0H0Z" transform="translate(5 18.999)"/><path class="a" d="M0,1H1V0H0Z" transform="translate(6 18.999)"/><path class="a" d="M0,1H1V0H0Z" transform="translate(7 18.999)"/><path class="a" d="M0,1H1V0H0Z" transform="translate(8 18.999)"/><path class="a" d="M0,1H1V0H0Z" transform="translate(9 18.999)"/><path class="a" d="M0,1H1V0H0Z" transform="translate(10 18.999)"/><path class="a" d="M0,1H1V0H0Z" transform="translate(11 18.999)"/><path class="a" d="M0,1H1V0H0Z" transform="translate(12 18.999)"/><path class="a" d="M0,1H1V0H0Z" transform="translate(13 18.999)"/><path class="a" d="M0,1H1V0H0Z" transform="translate(14 18.999)"/><path class="a" d="M0,1H1V0H0Z" transform="translate(15 18.999)"/><path class="a" d="M0,1H1V0H0Z" transform="translate(16 18.999)"/><path class="a" d="M0,1H1V0H0Z" transform="translate(2 20)"/><path class="a" d="M0,1H1V0H0Z" transform="translate(3 20)"/><path class="a" d="M0,1H1V0H0Z" transform="translate(4 20)"/><path class="a" d="M0,1H1V0H0Z" transform="translate(5 20)"/><path class="a" d="M0,1H1V0H0Z" transform="translate(6 20)"/><path class="a" d="M0,1H1V0H0Z" transform="translate(7 20)"/><path class="a" d="M0,1H1V0H0Z" transform="translate(8 20)"/><path class="a" d="M0,1H1V0H0Z" transform="translate(9 20)"/><path class="a" d="M0,1H1V0H0Z" transform="translate(10 20)"/><path class="a" d="M0,1H1V0H0Z" transform="translate(11 20)"/><path class="a" d="M0,1H1V0H0Z" transform="translate(12 20)"/><path class="a" d="M0,1H1V0H0Z" transform="translate(13 20)"/><path class="a" d="M0,1H1V0H0Z" transform="translate(14 20)"/><path class="a" d="M0,1H1V0H0Z" transform="translate(15 20)"/><path class="a" d="M0,1H1V0H0Z" transform="translate(3 21)"/><path class="a" d="M0,1H1V0H0Z" transform="translate(4 21)"/><path class="a" d="M0,1H1V0H0Z" transform="translate(5 21)"/><path class="a" d="M0,1H1V0H0Z" transform="translate(6 21)"/><path class="a" d="M0,1H1V0H0Z" transform="translate(7 21)"/><path class="a" d="M0,1H1V0H0Z" transform="translate(8 21)"/><path class="a" d="M0,1H1V0H0Z" transform="translate(9 21)"/><path class="a" d="M0,1H1V0H0Z" transform="translate(10 21)"/><path class="a" d="M0,1H1V0H0Z" transform="translate(11 21)"/><path class="a" d="M0,1H1V0H0Z" transform="translate(12 21)"/><path class="a" d="M0,1H1V0H0Z" transform="translate(13 21)"/><path class="a" d="M0,1H1V0H0Z" transform="translate(14 21)"/><path class="a" d="M0,1H1V0H0Z" transform="translate(15 21)"/><path class="a" d="M0,1H1V0H0Z" transform="translate(16 20)"/><path class="a" d="M0,1H1V0H0Z" transform="translate(2 6)"/><path class="a" d="M0,1H1V0H0Z" transform="translate(3 6)"/><path class="a" d="M0,1H1V0H0Z" transform="translate(4 6)"/><path class="a" d="M0,1H1V0H0Z" transform="translate(5 6)"/><path class="a" d="M0,1H1V0H0Z" transform="translate(6 6)"/><path class="a" d="M0,1H1V0H0Z" transform="translate(7 6)"/><path class="a" d="M0,1H1V0H0Z" transform="translate(8 6)"/><path class="a" d="M0,1H1V0H0Z" transform="translate(9 6)"/><path class="a" d="M0,1H1V0H0Z" transform="translate(10 6)"/><path class="a" d="M0,1H1V0H0Z" transform="translate(11 6)"/><path class="a" d="M0,1H1V0H0Z" transform="translate(12 6)"/><path class="a" d="M0,1H1V0H0Z" transform="translate(13 6)"/><path class="a" d="M0,1H1V0H0Z" transform="translate(14 6)"/><path class="a" d="M0,1H1V0H0Z" transform="translate(15 6)"/><path class="a" d="M0,1H1V0H0Z" transform="translate(16 6)"/><path class="a" d="M0,1H1V0H0Z" transform="translate(17 7)"/><path class="a" d="M0,1H1V0H0Z" transform="translate(17 6)"/><path class="a" d="M0,1H1V0H0Z" transform="translate(18 20)"/><path class="a" d="M0,1H1V0H0Z" transform="translate(18 21)"/><path class="a" d="M0,1H1V0H0Z" transform="translate(18 18.999)"/><path class="a" d="M0,1H1V0H0Z" transform="translate(18 18)"/><path class="a" d="M0,1H1V0H0Z" transform="translate(18 17)"/><path class="a" d="M0,1H1V0H0Z" transform="translate(18 16)"/><path class="a" d="M0,1H1V0H0Z" transform="translate(18 15)"/><path class="a" d="M0,1H1V0H0Z" transform="translate(18 14)"/><path class="a" d="M0,1H1V0H0Z" transform="translate(18 13)"/><path class="a" d="M0,1H1V0H0Z" transform="translate(18 12)"/><path class="a" d="M0,1H1V0H0Z" transform="translate(18 11)"/><path class="a" d="M0,1H1V0H0Z" transform="translate(18 9.999)"/><path class="a" d="M0,1H1V0H0Z" transform="translate(18 9)"/><path class="a" d="M0,1H1V0H0Z" transform="translate(18 8)"/><path class="a" d="M0,1H1V0H0Z" transform="translate(18 7)"/><path class="a" d="M0,1H1V0H0Z" transform="translate(1 6)"/><path class="a" d="M0,1H1V0H0Z" transform="translate(0 6)"/><path class="a" d="M0,1H1V0H0Z" transform="translate(18 6)"/><path class="a" d="M0,1H1V0H0Z" transform="translate(3 22)"/><path class="a" d="M0,1H1V0H0Z" transform="translate(3 23)"/><path class="a" d="M0,1H1V0H0Z" transform="translate(1 21)"/><path class="a" d="M0,1H1V0H0Z" transform="translate(2 22)"/><path class="a" d="M0,1H1V0H0Z" transform="translate(2 23)"/><path class="a" d="M0,1H1V0H0Z" transform="translate(1 22)"/><path class="a" d="M0,1H1V0H0Z" transform="translate(15 22)"/><path class="a" d="M0,1H1V0H0Z" transform="translate(15 23)"/><path class="a" d="M0,1H1V0H0Z" transform="translate(17 21)"/><path class="a" d="M0,1H1V0H0Z" transform="translate(16 22)"/><path class="a" d="M0,1H1V0H0Z" transform="translate(16 23)"/><path class="a" d="M0,1H1V0H0Z" transform="translate(17 22)"/><path class="a" d="M0,1H1V0H0Z" transform="translate(4 23)"/><path class="a" d="M0,1H1V0H0Z" transform="translate(5 23)"/><path class="a" d="M0,1H1V0H0Z" transform="translate(6 23)"/><path class="a" d="M0,1H1V0H0Z" transform="translate(7 23)"/><path class="a" d="M0,1H1V0H0Z" transform="translate(8 23)"/><path class="a" d="M0,1H1V0H0Z" transform="translate(9 23)"/><path class="a" d="M0,1H1V0H0Z" transform="translate(10 23)"/><path class="a" d="M0,1H1V0H0Z" transform="translate(11 23)"/><path class="a" d="M0,1H1V0H0Z" transform="translate(12 23)"/><path class="a" d="M0,1H1V0H0Z" transform="translate(13 23)"/><path class="a" d="M0,1H1V0H0Z" transform="translate(14 23)"/><path class="a" d="M0,1H1V0H0Z" transform="translate(4 22)"/><path class="a" d="M0,1H1V0H0Z" transform="translate(5 22)"/><path class="a" d="M0,1H1V0H0Z" transform="translate(6 22)"/><path class="a" d="M0,1H1V0H0Z" transform="translate(7 22)"/><path class="a" d="M0,1H1V0H0Z" transform="translate(8 22)"/><path class="a" d="M0,1H1V0H0Z" transform="translate(9 22)"/><path class="a" d="M0,1H1V0H0Z" transform="translate(10 22)"/><path class="a" d="M0,1H1V0H0Z" transform="translate(11 22)"/><path class="a" d="M0,1H1V0H0Z" transform="translate(12 22)"/><path class="a" d="M0,1H1V0H0Z" transform="translate(13 22)"/><path class="a" d="M0,1H1V0H0Z" transform="translate(14 22)"/></svg>