<?xml version="1.0" encoding="utf-8"?>
<!-- Generator: Adobe Illustrator 25.4.1, SVG Export Plug-In . SVG Version: 6.00 Build 0)  -->
<svg version="1.1" id="Layer_1" xmlns="http://www.w3.org/2000/svg" xmlns:xlink="http://www.w3.org/1999/xlink" x="0px" y="0px"
	 width="42px" height="86px" viewBox="0 0 42 86" style="enable-background:new 0 0 42 86;" xml:space="preserve">
<style type="text/css">
	.st0{fill:#FFCA6C;}
	.st1{fill:#202248;}
	.st2{fill:#FBB03B;}
	.st3{fill:#FFFFFF;}
	.st4{fill:#DB9195;}
</style>
<path class="st0" d="M32,76.2l0,2l-4,0l0-2l-2,0l0,2l2,0l0,5.9l-2,0l0-2l-2,0l0-2l-2,0l0,2l-4,0l0-2l-2,0l0,2l-4,0l0-2l-2,0l0-2l2,0
	l0-2l2,0l0-3.9l-4,0l0-2l2,0l0-2l2,0l0-2l2,0l0-2l2,0l0,2l2,0l0,2l2,0l0-2l2,0l0-2l2,0l0,2l2,0l0,2l2,0l0,3.9l2,0
	C32,72.3,32,76.2,32,76.2z"/>
<path class="st1" d="M28,58.7l-6,0l0,2l-2,0l0-2l-8,0l0,3.9l18,0l0-3.9L28,58.7z M16,27.4l2,0l0,2l6,0l0-2l2,0l0-2l2,0l0-5.9l-2,0
	l0-2l-2,0l0-2l-6,0l0,2l-2,0l0,2l-2,0l0,5.9l2,0L16,27.4z"/>
<path class="st2" d="M32,72.4l0,5.9l2,0l0-5.9L32,72.4z M30,68.4l0,3.9l2,0l0-3.9L30,68.4z"/>
<path class="st2" d="M28,78.2l0,5.9l2,0l0-3.9l2,0l0-2C32,78.2,28,78.2,28,78.2z M28,68.4l2,0l0-2l-2,0L28,68.4z M26,86l2,0l0-2
	l-2,0L26,86z M26,78.2l2,0l0-2l-2,0L26,78.2z"/>
<path class="st2" d="M24,84.1l2,0l0-2l-2,0L24,84.1z"/>
<path class="st2" d="M22,82.1l2,0l0-2l-2,0L22,82.1z M20,82.1l-2,0l0,2l4,0l0-2L20,82.1z M16,82.1l2,0l0-2l-2,0L16,82.1z M26,62.6
	l-12,0l0,3.9l2,0l0-2l2,0l0,2l2,0l0,2l2,0l0-2l2,0l0-2l2,0l0,2l2,0l0-3.9L26,62.6z"/>
<path class="st2" d="M14,82.1l-2,0l0,2l4,0l0-2H14z M14,74.3l0-2l-4,0l0,2l2,0l0,2l2,0L14,74.3z M12,68.4l2,0l0-2l-2,0L12,68.4z
	 M10,82.1l2,0l0-2l-2,0L10,82.1z"/>
<path class="st2" d="M10,78.2l2,0l0-2l-2,0L10,78.2z M10,70.4l2,0l0-2l-2,0L10,70.4z M8,80.2l2,0l0-2l-2,0L8,80.2z M8,72.3l2,0l0-2
	l-2,0L8,72.3z"/>
<path class="st3" d="M22,60.6l-2,0l0-2l-8,0l0-2l-2,0l0-2l-2,0l0-3.9l-2,0L6,43l-2,0l0-15.6l2,0l0-7.8l2,0l0-3.9l2,0l0-3.9l2,0l0-2
	l18,0l0,2l2,0l0,3.9l2,0l0,3.9l2,0l0,7.8l2,0L38,43l-2,0l0,7.8l-2,0l0,3.9l-2,0l0,2l-2,0l0,2l-8,0L22,60.6L22,60.6z M12,19.6l0,5.9
	l2,0l0,2l2,0l0,2l2,0l0,2l6,0l0-2l2,0l0-2l2,0l0-2l2,0l0-5.9l-2,0l0-2l-2,0l0-2l-2,0l0-2l-6,0l0,2l-2,0l0,2l-2,0l0,2L12,19.6z"/>
<path class="st4" d="M36,45l0,5.9l-2,0l0,3.9l-2,0l0,2l-2,0l0,3.9l4,0l0,2l4,0l0-2l2,0l0-3.9l2,0l0-7.8l-2,0l0-2l-2,0l0-2L36,45z
	 M28,19.6l0,5.9l2,0l0-5.9L28,19.6z M26,27.4l2,0l0-2l-2,0L26,27.4z M26,19.6l2,0l0-2l-2,0L26,19.6z M24,29.3l2,0l0-2l-2,0L24,29.3z
	 M24,17.6l2,0l0-2l-2,0L24,17.6z M20,0l0,2l-2,0l0,2l-2,0l0,2l-2,0l0,3.9l14,0l0-3.9l-2,0l0-2l-2,0l0-2l-2,0l0-2L20,0z M22,29.3
	l-4,0l0,2l6,0l0-2L22,29.3z M22,13.7l-4,0l0,2l6,0l0-2L22,13.7z M16,29.3l2,0l0-2l-2,0L16,29.3z M16,17.6l2,0l0-2l-2,0L16,17.6z
	 M14,27.4l2,0l0-2l-2,0L14,27.4z"/>
<path class="st4" d="M14,19.6l2,0l0-2l-2,0L14,19.6z"/>
<path class="st4" d="M12,19.5l0,5.9l2,0l0-5.9L12,19.5z M4,45l0,2l-2,0l0,2l-2,0l0,7.8l2,0l0,3.9l2,0l0,2l4,0l0-2l4,0l0-3.9l-2,0
	l0-2l-2,0l0-3.9l-2,0L6,45L4,45z"/>
</svg>
