<?xml version="1.0" encoding="utf-8"?>
<!-- Generator: Adobe Illustrator 25.4.1, SVG Export Plug-In . SVG Version: 6.00 Build 0)  -->
<svg version="1.1" id="Layer_1" xmlns="http://www.w3.org/2000/svg" xmlns:xlink="http://www.w3.org/1999/xlink" x="0px" y="0px"
	 width="26px" height="53.3px" viewBox="0 0 26 53.3" style="enable-background:new 0 0 26 53.3;" xml:space="preserve">
<style type="text/css">
	.st0{fill:#FFCA6C;}
	.st1{fill:#202248;}
	.st2{fill:#FBB03B;}
	.st3{fill:#FFFFFF;}
	.st4{fill:#DB9195;}
</style>
<path class="st0" d="M19.8,47.2v1.2h-2.5v-1.2h-1.2v1.2h1.2v3.7h-1.2v-1.2h-1.2v-1.2h-1.2v1.2h-2.5v-1.2H9.9v1.2H7.4v-1.2H6.2v-1.2
	h1.2v-1.2h1.2v-2.4H6.2v-1.2h1.2v-1.2h1.2V41h1.2v-1.2h1.2V41h1.2v1.2h1.2V41h1.2v-1.2h1.2V41h1.2v1.2h1.2v2.4h1.2
	C19.8,44.8,19.8,47.2,19.8,47.2z"/>
<path class="st1" d="M17.4,36.4h-3.7v1.2h-1.2v-1.2h-5v2.4h11.2v-2.4H17.4z M9.9,17h1.2v1.2h3.7V17h1.2v-1.2h1.2v-3.7h-1.2v-1.2
	h-1.2V9.6h-3.7v1.2H9.9v1.2H8.7v3.7h1.2V17z"/>
<path class="st2" d="M19.8,44.9v3.7h1.2v-3.7H19.8z M18.6,42.4v2.4h1.2v-2.4H18.6z"/>
<path class="st2" d="M17.4,48.5v3.7h1.2v-2.4h1.2v-1.2H17.4z M17.4,42.4h1.2v-1.2h-1.2V42.4z M16.1,53.3h1.2v-1.2h-1.2V53.3z
	 M16.1,48.5h1.2v-1.2h-1.2V48.5z"/>
<path class="st2" d="M14.9,52.1h1.2v-1.2h-1.2V52.1z"/>
<path class="st2" d="M13.6,50.9h1.2v-1.2h-1.2V50.9z M12.4,50.9h-1.2v1.2h2.5v-1.2H12.4z M9.9,50.9h1.2v-1.2H9.9V50.9z M16.1,38.8
	H8.7v2.4h1.2V40h1.2v1.2h1.2v1.2h1.2v-1.2h1.2V40h1.2v1.2h1.2v-2.4H16.1z"/>
<path class="st2" d="M8.7,50.9H7.4v1.2h2.5v-1.2H8.7z M8.7,46.1v-1.2H6.2v1.2h1.2v1.2h1.2V46.1z M7.4,42.4h1.2v-1.2H7.4V42.4z
	 M6.2,50.9h1.2v-1.2H6.2V50.9z"/>
<path class="st2" d="M6.2,48.5h1.2v-1.2H6.2V48.5z M6.2,43.6h1.2v-1.2H6.2V43.6z M5,49.7h1.2v-1.2H5V49.7z M5,44.8h1.2v-1.2H5V44.8z
	"/>
<path class="st3" d="M13.6,37.6h-1.2v-1.2h-5v-1.2H6.2v-1.2H5v-2.4H3.7v-4.8H2.5V17h1.2v-4.8H5V9.7h1.2V7.3h1.2V6.1h11.2v1.2h1.2
	v2.4h1.2v2.4h1.2V17h1.2v9.7h-1.2v4.8h-1.2v2.4h-1.2v1.2h-1.2v1.2h-5V37.6L13.6,37.6z M7.4,12.1v3.7h1.2V17h1.2v1.2h1.2v1.2h3.7
	v-1.2h1.2V17h1.2v-1.2h1.2v-3.7h-1.2v-1.2h-1.2V9.7h-1.2V8.4h-3.7v1.2H9.9v1.2H8.7v1.2H7.4z"/>
<path class="st4" d="M22.3,27.9v3.7h-1.2V34h-1.2v1.2h-1.2v2.4h2.5v1.2h2.5v-1.2h1.2v-2.4H26v-4.8h-1.2v-1.2h-1.2v-1.2L22.3,27.9z
	 M17.4,12.1v3.7h1.2v-3.7H17.4z M16.1,17h1.2v-1.2h-1.2V17z M16.1,12.1h1.2v-1.2h-1.2V12.1z M14.9,18.2h1.2v-1.2h-1.2V18.2z
	 M14.9,10.9h1.2V9.7h-1.2V10.9z M12.4,0v1.2h-1.2v1.2H9.9v1.2H8.7v2.4h8.7V3.7h-1.2V2.5h-1.2V1.2h-1.2V0L12.4,0z M13.6,18.2h-2.5
	v1.2h3.7v-1.2H13.6z M13.6,8.5h-2.5v1.2h3.7V8.5H13.6z M9.9,18.2h1.2v-1.2H9.9V18.2z M9.9,10.9h1.2V9.7H9.9V10.9z M8.7,17h1.2v-1.2
	H8.7V17z"/>
<path class="st4" d="M8.7,12.1h1.2v-1.2H8.7V12.1z"/>
<path class="st4" d="M7.4,12.1v3.7h1.2v-3.7H7.4z M2.5,27.9v1.2H1.2v1.2H0v4.8h1.2v2.4h1.2v1.2H5v-1.2h2.5v-2.4H6.2V34H5v-2.4H3.7
	v-3.7H2.5z"/>
</svg>
