<svg xmlns="http://www.w3.org/2000/svg" width="77.955" height="67.06" viewBox="0 0 77.955 67.06"><defs><style>.a{fill:#ffe769;}.b{fill:#202248;}.c{fill:#fbb03b;}.d{fill:#fff;}.e{fill:#db9195;}</style></defs><g transform="matrix(0.602, 0.799, -0.799, 0.602, 61.103, -9.076)"><path class="a" d="M22,11.727v1.955H18V11.727H16v1.955h2v5.864H16V17.591H14V15.636H12v1.955H8V15.636H6v1.955H2V15.636H0V13.682H2V11.727H4V7.818H0V5.864H2V3.909H4V1.955H6V0H8V1.955h2V3.909h2V1.955h2V0h2V1.955h2V3.909h2V7.818h2v3.909Z" transform="translate(10 64.5)"/><path class="b" d="M16,0H10V1.955H8V0H0V3.909H18V0Z" transform="translate(12 58.636)"/><path class="b" d="M2,11.727H4v1.955h6V11.727h2V9.773h2V3.909H12V1.955H10V0H4V1.955H2V3.909H0V9.773H2Z" transform="translate(14 15.637)"/><path class="c" d="M0,0V5.866H2V0Z" transform="translate(32 72.318)"/><path class="c" d="M0,0V3.909H2V0Z" transform="translate(30.001 68.409)"/><path class="c" d="M0,0V5.864H2V1.955H4V0H0Z" transform="translate(28 78.182)"/><path class="c" d="M0,1.955H2V0H0Z" transform="translate(28 66.455)"/><path class="c" d="M0,1.955H2V0H0Z" transform="translate(26 84.045)"/><path class="c" d="M0,1.956H2V0H0Z" transform="translate(26 76.225)"/><path class="c" d="M0,1.955H2V0H0Z" transform="translate(24 82.091)"/><path class="c" d="M0,1.955H2V0H0Z" transform="translate(22 80.136)"/><path class="c" d="M2,0H0V1.955H4V0Z" transform="translate(18 82.091)"/><path class="c" d="M0,1.955H2V0H0Z" transform="translate(16 80.136)"/><path class="c" d="M12,0H0V3.909H2V1.955H4V3.909H6V5.864H8V3.909h2V1.955h2V3.909h2V0Z" transform="translate(14 62.546)"/><path class="c" d="M2,0H0V1.955H4V0Z" transform="translate(12.001 82.091)"/><path class="c" d="M4,1.955V0H0V1.955H2V3.909H4Z" transform="translate(10 72.318)"/><path class="c" d="M0,1.955H2V0H0Z" transform="translate(12 66.455)"/><path class="c" d="M0,1.955H2V0H0Z" transform="translate(10 80.136)"/><path class="c" d="M0,1.956H2V0H0Z" transform="translate(10 76.225)"/><path class="c" d="M0,1.955H2V0H0Z" transform="translate(10 68.409)"/><path class="c" d="M0,1.955H2V0H0Z" transform="translate(8 78.182)"/><path class="c" d="M0,1.955H2V0H0Z" transform="translate(8 70.364)"/><path class="d" d="M18,50.819H16V48.864H8V46.909H6V44.954H4V41.045H2V33.227H0V17.59H2V9.773H4V5.864H6V1.955H8V0H26V1.955h2V5.864h2v3.91h2V17.59h2V33.227H32v7.818H30v3.909H28v1.955H26v1.955H18v1.954ZM8,9.773v5.863h2V17.59h2v1.955h2V21.5h6V19.545h2V17.59h2V15.637h2V9.773H24V7.818H22V5.864H20V3.909H14V5.864H12V7.818H10V9.773Z" transform="translate(4 9.773)"/><path class="e" d="M6,0V5.864H4V9.771H2v1.955H0v3.911H4v1.955H8V15.636h2V11.725h2V3.909H10V1.955H8V0Z" transform="translate(30 44.955)"/><path class="e" d="M0,0V5.866H2V0Z" transform="translate(28.001 19.545)"/><path class="e" d="M0,1.955H2V0H0Z" transform="translate(26 25.409)"/><path class="e" d="M0,1.955H2V0H0Z" transform="translate(26 17.591)"/><path class="e" d="M0,1.955H2V0H0Z" transform="translate(24 27.364)"/><path class="e" d="M0,1.955H2V0H0Z" transform="translate(24 15.637)"/><path class="e" d="M6,0V1.955H4V3.909H2V5.864H0V9.773H14V5.864H12V3.909H10V1.955H8V0Z" transform="translate(14)"/><path class="e" d="M4,0H0V1.955H6V0Z" transform="translate(18 29.319)"/><path class="e" d="M4,0H0V1.955H6V0Z" transform="translate(18 13.682)"/><path class="e" d="M0,1.955H2V0H0Z" transform="translate(16 27.364)"/><path class="e" d="M0,1.955H2V0H0Z" transform="translate(16 15.637)"/><path class="e" d="M0,1.955H2V0H0Z" transform="translate(14 25.409)"/><path class="e" d="M0,1.955H2V0H0Z" transform="translate(14 17.591)"/><path class="e" d="M0,0V5.866H2V0Z" transform="translate(12.001 19.545)"/><path class="e" d="M4,0V1.955H2V3.909H0v7.816H2v3.911H4v1.955H8V15.636h4V11.725H10V9.771H8V5.864H6V0Z" transform="translate(0 44.955)"/></g></svg>