<svg xmlns="http://www.w3.org/2000/svg" xmlns:xlink="http://www.w3.org/1999/xlink" width="1920" height="284" viewBox="0 0 1920 284"><defs><style>.a{fill:none;}.b{clip-path:url(#a);}.c{fill:#b7baee;}.d{fill:#fafafd;}.e{fill:#ffe769;}.f{fill:#202248;}.g{fill:#fbb03b;}.h{fill:#e8e9ff;}.i{fill:#db9195;}.j{fill:#303cf4;}</style><clipPath id="a"><rect class="a" width="1920" height="284"/></clipPath></defs><rect class="a" width="1920" height="284"/><g class="b"><circle class="c" cx="960" cy="960" r="960" transform="translate(0 47)"/><g transform="translate(848.577 93.49)"><path class="d" d="M0,1.429H1.412V0H0Z" transform="matrix(-0.883, 0.469, -0.469, -0.883, 17.138, 25.592)"/><path class="d" d="M0,1.429H1.412V0H0Z" transform="matrix(-0.883, 0.469, -0.469, -0.883, 21.067, 29.974)"/><path class="d" d="M1.412,0H0V1.429H2.824V0Z" transform="matrix(-0.883, 0.469, -0.469, -0.883, 19.726, 27.452)"/><path class="d" d="M0,1.429H1.412V0H0Z" transform="matrix(-0.883, 0.469, -0.469, -0.883, 17.714, 23.667)"/><path class="d" d="M0,1.429H1.412V0H0Z" transform="matrix(-0.883, 0.469, -0.469, -0.883, 21.643, 28.05)"/><path class="d" d="M0,1.429H1.412V0H0Z" transform="matrix(-0.883, 0.469, -0.469, -0.883, 18.29, 21.743)"/><path class="d" d="M2.824,1.429V0H0V1.429H1.412V2.857H4.235V1.429Z" transform="matrix(-0.883, 0.469, -0.469, -0.883, 26.724, 28.584)"/><path class="d" d="M0,1.429H1.412V0H0Z" transform="matrix(-0.883, 0.469, -0.469, -0.883, 18.865, 19.819)"/><path class="d" d="M1.412,2.857V5.714H2.824V2.857H4.235V1.429H2.824V0H1.412V1.429H0V2.857Z" transform="matrix(-0.883, 0.469, -0.469, -0.883, 23.465, 25.463)"/><path class="d" d="M0,0V1.429H2.824V0H0Z" transform="matrix(-0.883, 0.469, -0.469, -0.883, 24.617, 21.615)"/><path class="d" d="M0,2.857V5.714H1.412V7.143H4.235V5.714H2.824V4.286H1.412V0H0V2.857Z" transform="matrix(-0.883, 0.469, -0.469, -0.883, 29.887, 28.52)"/><path class="d" d="M0,1.429H1.412V0H0Z" transform="matrix(-0.883, 0.469, -0.469, -0.883, 26.534, 22.214)"/><path class="d" d="M0,0V1.429H1.412V2.857H2.824V4.286H4.235V1.429H2.824V0H0Z" transform="matrix(-0.883, 0.469, -0.469, -0.883, 26.439, 19.028)"/><path class="d" d="M1.412,0H0V2.857H2.824V1.429H1.412Z" transform="matrix(-0.883, 0.469, -0.469, -0.883, 27.015, 17.104)"/><path class="d" d="M1.412,2.857V0H0V4.286H1.412Z" transform="matrix(-0.883, 0.469, -0.469, -0.883, 42.447, 25.078)"/><path class="d" d="M0,1.429H1.412V0H0Z" transform="matrix(-0.883, 0.469, -0.469, -0.883, 40.341, 18.108)"/><path class="d" d="M0,4.286H2.824V0H1.412V2.857H0Z" transform="matrix(-0.883, 0.469, -0.469, -0.883, 38.904, 12.4)"/><path class="d" d="M0,0V5.714H1.412V7.143H4.235V5.714H2.824V1.429H1.412V0Z" transform="matrix(-0.883, 0.469, -0.469, -0.883, 46.858, 24.351)"/><path class="d" d="M0,1.429H1.412V0H0Z" transform="matrix(-0.883, 0.469, -0.469, -0.883, 43.504, 18.044)"/><path class="d" d="M0,1.429V2.857H1.412V0H0Z" transform="matrix(-0.883, 0.469, -0.469, -0.883, 44.08, 16.12)"/><path class="d" d="M1.412,0V1.429H0V7.143H1.412V2.857H2.824V0Z" transform="matrix(-0.883, 0.469, -0.469, -0.883, 42.068, 12.336)"/><path class="d" d="M0,0V5.714H1.412V0Z" transform="matrix(-0.883, 0.469, -0.469, -0.883, 49.351, 23.025)"/><path class="d" d="M0,0V1.429H2.824V0H0Z" transform="matrix(-0.883, 0.469, -0.469, -0.883, 45.232, 12.272)"/><path class="d" d="M1.412,0H0V4.286H1.412V5.714H2.824V0Z" transform="matrix(-0.883, 0.469, -0.469, -0.883, 45.137, 9.086)"/><path class="d" d="M1.412,1.429V0H0V2.857H1.412Z" transform="matrix(-0.883, 0.469, -0.469, -0.883, 49.737, 14.73)"/><path class="d" d="M0,1.429H1.412V0H0Z" transform="matrix(-0.883, 0.469, -0.469, -0.883, 47.725, 10.946)"/><path class="d" d="M4.235,0V1.429H2.824V0H1.412V1.429H0V4.286H1.412V2.857H2.824V5.714H4.235V2.857H5.647V0Z" transform="matrix(-0.883, 0.469, -0.469, -0.883, 55.583, 19.711)"/><path class="d" d="M0,1.429H1.412V0H0Z" transform="matrix(-0.883, 0.469, -0.469, -0.883, 49.642, 11.545)"/><path class="d" d="M1.412,0H0V1.429H1.412V4.286H0V5.714H4.235V4.286H2.824V0Z" transform="matrix(-0.883, 0.469, -0.469, -0.883, 48.877, 7.098)"/><path class="d" d="M0,1.429H1.412V0H0Z" transform="matrix(-0.883, 0.469, -0.469, -0.883, 50.218, 9.621)"/><path class="d" d="M0,1.429H1.412V0H0Z" transform="matrix(-0.883, 0.469, -0.469, -0.883, 54.818, 15.265)"/><path class="d" d="M0,1.429H1.412V0H0Z" transform="matrix(-0.883, 0.469, -0.469, -0.883, 50.794, 7.697)"/><path class="d" d="M0,1.429H1.412V0H0Z" transform="matrix(-0.883, 0.469, -0.469, -0.883, 48.782, 3.912)"/><path class="d" d="M0,1.429H1.412V0H0Z" transform="matrix(-0.883, 0.469, -0.469, -0.883, 56.735, 15.863)"/><path class="d" d="M0,1.429H1.412V0H0Z" transform="matrix(-0.883, 0.469, -0.469, -0.883, 55.394, 13.34)"/><path class="d" d="M0,1.429H1.412V0H0Z" transform="matrix(-0.883, 0.469, -0.469, -0.883, 53.382, 9.556)"/><path class="d" d="M0,1.429H1.412V0H0Z" transform="matrix(-0.883, 0.469, -0.469, -0.883, 51.37, 5.772)"/><path class="d" d="M0,1.429H1.412V0H0Z" transform="matrix(-0.883, 0.469, -0.469, -0.883, 58.652, 16.462)"/><path class="d" d="M0,1.429H1.412V0H0Z" transform="matrix(-0.883, 0.469, -0.469, -0.883, 57.311, 13.939)"/><path class="d" d="M1.412,1.429H0V2.857H2.824V0H1.412Z" transform="matrix(-0.883, 0.469, -0.469, -0.883, 57.216, 10.754)"/><path class="d" d="M0,1.429H1.412V0H0Z" transform="matrix(-0.883, 0.469, -0.469, -0.883, 53.287, 6.371)"/><path class="d" d="M0,1.429H1.412V0H0Z" transform="matrix(-0.883, 0.469, -0.469, -0.883, 59.228, 14.538)"/><path class="d" d="M1.412,0H0V1.429H2.824V0Z" transform="matrix(-0.883, 0.469, -0.469, -0.883, 59.133, 11.352)"/><path class="d" d="M2.824,0H1.412V1.429H0V2.857H2.824V4.286H4.235V1.429H2.824Z" transform="matrix(-0.883, 0.469, -0.469, -0.883, 55.109, 3.784)"/><path class="d" d="M1.412,0H0V2.857H1.412V5.714H2.824V4.286H4.235V2.857H5.647V1.429H2.824V0Z" transform="matrix(-0.883, 0.469, -0.469, -0.883, 59.614, 6.242)"/><path class="d" d="M1.412,0H0V1.429H2.824V0Z" transform="matrix(-0.883, 0.469, -0.469, -0.883, 60.956, 8.765)"/><path class="d" d="M0-1.429H1.412V0H0Z" transform="matrix(-0.891, 0.454, -0.454, -0.891, 2.594, 96.31)"/><path class="d" d="M0-1.429H1.412V0H0Z" transform="matrix(-0.891, 0.454, -0.454, -0.891, 1.258, 90.578)"/><path class="d" d="M1.412,0H0V-1.429H2.824V0Z" transform="matrix(-0.891, 0.454, -0.454, -0.891, 2.555, 93.124)"/><path class="d" d="M0-1.429H1.412V0H0Z" transform="matrix(-0.891, 0.454, -0.454, -0.891, 4.501, 96.942)"/><path class="d" d="M0-1.429H1.412V0H0Z" transform="matrix(-0.891, 0.454, -0.454, -0.891, 3.164, 91.21)"/><path class="d" d="M0-1.429H1.412V0H0Z" transform="matrix(-0.891, 0.454, -0.454, -0.891, 6.407, 97.574)"/><path class="d" d="M2.824-1.429V0H0V-1.429H1.412V-2.857H4.235v1.429Z" transform="matrix(-0.891, 0.454, -0.454, -0.891, 5.641, 86.741)"/><path class="d" d="M0-1.429H1.412V0H0Z" transform="matrix(-0.891, 0.454, -0.454, -0.891, 8.314, 98.206)"/><path class="d" d="M1.412-2.857V-5.714H2.824v2.857H4.235v1.429H2.824V0H1.412V-1.429H0V-2.857Z" transform="matrix(-0.891, 0.454, -0.454, -0.891, 6.329, 91.201)"/><path class="d" d="M0,0V-1.429H2.824V0H0Z" transform="matrix(-0.891, 0.454, -0.454, -0.891, 10.142, 92.465)"/><path class="d" d="M0-2.857V-5.714H1.412V-7.143H4.235v1.429H2.824v1.429H1.412V0H0V-2.857Z" transform="matrix(-0.891, 0.454, -0.454, -0.891, 7.508, 84.187)"/><path class="d" d="M0-1.429H1.412V0H0Z" transform="matrix(-0.891, 0.454, -0.454, -0.891, 10.751, 90.551)"/><path class="d" d="M0,0V-1.429H1.412V-2.857H2.824V-4.286H4.235v2.857H2.824V0H0Z" transform="matrix(-0.891, 0.454, -0.454, -0.891, 13.306, 92.456)"/><path class="d" d="M1.412,0H0V-2.857H2.824v1.429H1.412Z" transform="matrix(-0.891, 0.454, -0.454, -0.891, 15.212, 93.088)"/><path class="d" d="M1.412-2.857V0H0V-4.286H1.412Z" transform="matrix(-0.891, 0.454, -0.454, -0.891, 17.532, 75.873)"/><path class="d" d="M0-1.429H1.412V0H0Z" transform="matrix(-0.891, 0.454, -0.454, -0.891, 22.033, 81.596)"/><path class="d" d="M0-4.286H2.824V0H1.412V-2.857H0Z" transform="matrix(-0.891, 0.454, -0.454, -0.891, 25.885, 86.047)"/><path class="d" d="M0,0V-5.714H1.412V-7.143H4.235v1.429H2.824v4.286H1.412V0Z" transform="matrix(-0.891, 0.454, -0.454, -0.891, 20.657, 72.677)"/><path class="d" d="M0-1.429H1.412V0H0Z" transform="matrix(-0.891, 0.454, -0.454, -0.891, 23.9, 79.041)"/><path class="d" d="M0-1.429V-2.857H1.412V0H0Z" transform="matrix(-0.891, 0.454, -0.454, -0.891, 25.806, 79.673)"/><path class="d" d="M1.412,0V-1.429H0V-7.143H1.412v4.286H2.824V0Z" transform="matrix(-0.891, 0.454, -0.454, -0.891, 27.752, 83.492)"/><path class="d" d="M0,0V-5.714H1.412V0Z" transform="matrix(-0.891, 0.454, -0.454, -0.891, 23.173, 71.395)"/><path class="d" d="M0,0V-1.429H2.824V0H0Z" transform="matrix(-0.891, 0.454, -0.454, -0.891, 29.619, 80.937)"/><path class="d" d="M1.412,0H0V-4.286H1.412V-5.714H2.824V0Z" transform="matrix(-0.891, 0.454, -0.454, -0.891, 32.174, 82.842)"/><path class="d" d="M1.412-1.429V0H0V-2.857H1.412Z" transform="matrix(-0.891, 0.454, -0.454, -0.891, 30.189, 75.837)"/><path class="d" d="M0-1.429H1.412V0H0Z" transform="matrix(-0.891, 0.454, -0.454, -0.891, 32.135, 79.655)"/><path class="d" d="M4.235,0V-1.429H2.824V0H1.412V-1.429H0V-4.286H1.412v1.429H2.824V-5.714H4.235v2.857H5.647V0Z" transform="matrix(-0.891, 0.454, -0.454, -0.891, 29.462, 68.19)"/><path class="d" d="M0-1.429H1.412V0H0Z" transform="matrix(-0.891, 0.454, -0.454, -0.891, 32.744, 77.741)"/><path class="d" d="M1.412,0H0V-1.429H1.412V-4.286H0V-5.714H4.235v1.429H2.824V0Z" transform="matrix(-0.891, 0.454, -0.454, -0.891, 35.948, 80.919)"/><path class="d" d="M0-1.429H1.412V0H0Z" transform="matrix(-0.891, 0.454, -0.454, -0.891, 34.651, 78.373)"/><path class="d" d="M0-1.429H1.412V0H0Z" transform="matrix(-0.891, 0.454, -0.454, -0.891, 32.666, 71.368)"/><path class="d" d="M0-1.429H1.412V0H0Z" transform="matrix(-0.891, 0.454, -0.454, -0.891, 36.557, 79.005)"/><path class="d" d="M0-1.429H1.412V0H0Z" transform="matrix(-0.891, 0.454, -0.454, -0.891, 38.503, 82.824)"/><path class="d" d="M0-1.429H1.412V0H0Z" transform="matrix(-0.891, 0.454, -0.454, -0.891, 33.275, 69.454)"/><path class="d" d="M0-1.429H1.412V0H0Z" transform="matrix(-0.891, 0.454, -0.454, -0.891, 34.572, 72)"/><path class="d" d="M0-1.429H1.412V0H0Z" transform="matrix(-0.891, 0.454, -0.454, -0.891, 36.518, 75.819)"/><path class="d" d="M0-1.429H1.412V0H0Z" transform="matrix(-0.891, 0.454, -0.454, -0.891, 38.464, 79.637)"/><path class="d" d="M0-1.429H1.412V0H0Z" transform="matrix(-0.891, 0.454, -0.454, -0.891, 33.885, 67.541)"/><path class="d" d="M0-1.429H1.412V0H0Z" transform="matrix(-0.891, 0.454, -0.454, -0.891, 35.182, 70.086)"/><path class="d" d="M1.412-1.429H0V-2.857H2.824V0H1.412Z" transform="matrix(-0.891, 0.454, -0.454, -0.891, 37.737, 71.991)"/><path class="d" d="M0-1.429H1.412V0H0Z" transform="matrix(-0.891, 0.454, -0.454, -0.891, 39.073, 77.723)"/><path class="d" d="M0-1.429H1.412V0H0Z" transform="matrix(-0.891, 0.454, -0.454, -0.891, 35.791, 68.173)"/><path class="d" d="M1.412,0H0V-1.429H2.824V0Z" transform="matrix(-0.891, 0.454, -0.454, -0.891, 38.346, 70.077)"/><path class="d" d="M2.824,0H1.412V-1.429H0V-2.857H2.824V-4.286H4.235v2.857H2.824Z" transform="matrix(-0.891, 0.454, -0.454, -0.891, 42.237, 77.714)"/><path class="d" d="M1.412,0H0V-2.857H1.412V-5.714H2.824v1.429H4.235v1.429H5.647v1.429H2.824V0Z" transform="matrix(-0.891, 0.454, -0.454, -0.891, 42.808, 72.614)"/><path class="d" d="M1.412,0H0V-1.429H2.824V0Z" transform="matrix(-0.891, 0.454, -0.454, -0.891, 41.51, 70.068)"/></g><g transform="translate(581.096 53.795) rotate(65)"><path class="e" d="M22,11.727v1.955H18V11.727H16v1.955h2v5.864H16V17.591H14V15.636H12v1.955H8V15.636H6v1.955H2V15.636H0V13.682H2V11.727H4V7.818H0V5.864H2V3.909H4V1.955H6V0H8V1.955h2V3.909h2V1.955h2V0h2V1.955h2V3.909h2V7.818h2v3.909Z" transform="translate(10 64.5)"/><path class="f" d="M16,0H10V1.955H8V0H0V3.909H18V0Z" transform="translate(12 58.636)"/><path class="f" d="M2,11.727H4v1.955h6V11.727h2V9.773h2V3.909H12V1.955H10V0H4V1.955H2V3.909H0V9.773H2Z" transform="translate(14 15.637)"/><path class="g" d="M0,0V5.866H2V0Z" transform="translate(32 72.318)"/><path class="g" d="M0,0V3.909H2V0Z" transform="translate(30.001 68.409)"/><path class="g" d="M0,0V5.864H2V1.955H4V0H0Z" transform="translate(28 78.182)"/><path class="g" d="M0,1.955H2V0H0Z" transform="translate(28 66.455)"/><path class="g" d="M0,1.955H2V0H0Z" transform="translate(26 84.045)"/><path class="g" d="M0,1.956H2V0H0Z" transform="translate(26 76.225)"/><path class="g" d="M0,1.955H2V0H0Z" transform="translate(24 82.091)"/><path class="g" d="M0,1.955H2V0H0Z" transform="translate(22 80.136)"/><path class="g" d="M2,0H0V1.955H4V0Z" transform="translate(18 82.091)"/><path class="g" d="M0,1.955H2V0H0Z" transform="translate(16 80.136)"/><path class="g" d="M12,0H0V3.909H2V1.955H4V3.909H6V5.864H8V3.909h2V1.955h2V3.909h2V0Z" transform="translate(14 62.546)"/><path class="g" d="M2,0H0V1.955H4V0Z" transform="translate(12.001 82.091)"/><path class="g" d="M4,1.955V0H0V1.955H2V3.909H4Z" transform="translate(10 72.318)"/><path class="g" d="M0,1.955H2V0H0Z" transform="translate(12 66.455)"/><path class="g" d="M0,1.955H2V0H0Z" transform="translate(10 80.136)"/><path class="g" d="M0,1.956H2V0H0Z" transform="translate(10 76.225)"/><path class="g" d="M0,1.955H2V0H0Z" transform="translate(10 68.409)"/><path class="g" d="M0,1.955H2V0H0Z" transform="translate(8 78.182)"/><path class="g" d="M0,1.955H2V0H0Z" transform="translate(8 70.364)"/><path class="h" d="M18,50.819H16V48.864H8V46.909H6V44.954H4V41.045H2V33.227H0V17.59H2V9.773H4V5.864H6V1.955H8V0H26V1.955h2V5.864h2v3.91h2V17.59h2V33.227H32v7.818H30v3.909H28v1.955H26v1.955H18v1.954ZM8,9.773v5.863h2V17.59h2v1.955h2V21.5h6V19.545h2V17.59h2V15.637h2V9.773H24V7.818H22V5.864H20V3.909H14V5.864H12V7.818H10V9.773Z" transform="translate(4 9.773)"/><path class="i" d="M6,0V5.864H4V9.771H2v1.955H0v3.911H4v1.955H8V15.636h2V11.725h2V3.909H10V1.955H8V0Z" transform="translate(30 44.955)"/><path class="i" d="M0,0V5.866H2V0Z" transform="translate(28.001 19.545)"/><path class="i" d="M0,1.955H2V0H0Z" transform="translate(26 25.409)"/><path class="i" d="M0,1.955H2V0H0Z" transform="translate(26 17.591)"/><path class="i" d="M0,1.955H2V0H0Z" transform="translate(24 27.364)"/><path class="i" d="M0,1.955H2V0H0Z" transform="translate(24 15.637)"/><path class="i" d="M6,0V1.955H4V3.909H2V5.864H0V9.773H14V5.864H12V3.909H10V1.955H8V0Z" transform="translate(14)"/><path class="i" d="M4,0H0V1.955H6V0Z" transform="translate(18 29.319)"/><path class="i" d="M4,0H0V1.955H6V0Z" transform="translate(18 13.682)"/><path class="i" d="M0,1.955H2V0H0Z" transform="translate(16 27.364)"/><path class="i" d="M0,1.955H2V0H0Z" transform="translate(16 15.637)"/><path class="i" d="M0,1.955H2V0H0Z" transform="translate(14 25.409)"/><path class="i" d="M0,1.955H2V0H0Z" transform="translate(14 17.591)"/><path class="i" d="M0,0V5.866H2V0Z" transform="translate(12.001 19.545)"/><path class="i" d="M4,0V1.955H2V3.909H0v7.816H2v3.911H4v1.955H8V15.636h4V11.725H10V9.771H8V5.864H6V0Z" transform="translate(0 44.955)"/></g><g transform="matrix(0.985, 0.174, -0.174, 0.985, 1135.853, 12.1)"><path class="j" d="M0,0V64H4.875V0Z" transform="translate(0 0)"/><path class="i" d="M31.689,0H0V26.87H34.127V24.427H31.689V21.985H29.252V19.542h-2.44V17.1H24.375V14.654H21.937V12.211h2.437V9.771h2.437V7.328h2.44V4.885h2.437V2.443h2.437V0Z" transform="translate(4.873 2.443)"/></g></g></svg>