<svg xmlns="http://www.w3.org/2000/svg" width="641" height="509" viewBox="0 0 641 509"><defs><style>.a{fill:#ffe769;}.b,.j{fill:#202248;}.c{fill:#fbb03b;}.d,.h,.i{fill:#fff;}.e{fill:#db9195;}.f{fill:#303cf4;}.g,.k{fill:none;}.h,.j{font-size:16px;font-family:Poppins-SemiBold, Poppins;font-weight:600;}.i{font-size:14px;font-family:Poppins-Light, Poppins;font-weight:300;}.k{stroke:#1f2ac9;stroke-miterlimit:10;stroke-width:2px;}</style></defs><g transform="translate(301.333)"><path class="a" d="M19.555,10.426v1.738H16V10.426H14.222v1.738H16v5.213H14.222V15.639H12.444V13.9H10.667v1.738H7.111V13.9H5.333v1.738H1.778V13.9H0V12.164H1.778V10.426H3.556V6.951H0V5.213H1.778V3.475H3.556V1.738H5.333V0H7.111V1.738H8.889V3.475h1.778V1.738h1.778V0h1.778V1.738H16V3.475h1.778V6.951h1.778v3.475Z" transform="translate(8.889 57.345)"/><path class="b" d="M14.222,0H8.889V1.738H7.111V0H0V3.475H16V0Z" transform="translate(10.667 52.132)"/><path class="b" d="M1.778,10.426H3.556v1.738H8.889V10.426h1.778V8.689h1.778V3.475H10.667V1.738H8.889V0H3.556V1.738H1.778V3.475H0V8.689H1.778Z" transform="translate(12.445 13.902)"/><path class="c" d="M0,0V5.215H1.778V0Z" transform="translate(28.445 64.295)"/><path class="c" d="M0,0V3.475H1.778V0Z" transform="translate(26.667 60.82)"/><path class="c" d="M0,0V5.213H1.778V1.738H3.556V0H0Z" transform="translate(24.889 69.509)"/><path class="c" d="M0,1.738H1.778V0H0Z" transform="translate(24.889 59.083)"/><path class="c" d="M0,1.738H1.78V0H0Z" transform="translate(23.111 74.722)"/><path class="c" d="M0,1.739H1.78V0H0Z" transform="translate(23.111 67.769)"/><path class="c" d="M0,1.738H1.778V0H0Z" transform="translate(21.333 72.984)"/><path class="c" d="M0,1.738H1.778V0H0Z" transform="translate(19.556 71.247)"/><path class="c" d="M1.778,0H0V1.738H3.556V0Z" transform="translate(16 72.985)"/><path class="c" d="M0,1.738H1.778V0H0Z" transform="translate(14.222 71.247)"/><path class="c" d="M10.667,0H0V3.475H1.778V1.738H3.556V3.475H5.333V5.213H7.111V3.475H8.889V1.738h1.778V3.475h1.778V0Z" transform="translate(12.445 55.607)"/><path class="c" d="M1.778,0H0V1.738H3.556V0Z" transform="translate(10.667 72.985)"/><path class="c" d="M3.556,1.738V0H0V1.738H1.778V3.475H3.556Z" transform="translate(8.889 64.296)"/><path class="c" d="M0,1.738H1.778V0H0Z" transform="translate(10.667 59.083)"/><path class="c" d="M0,1.738H1.778V0H0Z" transform="translate(8.889 71.247)"/><path class="c" d="M0,1.739H1.778V0H0Z" transform="translate(8.889 67.769)"/><path class="c" d="M0,1.738H1.778V0H0Z" transform="translate(8.889 60.82)"/><path class="c" d="M0,1.738H1.78V0H0Z" transform="translate(7.111 69.509)"/><path class="c" d="M0,1.738H1.78V0H0Z" transform="translate(7.111 62.558)"/><path class="d" d="M16,45.181H14.222V43.443H7.111V41.705H5.333V39.967H3.556V36.492H1.778V29.542H0v-13.9H1.778V8.689H3.556V5.213H5.333V1.738H7.111V0h16V1.738h1.778V5.213h1.778V8.689h1.778v6.951h1.778v13.9H28.444v6.951H26.666v3.475H24.889v1.738H23.111v1.738H16V45.18ZM7.111,8.689V13.9H8.888v1.738h1.778v1.738h1.777v1.738h5.333V17.377h1.778V15.639h1.778V13.9h1.778V8.689H21.333V6.951H19.555V5.213H17.778V3.476H12.444V5.213H10.667V6.951H8.888V8.689Z" transform="translate(3.556 8.689)"/><path class="e" d="M5.333,0V5.213H3.556V8.687H1.778v1.738H0V13.9H3.556v1.738H7.111V13.9H8.889V10.425h1.778V3.475H8.889V1.738H7.111V0Z" transform="translate(26.667 39.968)"/><path class="e" d="M0,0V5.215H1.778V0Z" transform="translate(24.89 17.377)"/><path class="e" d="M0,1.738H1.78V0H0Z" transform="translate(23.111 22.591)"/><path class="e" d="M0,1.738H1.78V0H0Z" transform="translate(23.111 15.64)"/><path class="e" d="M0,1.738H1.778V0H0Z" transform="translate(21.333 24.328)"/><path class="e" d="M0,1.738H1.778V0H0Z" transform="translate(21.333 13.902)"/><path class="e" d="M5.333,0V1.738H3.556V3.475H1.778V5.213H0V8.689H12.446V5.213h-1.78V3.475H8.889V1.738H7.111V0Z" transform="translate(12.445)"/><path class="e" d="M3.556,0H0V1.738H5.333V0Z" transform="translate(16 26.066)"/><path class="e" d="M3.556,0H0V1.738H5.333V0Z" transform="translate(16 12.164)"/><path class="e" d="M0,1.738H1.778V0H0Z" transform="translate(14.222 24.328)"/><path class="e" d="M0,1.738H1.778V0H0Z" transform="translate(14.222 13.902)"/><path class="e" d="M0,1.738H1.778V0H0Z" transform="translate(12.445 22.591)"/><path class="e" d="M0,1.738H1.778V0H0Z" transform="translate(12.445 15.64)"/><path class="e" d="M0,0V5.215H1.778V0Z" transform="translate(10.667 17.377)"/><path class="e" d="M3.556,0V1.738H1.778V3.475H0v6.949H1.778V13.9H3.556v1.738H7.111V13.9h3.557V10.425H8.891V8.687H7.111V5.213H5.333V0Z" transform="translate(0 39.968)"/></g><rect class="f" width="640" height="121" transform="translate(1 388)"/><rect class="f" width="569" height="121" transform="translate(37 268)"/><rect class="f" width="498" height="50" transform="translate(72 218)"/><rect class="f" width="427" height="50" transform="translate(108 168)"/><path class="f" d="M0,7H162l15-7,15,7H356V57H0Z" transform="translate(143 111)"/><path class="e" d="M0,0H284V50H156l-15-7-15,7H0Z" transform="translate(179 68)"/><path class="g" d="M640,0V120.913H0V0" transform="translate(0 388.087)"/><path class="g" transform="translate(35.111 267.174)"/><path class="g" transform="translate(70.667 217.386)"/><path class="g" transform="translate(106.222 167.598)"/><path class="g" transform="translate(141.778 117.81)"/><path class="g" transform="translate(177.333 68.023)"/><path class="g" d="M.5,49.788V0" transform="translate(213.278 18.023)"/><g transform="translate(168.889 395.203)"><text class="h" transform="translate(0 8)"><tspan x="0" y="17">Ecommerce development/Base </tspan><tspan x="0" y="52.556">layer</tspan></text><text class="i" transform="translate(76.556 37.549)"><tspan x="-73.78" y="15">Shopify development</tspan><tspan x="-72.198" y="36.333">Headless commerce</tspan><tspan x="-51.38" y="57.667">ERP integration</tspan></text></g><text class="h" transform="translate(227.556 282.29)"><tspan x="0" y="17">Sales/experience </tspan><tspan x="0" y="52.556">layer</tspan></text><text class="i" transform="translate(248.944 311.855)"><tspan x="-70.735" y="15">Community building</tspan><tspan x="-56.581" y="36.333">Persuasive adds</tspan><tspan x="-34.048" y="57.667">UX design</tspan></text><text class="h" transform="translate(273.778 232.502)"><tspan x="0" y="17">Experiment</tspan></text><text class="h" transform="translate(296.889 182.714)"><tspan x="0" y="17">Learn</tspan></text><text class="h" transform="translate(292.444 132.926)"><tspan x="0" y="17">Iterate</tspan></text><text class="j" transform="translate(215 83)"><tspan x="-90.624" y="17">Compounding Growth</tspan></text><path class="k" d="M0,0H305.778L320-7.113,335.111,0H640" transform="translate(0 388.087)"/><path class="k" d="M0,0H270.222l14.222-7.113L299.556,0H568.889" transform="translate(35.556 267.174)"/><path class="k" d="M0,0H234.667l14.222-7.113L264,0H497.778" transform="translate(71.111 217.386)"/><path class="k" d="M0,0H199.111l14.222-7.113L228.444,0H426.667" transform="translate(106.667 167.598)"/><path class="k" d="M0,0H163.556l14.222-7.113L192.889,0H355.556" transform="translate(142.222 117.81)"/></svg>