<svg width="209" height="209" viewBox="0 0 209 209" fill="none" xmlns="http://www.w3.org/2000/svg">
<rect width="209" height="209" fill=""/>
<g clip-path="url(#clip0)">
<path d="M60.9328 90H54.2364C54.2364 95.4303 51.714 100.386 47.3298 103.65L44.6873 105.608L54.9571 119.436H63.3951L53.9361 106.706C58.4104 102.315 60.9328 96.3798 60.9328 90Z" fill="white"/>
<path d="M43.8465 90H37V119.436H43.8465V90Z" fill="white"/>
<path d="M71.8334 90H65.3772V119.436H71.8334V90Z" fill="white"/>
<path d="M128.468 98.5164C126.005 98.5164 123.663 99.2582 122.101 101.365V99.0802H115.976V119.436H122.192V108.754C122.192 105.668 124.294 104.154 126.816 104.154C129.519 104.154 131.08 105.757 131.08 108.724V119.466H137.236V106.499C137.236 101.751 133.422 98.5164 128.468 98.5164Z" fill="white"/>
<path d="M91.352 99.0802V100.386C89.6103 99.1988 87.5083 98.5164 85.2261 98.5164C79.2204 98.5164 74.3557 103.323 74.3557 109.258C74.3557 115.193 79.2204 120 85.2261 120C87.5083 120 89.6103 119.318 91.352 118.131V119.436H97.5078V99.0802H91.352ZM85.7366 114.481C82.6436 114.481 80.1513 112.137 80.1513 109.258C80.1513 106.38 82.6436 104.036 85.7366 104.036C88.8295 104.036 91.3219 106.38 91.3219 109.258C91.3219 112.137 88.8295 114.481 85.7366 114.481Z" fill="white"/>
<path d="M107.057 101.721V99.0802H100.751V119.436H107.087V109.941C107.087 106.736 110.6 105.015 113.033 105.015C113.063 105.015 113.093 105.015 113.093 105.015V99.0802C110.6 99.0802 108.288 100.148 107.057 101.721Z" fill="white"/>
<path d="M156.394 99.0802V100.386C154.653 99.1988 152.551 98.5164 150.268 98.5164C144.263 98.5164 139.398 103.323 139.398 109.258C139.398 115.193 144.263 120 150.268 120C152.551 120 154.653 119.318 156.394 118.131V119.436H162.55V99.0802H156.394ZM150.779 114.481C147.686 114.481 145.193 112.137 145.193 109.258C145.193 106.38 147.686 104.036 150.779 104.036C153.872 104.036 156.364 106.38 156.364 109.258C156.394 112.137 153.872 114.481 150.779 114.481Z" fill="white"/>
<path d="M167.325 99.6736C167.325 99.3769 167.114 99.1989 166.784 99.1989H166.214V100.742H166.484V100.178H166.784L167.024 100.742H167.325L167.054 100.119C167.235 100.03 167.325 99.8813 167.325 99.6736ZM166.784 99.911H166.484V99.4362H166.784C166.964 99.4362 167.054 99.5253 167.054 99.6736C167.054 99.822 166.994 99.911 166.784 99.911Z" fill="white"/>
<path d="M166.694 98.546C165.883 98.546 165.223 99.1988 165.223 100C165.253 100.801 165.883 101.454 166.694 101.454C167.505 101.454 168.165 100.801 168.165 100C168.165 99.1988 167.505 98.546 166.694 98.546ZM166.694 101.187C166.033 101.187 165.523 100.653 165.523 100C165.523 99.3472 166.063 98.8131 166.694 98.8131C167.355 98.8131 167.865 99.3472 167.865 100C167.865 100.653 167.325 101.187 166.694 101.187Z" fill="white"/>
<path d="M169.126 112.225C166.994 112.225 165.252 113.947 165.252 116.053C165.252 118.16 166.994 119.881 169.126 119.881C171.258 119.881 173 118.16 173 116.053C173 113.917 171.258 112.225 169.126 112.225Z" fill="white"/>
</g>
<defs>
<clipPath id="clip0">
<rect width="136" height="30" fill="white" transform="translate(37 90)"/>
</clipPath>
</defs>
</svg>
