<svg width="209" height="209" viewBox="0 0 209 209" fill="none" xmlns="http://www.w3.org/2000/svg">
<rect width="209" height="209" fill=""/>
<path d="M39.919 103.58L60.0874 90.3747C60.9662 89.8751 62.0427 89.8751 62.9215 90.3747L83.0898 103.58C83.8807 103.971 84.2322 104.905 83.8367 105.709C83.683 106.034 83.4193 106.295 83.0898 106.447L80.3875 108.206C73.7746 97.8896 59.9775 94.8271 49.5418 101.343C46.7517 103.102 44.3789 105.426 42.5994 108.206L39.8751 106.447C39.0842 106.034 38.7766 105.079 39.1721 104.297C39.3478 103.993 39.6115 103.732 39.919 103.58ZM61.4715 103.428C55.6934 103.45 50.3108 106.382 47.235 111.225L51.8706 114.266C55.0563 109.032 61.9328 107.359 67.2056 110.509C68.7654 111.443 70.0617 112.724 71.0064 114.266L75.642 111.225C72.6102 106.36 67.2495 103.406 61.4715 103.428ZM61.4715 114.462C59.4283 114.483 57.5608 115.569 56.5502 117.329L59.6699 119.348C60.1752 119.783 60.8124 120 61.4715 120C62.1306 120 62.7896 119.761 63.273 119.348L66.3927 117.329C65.4041 115.548 63.5147 114.462 61.4715 114.462Z" fill="white"/>
<path d="M95.2582 105.404L100.34 112.465H96.7606L92.9163 106.987V112.465H90V98.4708H92.9163V104.056L96.5617 98.4708H99.9199L95.2582 105.404ZM105.355 98.5136H102.439V112.508H109.884V109.683H105.289L105.355 98.5136ZM118.5 98L124.576 112.486H121.306L120.732 110.967H115.938L115.363 112.486H112.071L118.147 98H118.5ZM119.671 108.357L118.368 104.74L117.02 108.357H119.671ZM128.663 106.281L125.681 98.5136H122.411L128.487 113H128.774L134.849 98.5136H131.558L128.663 106.281ZM137.081 112.508H139.997V98.5136H137.081V112.508ZM151.53 98.5136L148.592 103.35L145.653 98.5136H142.14L147.155 106.195V112.508H150.028V106.195L155.087 98.5136H151.53ZM170 105.254C170 109.255 166.642 112.508 162.51 112.508C158.379 112.508 155.021 109.255 155.021 105.254C155.021 101.252 158.379 98 162.51 98C166.664 98.0214 170 101.252 170 105.254ZM167.194 105.254C167.194 102.75 165.095 100.739 162.532 100.739C159.948 100.739 157.871 102.772 157.871 105.254C157.871 107.736 159.97 109.769 162.532 109.769C165.095 109.769 167.194 107.757 167.194 105.275C167.194 105.275 167.194 105.275 167.194 105.254Z" fill="white"/>
</svg>
