<svg xmlns="http://www.w3.org/2000/svg" width="105" height="55.999" viewBox="0 0 105 55.999"><defs><style>.a{fill:#202248;}.b{fill:#db9195;}</style></defs><g transform="translate(0)"><path class="a" d="M9.991,19.668a9.726,9.726,0,0,1-7.172-2.837A9.578,9.578,0,0,1,0,9.834,9.522,9.522,0,0,1,2.875,2.874,9.533,9.533,0,0,1,9.839,0a9.414,9.414,0,0,1,7.02,2.818A9.651,9.651,0,0,1,19.6,9.8v1.891H5A4.547,4.547,0,0,0,6.736,14.2a5.51,5.51,0,0,0,3.293.927,5.033,5.033,0,0,0,2.78-.794,5.13,5.13,0,0,0,1.875-2.156l4.125,2.459a9.808,9.808,0,0,1-3.539,3.668A10.045,10.045,0,0,1,9.991,19.668ZM9.877,4.539A4.976,4.976,0,0,0,5.222,7.526H14.38A4.287,4.287,0,0,0,9.877,4.539Z" transform="translate(29.929 5.9)"/><path class="a" d="M9.839,20.461a4.727,4.727,0,1,1,4.693-5.319,4.6,4.6,0,0,1,.038.592v1.944h5.109V0H14.531V7.1A9.751,9.751,0,0,0,9.839,5.9a9.834,9.834,0,1,0,0,19.668h1.946V20.461Z" transform="translate(8.234 0)"/><path class="b" d="M0,5.182H5.184V0H0Z" transform="translate(22.8 20.457)"/><path class="a" d="M10.293.1C3.821-.691,0,3.168,0,8.69V19.961H5V8.69c0-2.762,2.118-4.465,5.3-3.9Z" transform="translate(74.293 5.229)"/><path class="a" d="M9.12,19.668a9.139,9.139,0,0,1-6.262-2.609A9.328,9.328,0,0,1,0,9.834,10.205,10.205,0,0,1,1.437,4.35,8.85,8.85,0,0,1,4.9,1.021,9.442,9.442,0,0,1,9.2,0a7.442,7.442,0,0,1,5.639,2.232V.378h5.185V19.29H14.834V17.172A7.14,7.14,0,0,1,9.12,19.668ZM10.142,4.729A4.971,4.971,0,0,0,6.528,6.164,4.914,4.914,0,0,0,5.071,9.8,4.976,4.976,0,0,0,10.142,14.9,4.538,4.538,0,0,0,13.6,13.408,5.151,5.151,0,0,0,14.985,9.8,5.081,5.081,0,0,0,13.6,6.2,4.563,4.563,0,0,0,10.142,4.729Z" transform="translate(51.638 5.9)"/><path class="a" d="M40.321,35.543a11.583,11.583,0,0,1-6.035-1.55,9.826,9.826,0,0,1-3.8-3.9l4.58-2.571a5.461,5.461,0,0,0,5.26,3.215,4.329,4.329,0,0,0,3.311-1.362,4.677,4.677,0,0,0,1.268-3.29V24.31a7.141,7.141,0,0,1-5.714,2.5,9.137,9.137,0,0,1-6.262-2.61,9.329,9.329,0,0,1-2.858-7.224A10.205,10.205,0,0,1,31.5,11.488,8.831,8.831,0,0,1,34.966,8.16a9.439,9.439,0,0,1,4.3-1.022A7.223,7.223,0,0,1,44.9,9.559V7.516h5.185V25.9a9.71,9.71,0,0,1-2.574,6.921A9.456,9.456,0,0,1,40.321,35.543Zm-.113-23.676A4.961,4.961,0,0,0,36.594,13.3a4.905,4.905,0,0,0-1.458,3.63,4.978,4.978,0,0,0,5.071,5.107,4.536,4.536,0,0,0,3.462-1.494,5.155,5.155,0,0,0,1.381-3.613,5.078,5.078,0,0,0-1.381-3.591A4.563,4.563,0,0,0,40.207,11.866Zm42.672,14.94a9.141,9.141,0,0,1-6.263-2.61,9.331,9.331,0,0,1-2.858-7.224A10.205,10.205,0,0,1,75.2,11.488,8.828,8.828,0,0,1,78.66,8.16a9.44,9.44,0,0,1,4.3-1.022A7.437,7.437,0,0,1,88.593,9.37V7.516h5.186V26.429H88.593V24.31A7.136,7.136,0,0,1,82.879,26.807ZM83.9,11.866A4.965,4.965,0,0,0,80.286,13.3a4.911,4.911,0,0,0-1.457,3.63A4.976,4.976,0,0,0,83.9,22.04a4.536,4.536,0,0,0,3.462-1.494,5.152,5.152,0,0,0,1.382-3.613,5.076,5.076,0,0,0-1.382-3.591A4.563,4.563,0,0,0,83.9,11.866ZM9.12,26.807A9.141,9.141,0,0,1,2.857,24.2,9.333,9.333,0,0,1,0,16.972a10.206,10.206,0,0,1,1.437-5.485A8.829,8.829,0,0,1,4.9,8.16,9.431,9.431,0,0,1,9.2,7.138,7.445,7.445,0,0,1,14.835,9.37V.444H20.02V26.429H14.835V24.31A7.142,7.142,0,0,1,9.12,26.807Zm1.022-14.94A4.965,4.965,0,0,0,6.528,13.3a4.908,4.908,0,0,0-1.457,3.63,4.976,4.976,0,0,0,5.071,5.107A4.538,4.538,0,0,0,13.6,20.546a5.155,5.155,0,0,0,1.381-3.613A5.078,5.078,0,0,0,13.6,13.343,4.566,4.566,0,0,0,10.142,11.866ZM103.73,26.46h0a7.13,7.13,0,0,1-5.569-2.255,8.875,8.875,0,0,1-1.9-5.947V0h5.033V18.258c0,2.5,1,3.609,3.242,3.609.149,0,.306-.005.467-.015v4.539A12.133,12.133,0,0,1,103.73,26.46Zm-31.992-.032H70.98c-2.988,0-5.088-.6-6.243-1.8S63,21.284,63,18.221V12.168H59.818V7.516h11.92v4.652H68.18v6.014c0,1.481.2,2.429.606,2.819s1.393.586,2.952.586v4.841Zm-14.01,0H52.545V7.516h5.183V26.428Zm-29.744,0H22.8V7.516h5.184V26.428Z" transform="translate(0 20.457)"/></g></svg>