<svg xmlns="http://www.w3.org/2000/svg" width="192" height="96" viewBox="0 0 192 96"><defs><style>.a{fill:none;}.b{fill:#fff;}</style></defs><rect class="a" width="192" height="96" rx="4"/><g transform="translate(40 36)"><path class="b" d="M0,5.649V11.3H11.324V0H0Z"/><path class="b" d="M.061.061C.026.087,0,2.633,0,5.709V11.3H11.324V0h-5.6C2.639,0,.087.026.061.061Z" transform="translate(12.456)"/><path class="b" d="M4.538.045A3.7,3.7,0,0,0,2.247,1.671a4.668,4.668,0,0,0-.5,2.39v.93l-.845.026-.854.026-.026.973L0,7H1.751v8.256H4.19V7H7.761V9.622c.009,3.137.07,3.728.453,4.5A2.327,2.327,0,0,0,9.7,15.349a6.036,6.036,0,0,0,2.4-.052l.54-.156V13.194l-.5.165c-.8.269-1.428.1-1.742-.478-.139-.243-.156-.6-.183-3.085L10.191,7h2.448V5H10.2V2.027l-.235.061c-.14.026-.688.191-1.22.356l-.984.3V5.042L5.967,5.016l-1.8-.026L4.2,3.973c.035-1.112.149-1.434.619-1.781A2.065,2.065,0,0,1,6.4,2.07l.4.139V1.175C6.8.3,6.785.141,6.655.1A8.058,8.058,0,0,0,4.538.045Z" transform="translate(98.856 3.778)"/><path class="b" d="M.671.173A1.3,1.3,0,0,0,0,1.364,1.32,1.32,0,0,0,1.577,2.685a1.281,1.281,0,0,0,1.281-1.33A1.244,1.244,0,0,0,2.2.2,1.675,1.675,0,0,0,.671.173Z" transform="translate(48.492 4.511)"/><path class="b" d="M0,7.126v7.126H2.352L2.334,8.777c-.017-3.015,0-5.475.026-5.475S3.4,5.77,4.617,8.777L6.829,14.26l.871-.026.871-.026,2.151-5.414c1.185-2.981,2.178-5.44,2.2-5.466s.052,2.416.052,5.431v5.492h2.439V0H12.055L10.061,4.884C8.963,7.578,7.988,9.95,7.9,10.159l-.174.391L6.969,8.638C6.55,7.6,5.61,5.223,4.878,3.363L3.545,0H0Z" transform="translate(30.923 4.779)"/><path class="b" d="M4,.109A5.1,5.1,0,0,0,.255,3.542,7.959,7.959,0,0,0,.115,6.879a5.033,5.033,0,0,0,2.361,3.154,6.4,6.4,0,0,0,4.9.182l.505-.2L7.92,8.9c.026-.608.035-1.1.026-1.1s-.27.139-.584.3a3.3,3.3,0,0,1-4.033-.33,3.583,3.583,0,0,1-.81-3.094A3.035,3.035,0,0,1,4.4,2.16a3.762,3.762,0,0,1,3.171.4,2.294,2.294,0,0,0,.348.2A7.05,7.05,0,0,0,7.937,1.6L7.911.431,7.328.24A8.358,8.358,0,0,0,4,.109Z" transform="translate(52.793 8.624)"/><path class="b" d="M4.617.024A2.547,2.547,0,0,0,2.665,1.467l-.218.417-.009-.9v-.9L1.246.12.044.146l-.026,5.1L0,10.357H2.43L2.456,7.2l.026-3.146.244-.521A2.033,2.033,0,0,1,4.216,2.2a2.931,2.931,0,0,1,1.55.217l.244.13V1.371c0-.843-.035-1.191-.1-1.243A3.023,3.023,0,0,0,4.617.024Z" transform="translate(62.541 8.674)"/><path class="b" d="M3.613,10.465a4.732,4.732,0,0,1-3.467-3.5A8.631,8.631,0,0,1,.155,3.757,4.8,4.8,0,0,1,3.866.107,9.13,9.13,0,0,1,7.254.22a4.146,4.146,0,0,1,1.795,1.1A4.883,4.883,0,0,1,10.442,4.8a6.764,6.764,0,0,1-.391,2.754,4.84,4.84,0,0,1-3.362,2.894,6.927,6.927,0,0,1-1.594.158A6.584,6.584,0,0,1,3.613,10.465Z" transform="translate(68.702 8.626)"/><path class="b" d="M2.552.107a3.632,3.632,0,0,0-2.3,1.808A3.538,3.538,0,0,0,.261,4.365c.357.73.758,1.043,2.3,1.781a11.068,11.068,0,0,1,1.568.86,1.221,1.221,0,0,1,.1,1.182c-.5.756-2.343.678-3.728-.165L0,7.72v2.338l.313.13a7.619,7.619,0,0,0,3.85.269A3.46,3.46,0,0,0,6.533,8.71a2.379,2.379,0,0,0,.209-1.26,2.168,2.168,0,0,0-.183-1.182C6.123,5.443,5.566,5.026,4,4.322c-1.15-.5-1.463-.773-1.533-1.295C2.3,1.837,4.1,1.489,5.862,2.375l.418.217L6.254,1.48,6.228.377,5.705.211A8.252,8.252,0,0,0,2.552.107Z" transform="translate(80.311 8.626)"/><path class="b" d="M.37,7.618a6.654,6.654,0,0,1,.471-5.44A4.886,4.886,0,0,1,3.767.162,7.827,7.827,0,0,1,6.981.171,4.156,4.156,0,0,1,9.1,1.353a4.987,4.987,0,0,1,1.368,3.858A5,5,0,0,1,8.994,9.174a4.532,4.532,0,0,1-3.1,1.425,6.375,6.375,0,0,1-.788.049A4.874,4.874,0,0,1,.37,7.618Z" transform="translate(88.173 8.606)"/><path class="b" d="M0,5.136v5.127H2.44l-.017-5.11L2.4.052,1.2.026,0,0Z" transform="translate(48.692 8.768)"/><path class="b" d="M0,5.648V11.3H11.324V0H0Z" transform="translate(0.003 12.511)"/><path class="b" d="M.018,5.622l.026,5.631,5.644.026,5.636.017V0H0Z" transform="translate(12.456 12.513)"/></g></svg>