<svg id="Laag_2" data-name="Laag 2" xmlns="http://www.w3.org/2000/svg" viewBox="0 0 500 500"><defs><style>.cls-1{fill:#cf9596;}.cls-2{fill:#2c46eb;}.cls-3{fill:#1f2346;}</style></defs><polygon class="cls-1" points="211.66 177.81 211.66 165.53 199.38 165.53 199.38 154 188.22 154 188.22 140.23 175.19 140.23 175.19 359.77 188.59 359.77 188.59 346.56 201.05 346.56 201.05 334.28 212.96 334.28 212.96 321.63 219.25 321.63 219.25 177.81 211.66 177.81"/><polygon class="cls-2" points="311.41 244.42 311.41 229.91 298.76 229.91 298.76 217.26 287.6 217.26 287.6 204.23 276.06 204.23 276.06 190.84 263.04 190.84 263.04 177.81 248.9 177.81 248.9 165.53 236.62 165.53 236.62 154 225.46 154 225.46 140.23 211.66 140.23 211.66 177.81 225.8 177.81 225.8 190.84 238.82 190.84 238.82 204.23 250.35 204.23 250.35 217.26 261.52 217.26 261.52 229.91 274.17 229.91 274.17 244.42 287.56 244.42 287.56 256.09 274.91 256.09 274.91 269.72 261.89 269.72 261.89 282.37 249.61 282.37 249.61 294.65 236.96 294.65 236.96 306.93 225.05 306.93 225.05 321.63 212.96 321.63 212.96 359.77 225.83 359.77 225.83 346.56 238.3 346.56 238.3 334.28 250.2 334.28 250.2 321.63 262.3 321.63 262.3 306.93 274.2 306.93 274.2 294.65 286.86 294.65 286.86 282.37 299.13 282.37 299.13 269.72 312.16 269.72 312.16 256.09 324.81 256.09 324.81 244.42 311.41 244.42"/><polygon class="cls-3" points="225.05 306.93 236.96 306.93 236.96 294.65 249.61 294.65 249.61 282.37 261.89 282.37 261.89 269.72 274.91 269.72 274.91 256.09 287.56 256.09 287.56 244.42 274.17 244.42 274.17 229.91 261.52 229.91 261.52 217.26 250.35 217.26 250.35 204.23 238.82 204.23 238.82 190.84 225.8 190.84 225.8 177.81 211.66 177.81 212.96 321.63 225.05 321.63 225.05 306.93"/></svg>
