<svg width="209" height="209" viewBox="0 0 209 209" fill="none" xmlns="http://www.w3.org/2000/svg">
<rect width="209" height="209" fill=""/>
<path d="M104.5 124.118C114.717 124.118 123 115.585 123 105.059C123 94.533 114.717 86 104.5 86C94.2827 86 86 94.533 86 105.059C86 115.585 94.2827 124.118 104.5 124.118Z" fill="white"/>
<path d="M94.1602 97.6813H96.3399L98.0167 100.755L99.6375 97.6813H101.705L98.9668 102.6V105.227H96.9547V102.656L94.1602 97.6813Z" fill="white"/>
<path d="M101.091 101.482C101.091 99.1903 102.935 97.6254 105.059 97.6254C107.183 97.6254 109.027 99.2462 109.027 101.482C109.027 103.773 107.183 105.394 105.059 105.394C102.935 105.338 101.091 103.773 101.091 101.482ZM106.959 101.482C106.959 100.308 106.233 99.358 105.003 99.358C103.773 99.358 103.047 100.308 103.047 101.482C103.047 102.656 103.773 103.606 105.003 103.606C106.288 103.606 106.959 102.656 106.959 101.482Z" fill="white"/>
<path d="M110.871 99.358H108.915V97.6813H114.84V99.358H112.884V105.227H110.871V99.358Z" fill="white"/>
<path d="M96.7311 113.498H94.7749V105.953H97.5695C99.5815 105.953 100.699 107.239 100.699 108.915C100.699 110.592 99.5815 111.878 97.5695 111.878H96.7311V113.498ZM97.4577 110.145C98.3519 110.145 98.6873 109.642 98.6873 108.915C98.6873 108.189 98.3519 107.63 97.4577 107.63H96.7311V110.145H97.4577Z" fill="white"/>
<path d="M101.035 109.754C101.035 107.462 102.879 105.897 105.003 105.897C107.127 105.897 108.971 107.518 108.971 109.754C108.971 112.045 107.127 113.666 105.003 113.666C102.879 113.61 101.035 112.045 101.035 109.754ZM106.959 109.754C106.959 108.58 106.233 107.63 105.003 107.63C103.774 107.63 103.047 108.58 103.047 109.754C103.047 110.927 103.774 111.878 105.003 111.878C106.233 111.878 106.959 110.927 106.959 109.754Z" fill="white"/>
<path d="M108.971 112.548C108.971 111.878 109.474 111.43 110.033 111.43C110.592 111.43 111.095 111.878 111.095 112.548C111.095 113.219 110.592 113.666 110.033 113.666C109.474 113.61 108.971 113.163 108.971 112.548Z" fill="white"/>
</svg>
