<svg xmlns="http://www.w3.org/2000/svg" width="192" height="96" viewBox="0 0 192 96"><defs><style>.a{fill:none;}.b{fill:#fff;}</style></defs><rect class="a" width="192" height="96" rx="4"/><g transform="translate(68 35)"><path class="b" d="M4.478,25.822H0l.084-.291.1-.347L.2,25.128l.262-.135c.144-.075.313-.16.375-.19a2.574,2.574,0,0,0,1.03-.948A8.777,8.777,0,0,0,2.594,21.9C2.668,21.648,7.331,5.1,7.5,4.477a6.918,6.918,0,0,0,.349-2.041,1.378,1.378,0,0,0-.4-.857,3.289,3.289,0,0,0-.383-.322c-.023-.014-.129-.105-.236-.2l-.2-.177s.027-.633.032-.67l0-.033,4.641,0c3.333,0,4.7.007,4.853.015.47.025.6.033.837.052a8.9,8.9,0,0,1,3.961,1.038,5.357,5.357,0,0,1,2.624,4.238,6.992,6.992,0,0,1-.65,3.727,8.726,8.726,0,0,1-2.152,2.736,9.3,9.3,0,0,1-4.023,2,13.227,13.227,0,0,1-2.547.336c-.309.014-1.284.006-1.541-.011-.765-.05-1.571-.137-2.318-.248a1.449,1.449,0,0,0-.2-.022c-.005.005-1.94,6.891-2.063,7.339a9.008,9.008,0,0,0-.369,1.952,1.638,1.638,0,0,0,.539,1.3c.055.047.13.113.167.149.079.075.077.073.46.22.162.062.3.117.3.122s-.046.143-.1.309-.109.319-.116.343l-.014.042Zm39.287-.006a9.539,9.539,0,0,1-4.3-1.033,8.7,8.7,0,0,1-3.507-3.719,11.96,11.96,0,0,1-1.338-4.55,16.445,16.445,0,0,1,.149-4.181A13.867,13.867,0,0,1,37.8,5.717a17.165,17.165,0,0,1,1.616-1.683A14.958,14.958,0,0,1,49.338.005,14,14,0,0,1,51.4.1,17.834,17.834,0,0,1,53.476.59,11.043,11.043,0,0,0,54.64.87a2.767,2.767,0,0,0,.674-.005,1.229,1.229,0,0,0,.794-.536l.046-.062h.3c.234,0,.3,0,.292.012s-.327,1.378-.72,3.046l-.715,3.035-.3,0-.3,0L54.7,6.195a5.263,5.263,0,0,0-.353-1.922,3.363,3.363,0,0,0-.679-.931c-.1-.107-.248-.282-.338-.389a3.911,3.911,0,0,0-1.688-1.233,4.936,4.936,0,0,0-1.781-.3,5.143,5.143,0,0,0-.769.048,7.991,7.991,0,0,0-4,1.91,13.92,13.92,0,0,0-3.6,5.086,20.592,20.592,0,0,0-1.841,8.963,9.371,9.371,0,0,0,1.2,4.858,6.227,6.227,0,0,0,1.075,1.258,3.894,3.894,0,0,0,2,.966,3.353,3.353,0,0,0,1.174-.025,5.836,5.836,0,0,0,.846-.246c.148-.056.423-.169.49-.2l.037-.019.835-3.26c.459-1.794.88-3.447.935-3.674a6.067,6.067,0,0,0,.3-1.946,1.706,1.706,0,0,0-.447-.851c-.051-.063-.134-.169-.184-.235a1.355,1.355,0,0,0-.134-.156c-.119-.1-.257-.133-.6-.146L47,13.741l.078-.338.078-.339,4,0,4.005,0-.07.335c-.039.184-.071.338-.073.344a1.139,1.139,0,0,1-.154.077,1.084,1.084,0,0,0-.3.17c-.04.031-.115.085-.168.119a1.91,1.91,0,0,0-.6.614,5.567,5.567,0,0,0-.568,1.731c-.058.236-.543,2.113-1.078,4.172l-.973,3.745-.256.105a17.574,17.574,0,0,1-5.092,1.266c-.554.052-1.184.082-1.745.082C43.98,25.819,43.871,25.818,43.765,25.816ZM20.8,25.706a4.213,4.213,0,0,1-3.267-1.49,3.655,3.655,0,0,1-.829-1.773,3.317,3.317,0,0,1-.048-.668,4.6,4.6,0,0,1,.455-2.08,4.715,4.715,0,0,1,.934-1.265,12.053,12.053,0,0,1,2.316-1.788,28.441,28.441,0,0,1,2.578-1.366c.124-.059.229-.11.233-.114a2.154,2.154,0,0,0-.022-.24c-.06-.488-.117-1.06-.147-1.473-.016-.234-.016-1.07,0-1.264a6.929,6.929,0,0,1,.428-1.972,6.048,6.048,0,0,1,1.4-2.146,4.906,4.906,0,0,1,3.71-1.554,3.014,3.014,0,0,1,2.293.963,2.7,2.7,0,0,1,.64,1.151,2.994,2.994,0,0,1,.077.892,3.9,3.9,0,0,1-.356,1.52,4.264,4.264,0,0,1-.837,1.179,9.167,9.167,0,0,1-2.14,1.624c-.257.148-.846.451-1.144.588l-.281.13-.049.023.041.139c.468,1.541.695,2.263.909,2.905a12.6,12.6,0,0,0,.679,1.7c.138.287.205.421.363.715l.087.164.057-.064a6.488,6.488,0,0,0,.917-1.364,5.532,5.532,0,0,0,.349-.976,1.408,1.408,0,0,0-.249-1.423,1.388,1.388,0,0,0-.579-.339l-.15-.05.078-.243.078-.243h2.507c1.38,0,2.507,0,2.507.008s-.042.113-.094.242l-.094.233L34.1,16a2.891,2.891,0,0,0-1.04.507,14.41,14.41,0,0,0-1.93,2.373,23.67,23.67,0,0,1-1.67,2.086l-.131.145.166.229a9.919,9.919,0,0,0,1,1.209,3.113,3.113,0,0,0,1.427.944,2.193,2.193,0,0,0,1.091,0,2.224,2.224,0,0,0,.794-.476l.121-.1h.209c.115,0,.209,0,.209.005s-.167.346-.236.472a5.778,5.778,0,0,1-.6.871,4.051,4.051,0,0,1-2.3,1.364,4.78,4.78,0,0,1-2.032-.06,4.164,4.164,0,0,1-1.692-.9,9.617,9.617,0,0,1-.841-.8l-.131-.142-.291.2a10.885,10.885,0,0,1-1.374.822,8.487,8.487,0,0,1-3.153.937c-.2.017-.462.027-.683.027C20.937,25.71,20.864,25.708,20.8,25.706Z"/></g></svg>