<?xml version="1.0" encoding="utf-8"?>
<!-- Generator: Adobe Illustrator 25.4.1, SVG Export Plug-In . SVG Version: 6.00 Build 0)  -->
<svg version="1.1" id="Layer_1" xmlns="http://www.w3.org/2000/svg" xmlns:xlink="http://www.w3.org/1999/xlink" x="0px" y="0px"
	 width="21px" height="32px" viewBox="0 0 21 32" style="enable-background:new 0 0 21 32;" xml:space="preserve">
<style type="text/css">
	.st0{fill-rule:evenodd;clip-rule:evenodd;fill:#DB9195;}
	.st1{fill-rule:evenodd;clip-rule:evenodd;fill:#303CF4;}
</style>
<g>
	<polygon id="Fill-1" class="st0" points="0,11.3 0,13.2 0,15.1 0,16.9 0,18.8 1.9,18.8 1.9,16.9 1.9,15.1 1.9,13.2 1.9,11.3 	"/>
	<polygon id="Fill-2" class="st0" points="1.9,20.7 3.8,20.7 3.8,18.8 1.9,18.8 	"/>
	<polygon id="Fill-3" class="st0" points="3.8,22.6 5.7,22.6 5.7,20.7 3.8,20.7 	"/>
	<polygon id="Fill-4" class="st0" points="13.4,22.6 11.5,22.6 9.5,22.6 7.6,22.6 5.7,22.6 5.7,24.5 7.6,24.5 9.5,24.5 9.5,26.4 
		9.5,28.2 9.5,30.1 7.6,30.1 5.7,30.1 5.7,32 7.6,32 9.5,32 11.5,32 13.4,32 15.3,32 15.3,30.1 13.4,30.1 11.5,30.1 11.5,28.2 
		11.5,26.4 11.5,24.5 13.4,24.5 15.3,24.5 15.3,22.6 	"/>
	<polygon id="Fill-5" class="st0" points="15.3,22.6 17.2,22.6 17.2,20.7 15.3,20.7 	"/>
	<polygon id="Fill-6" class="st0" points="17.2,20.7 19.1,20.7 19.1,18.8 17.2,18.8 	"/>
	<polygon id="Fill-7" class="st0" points="19.1,11.3 19.1,13.2 19.1,15.1 19.1,16.9 19.1,18.8 21,18.8 21,11.3 	"/>
	<polygon id="Fill-8" class="st1" points="7.6,0 7.6,1.9 5.7,1.9 5.7,3.8 5.7,5.6 5.7,7.5 5.7,9.4 5.7,11.3 5.7,13.2 5.7,15.1 
		5.7,16.9 7.6,16.9 7.6,18.8 9.5,18.8 11.5,18.8 13.4,18.8 13.4,16.9 15.3,16.9 15.3,15.1 15.3,13.2 15.3,11.3 15.3,9.4 15.3,7.5 
		15.3,5.6 15.3,3.8 15.3,1.9 13.4,1.9 13.4,0 	"/>
</g>
</svg>
