<?xml version="1.0" encoding="utf-8"?>
<!-- Generator: Adobe Illustrator 26.0.2, SVG Export Plug-In . SVG Version: 6.00 Build 0)  -->
<svg version="1.1" id="Laag_1" xmlns="http://www.w3.org/2000/svg" xmlns:xlink="http://www.w3.org/1999/xlink" x="0px" y="0px"
	 viewBox="0 0 209 209" style="enable-background:new 0 0 209 209;" xml:space="preserve">
<style type="text/css">
	.st0{fill:none;}
	.st1{fill:#FFFFFF;}
	.st2{fill-rule:evenodd;clip-rule:evenodd;fill:#FFFFFF;}
	.st3{fill-rule:evenodd;clip-rule:evenodd;fill:#FEEF7C;}
	.st4{fill-rule:evenodd;clip-rule:evenodd;fill:#5CD3CB;}
</style>
<rect y="0" class="st0" width="209" height="209"/>
<g id="reviewsio-logo1">
	<g>
		<g>
			<path class="st1" d="M68.8,111l-3.8-4.9c2.5-0.6,4.2-2.2,4.2-4.8v0c0-1.3-0.5-2.5-1.3-3.3l0,0c-1.1-1.1-2.7-1.7-4.8-1.7H57
				c-0.6,0-1.1,0.5-1.1,1.1v14.5c0,0.6,0.5,1.1,1.1,1.1c0.6,0,1.1-0.5,1.1-1.1v-5.3h4.4l4.5,5.9c0.2,0.3,0.6,0.6,1,0.6
				c0.6,0,1.1-0.5,1.1-1.1C69.1,111.5,69,111.2,68.8,111L68.8,111z M66.9,101.3L66.9,101.3L66.9,101.3c0,2-1.7,3.2-4,3.2h-4.8v-6.2
				h4.8C65.4,98.3,66.9,99.4,66.9,101.3z"/>
			<path class="st1" d="M72.4,111.7c0,0.6,0.5,1.1,1.1,1.1h10.2c0.6,0,1-0.5,1-1c0-0.6-0.5-1-1-1h-9.1v-5.3h7.9c0.6,0,1-0.5,1-1
				c0-0.5-0.5-1-1-1h-7.9v-5.1h9c0.6,0,1-0.5,1-1s-0.5-1-1-1H73.5c-0.6,0-1.1,0.5-1.1,1.1L72.4,111.7L72.4,111.7z"/>
			<path class="st1" d="M94.2,113l0.1,0c0.6,0,1-0.4,1.2-0.9l6.3-14.5c0.1-0.1,0.1-0.3,0.1-0.4c0-0.6-0.5-1.1-1.1-1.1
				c-0.5,0-0.9,0.4-1.1,0.8c0,0,0,0,0,0l-5.4,13l-5.4-13c-0.2-0.5-0.6-0.8-1.1-0.8c-0.6,0-1.1,0.5-1.1,1.1c0,0.2,0,0.3,0.1,0.5
				l6.3,14.4C93.2,112.6,93.6,113,94.2,113L94.2,113z M93.1,112L93.1,112z"/>
			<path class="st1" d="M104.9,97.2v14.6c0,0.6,0.5,1.1,1.1,1.1c0.6,0,1.1-0.5,1.1-1.1V97.2c0-0.6-0.5-1.1-1.1-1.1
				C105.4,96,104.9,96.5,104.9,97.2z"/>
			<path class="st1" d="M122.5,96.2L122.5,96.2l-10.1,0c-0.6,0-1.1,0.5-1.1,1.1v14.4c0,0.6,0.5,1.1,1.1,1.1c0,0,10.2,0,10.2,0
				c0.6,0,1-0.5,1-1c0-0.6-0.5-1-1-1h-9.1v-5.3h7.9c0.6,0,1-0.5,1-1c0-0.5-0.5-1-1-1h-7.9v-5.1h9c0.6,0,1-0.5,1-1
				C123.5,96.6,123,96.2,122.5,96.2L122.5,96.2z"/>
			<path class="st1" d="M142.4,113h0.2c0.5,0,0.9-0.4,1.1-0.9c0,0,5.2-14.4,5.2-14.4c0,0,0,0,0,0c0.1-0.2,0.1-0.3,0.1-0.5
				c0-0.6-0.5-1.1-1.1-1.1c-0.5,0-0.9,0.4-1.1,0.9c0,0-4.3,12.4-4.3,12.4l-4.1-12.4c-0.2-0.5-0.5-0.9-1.1-0.9v0l-0.1,0
				c-0.6,0-0.9,0.4-1.1,0.9l-4.1,12.4l-4.3-12.3c-0.2-0.5-0.6-0.9-1.1-0.9c-0.6,0-1.2,0.5-1.2,1.1c0,0.2,0,0.3,0.1,0.5l5.2,14.4
				c0.2,0.6,0.6,0.9,1.1,0.9h0.2c0.5,0,0.9-0.4,1.1-0.9l4-11.9l4,11.9C141.4,112.6,141.8,113,142.4,113L142.4,113z"/>
			<path class="st1" d="M160.7,108.4L160.7,108.4c0,1.5-1.4,2.6-3.4,2.6c-2,0-3.5-0.6-5-1.9l0,0c-0.1-0.1-0.4-0.3-0.7-0.3
				c-0.6,0-1.1,0.5-1.1,1.1c0,0.4,0.2,0.7,0.4,0.9c1.8,1.5,3.9,2.2,6.3,2.2c3.4,0,5.7-1.9,5.7-4.8v0c0-2.6-1.7-4-5.5-4.8
				c0,0,0,0,0,0c-3.4-0.7-4.2-1.5-4.2-3v0c0-1.4,1.3-2.4,3.2-2.4c1.5,0,2.7,0.4,4.1,1.4c0,0,0,0,0,0c0.2,0.1,0.4,0.2,0.7,0.2
				c0.6,0,1.1-0.5,1.1-1.1c0-0.4-0.3-0.7-0.5-0.9c0,0,0,0,0,0c-1.5-1.1-3.1-1.6-5.3-1.6c-3.2,0-5.5,2-5.5,4.6l0.2,0.2
				c0,0-0.2-0.2-0.2-0.2v0l0.2,0.2l-0.2-0.2c0,2.8,1.7,4,5.6,4.9c0,0,0,0,0,0C159.9,106.2,160.7,106.9,160.7,108.4L160.7,108.4z"/>
		</g>
		<g>
			<path class="st1" d="M165.5,110.6L165.5,110.6c-0.5,0-0.8,0.3-0.8,0.7l0.1,0.1l-0.1-0.1v0.3c0,0.4,0.3,0.7,0.7,0.7
				c0.4,0,0.7-0.3,0.7-0.7c0,0.1-0.1,0.1-0.1,0.1c0,0,0.1,0,0.1-0.1v-0.3C166.3,111,166,110.6,165.5,110.6z M164.9,111.8
				C164.9,111.8,164.9,111.8,164.9,111.8C164.9,111.8,164.9,111.8,164.9,111.8L164.9,111.8z"/>
			<path class="st1" d="M168.2,105.9v5.8c0,0.4,0.3,0.6,0.6,0.6c0.4,0,0.6-0.3,0.6-0.6v-5.8c0-0.4-0.3-0.6-0.6-0.6
				C168.5,105.3,168.2,105.6,168.2,105.9z M168.1,103.5L168.1,103.5c0,0.4,0.3,0.7,0.7,0.7c0.4,0,0.7-0.3,0.7-0.7v-0.2
				c0-0.4-0.3-0.7-0.7-0.7c-0.4,0-0.7,0.3-0.7,0.7L168.1,103.5z"/>
			<path class="st2" d="M178.3,108.8L178.3,108.8c0-2-1.5-3.6-3.6-3.6c-2.1,0-3.6,1.7-3.6,3.6l0,0l0,0v0c0,2,1.5,3.6,3.6,3.6
				C176.8,112.5,178.3,110.8,178.3,108.8z M177.1,108.9L177.1,108.9c0-1.4-1-2.5-2.4-2.5c-1.4,0-2.3,1.1-2.3,2.5v0
				c0,1.4,1,2.5,2.4,2.5C176.1,111.3,177.1,110.2,177.1,108.9L177.1,108.9z"/>
		</g>
	</g>
	<g>
		<g>
			<path class="st3" d="M49.1,97.4l-1,0.5c1.9,1.6,2.9,3.6,3.1,6.1c-0.1,4.7-2.4,7.8-6.2,9.1c-4.4,1.3-7.2,0.3-10-2.5l-0.2,1.1
				l1.1,1.2c3.8,4,10.2,4.1,14.2,0.3c4-3.8,4.1-10.2,0.3-14.2L49.1,97.4L49.1,97.4z"/>
			<path class="st4" d="M34.3,111l0.7-0.6c-2.8-3.9-2.9-9.7,0.9-12.9c2.8-2.3,8.4-3.6,12.9,0.4l0.3-0.6L48,96.2
				c-3.8-4-10.2-4.1-14.2-0.3c-4,3.8-4.1,10.2-0.3,14.2C33.5,110.2,34.3,111,34.3,111z"/>
		</g>
		<path class="st1" d="M31.9,104.5c0,5.6,4.5,10.1,10.1,10.1c5.6,0,10.1-4.5,10.1-10.1c0-5.6-4.5-10.1-10.1-10.1
			C36.4,94.4,31.9,99,31.9,104.5z M38.9,106.4c0.1-0.3,0-0.7-0.3-0.9c-0.7-0.6-2.2-1.7-3.2-2.4c-0.1-0.1-0.2-0.3-0.1-0.5
			c0.1-0.2,0.2-0.3,0.4-0.3h3.8c0.4,0,0.7-0.2,0.8-0.6c0.3-0.9,0.9-2.7,1.3-3.9c0.1-0.2,0.2-0.3,0.4-0.3c0.2,0,0.3,0.1,0.4,0.3
			c0.4,1.2,1,3,1.3,3.9c0.1,0.3,0.4,0.6,0.8,0.6c0.9,0,2.7,0,3.8,0c0.2,0,0.3,0.1,0.4,0.3c0.1,0.2,0,0.4-0.1,0.5
			c-1,0.7-2.5,1.9-3.2,2.4c-0.3,0.2-0.4,0.6-0.3,0.9c0.3,0.9,0.9,2.7,1.3,4c0.1,0.2,0,0.4-0.2,0.5c-0.1,0.1-0.3,0.1-0.5,0
			c-1-0.8-2.4-1.9-3.2-2.5c-0.3-0.2-0.7-0.2-1,0c-0.8,0.6-2.2,1.7-3.2,2.4c-0.1,0.1-0.3,0.1-0.5,0c-0.1-0.1-0.2-0.3-0.2-0.5
			C38,109.1,38.6,107.3,38.9,106.4z"/>
	</g>
</g>
</svg>
