<?xml version="1.0" encoding="UTF-8"?>
<svg width="39px" height="37px" viewBox="0 0 39 37" version="1.1" xmlns="http://www.w3.org/2000/svg" xmlns:xlink="http://www.w3.org/1999/xlink">
    <title>E4F1F5CE-D146-4BE7-AFDC-E259A389FA97</title>
    <g id="DESKTOP" stroke="none" stroke-width="1" fill="none" fill-rule="evenodd">
        <g id="Home" transform="translate(-265.000000, -3487.000000)">
            <g id="icon/sales" transform="translate(265.000000, 3487.000000)">
                <polygon id="Fill-1" fill="#DB9195" points="0 0 0 2.17644498 0 4.35288997 2.16671482 4.35288997 2.16671482 6.52933495 4.33342963 6.52933495 4.33342963 8.70795638 6.50014445 8.70795638 6.50014445 10.8822249 8.66685926 10.8822249 8.66685926 13.0586699 6.50014445 13.0586699 6.50014445 15.2351149 4.33342963 15.2351149 4.33342963 17.4115599 2.16671482 17.4115599 2.16671482 19.5880048 0 19.5880048 0 21.7644498 0 23.9408948 2.16671482 23.9408948 4.33342963 23.9408948 6.50014445 23.9408948 8.66685926 23.9408948 10.8335741 23.9408948 13.0002889 23.9408948 15.1670037 23.9408948 17.3337185 23.9408948 19.5004333 23.9408948 19.5004333 21.7644498 21.6671482 21.7644498 21.6671482 19.5880048 23.833863 19.5880048 23.833863 17.4115599 26.0005778 17.4115599 26.0005778 15.2351149 28.1672926 15.2351149 28.1672926 13.0586699 30.3340074 13.0586699 30.3340074 10.8822249 28.1672926 10.8822249 28.1672926 8.70795638 26.0005778 8.70795638 26.0005778 6.52933495 23.833863 6.52933495 23.833863 4.35288997 21.6671482 4.35288997 21.6671482 2.17644498 19.5004333 2.17644498 19.5004333 0"></polygon>
                <polygon id="Fill-2" fill="#202248" points="26.0005778 13.0588875 23.833863 13.0588875 21.6671482 13.0588875 19.5004333 13.0588875 17.3337185 13.0588875 15.1670037 13.0588875 13.0002889 13.0588875 10.8335741 13.0588875 8.66685926 13.0588875 8.66685926 15.2353325 8.66685926 17.4117775 10.8335741 17.4117775 10.8335741 19.5882225 13.0002889 19.5882225 13.0002889 21.7646675 15.1670037 21.7646675 15.1670037 23.9411125 17.3337185 23.9411125 19.5004333 23.9411125 19.5004333 21.7646675 21.6671482 21.7646675 21.6671482 19.5882225 23.833863 19.5882225 23.833863 17.4117775 26.0005778 17.4117775 26.0005778 15.2353325 28.1672926 15.2353325 28.1672926 13.0588875"></polygon>
                <polygon id="Fill-3" fill="#303CF4" points="28.1664259 15.2355502 25.9997111 15.2355502 25.9997111 17.4119952 23.8329963 17.4119952 23.8329963 19.5884401 21.6662815 19.5884401 21.6662815 21.7648851 19.4995667 21.7648851 19.4995667 23.9413301 17.3350186 23.9413301 17.3350186 26.1155986 15.1683037 26.1155986 15.1683037 28.2942201 13.0015889 28.2942201 13.0015889 30.4706651 10.8348741 30.4706651 10.8348741 32.64711 8.66599258 32.64711 8.66599258 34.823555 8.66599258 37 10.8348741 37 13.0015889 37 15.1683037 37 17.3350186 37 19.4995667 37 21.6662815 37 23.8329963 37 25.9997111 37 28.1664259 37 28.1664259 34.823555 30.3353075 34.823555 30.3353075 32.64711 32.5020223 32.64711 32.5020223 30.4706651 34.6687371 30.4706651 34.6687371 28.2942201 36.8354519 28.2942201 36.8354519 26.1155986 39 26.1155986 39 23.9413301 36.8354519 23.9413301 36.8354519 21.7648851 34.6687371 21.7648851 34.6687371 19.5884401 32.5020223 19.5884401 32.5020223 17.4119952 30.3353075 17.4119952 30.3353075 15.2355502"></polygon>
            </g>
        </g>
    </g>
</svg>