<svg width="209" height="209" viewBox="0 0 209 209" fill="none" xmlns="http://www.w3.org/2000/svg">
<rect width="209" height="209" fill=""/>
<path d="M72.3908 110.029C72.5854 109.856 72.888 109.856 73.0826 110.05C73.5798 110.589 74.639 111.493 76.217 111.493C77.3627 111.493 78.6597 110.998 78.6597 110.093C78.6597 109.124 77.8167 108.629 76.0873 108.284C73.6662 107.789 71.9369 106.841 71.9369 104.709C71.9369 103.072 73.5798 101.457 76.1089 101.457C77.9896 101.457 79.3082 102.319 79.9135 102.814C80.1297 102.986 80.1513 103.331 79.9568 103.525L79.2866 104.214C79.1137 104.386 78.8327 104.408 78.6381 104.257C78.1842 103.891 77.2979 103.309 76.1306 103.309C74.6822 103.309 73.9689 104.02 73.9689 104.752C73.9689 105.614 74.8552 106.066 76.7142 106.454C78.8759 106.927 80.7133 107.724 80.7133 110.029C80.7133 112.204 78.4003 113.324 76.217 113.324C73.8175 113.324 72.2827 111.989 71.6775 111.321C71.5045 111.127 71.5045 110.826 71.6991 110.632L72.3908 110.029Z" fill="white"/>
<path d="M93.489 107.487C93.489 107.703 93.489 107.875 93.4674 108.155H84.3234C84.4531 109.856 86.096 111.45 88.2145 111.45C89.7709 111.45 90.8085 110.653 91.3057 110.158C91.5002 109.964 91.8029 109.964 91.9974 110.158L92.6243 110.804C92.8189 110.998 92.7973 111.299 92.6243 111.472C91.9974 112.096 90.4842 113.345 88.2361 113.345C84.799 113.345 82.3347 110.761 82.3347 107.401C82.3347 104.106 84.5828 101.457 87.9983 101.457C91.1328 101.479 93.489 103.848 93.489 107.487ZM91.4786 106.454C91.4138 105.183 90.2465 103.396 87.9767 103.396C85.534 103.396 84.518 105.269 84.3666 106.454H91.4786Z" fill="white"/>
<path d="M105.53 105.808V112.57C105.53 112.828 105.313 113.044 105.054 113.044H103.973C103.714 113.044 103.498 112.828 103.498 112.57V106.152C103.498 104.214 102.287 103.395 100.774 103.395C98.9364 103.395 97.9636 105.291 97.9636 105.291V112.57C97.9636 112.828 97.7475 113.044 97.4881 113.044H96.4072C96.1478 113.044 95.9316 112.828 95.9316 112.57V102.254C95.9316 101.996 96.1478 101.78 96.4072 101.78H97.3584C97.6178 101.78 97.8339 101.996 97.8339 102.254V103.352C97.8339 103.352 98.8715 101.479 101.314 101.479C103.519 101.479 105.53 103.029 105.53 105.808Z" fill="white"/>
<path d="M117.03 103.18V96.2024C117.03 95.944 117.246 95.7286 117.505 95.7286H118.586C118.846 95.7286 119.062 95.944 119.062 96.2024V112.592C119.062 112.85 118.846 113.065 118.586 113.065H117.678C117.419 113.065 117.203 112.85 117.203 112.592V111.429C117.203 111.429 116.1 113.367 113.377 113.367C110.307 113.367 107.886 110.761 107.886 107.423C107.886 104.085 110.307 101.479 113.377 101.479C115.862 101.479 117.03 103.18 117.03 103.18ZM117.03 105.355C117.03 105.355 115.949 103.396 113.701 103.396C111.453 103.396 109.939 105.205 109.939 107.423C109.939 109.641 111.388 111.45 113.701 111.45C115.949 111.45 117.03 109.49 117.03 109.49V105.355Z" fill="white"/>
<path d="M131.816 111.536C131.232 112.118 129.87 113.238 127.838 113.345C124.488 113.539 121.699 110.826 121.656 107.487C121.634 104.171 124.142 101.5 127.492 101.5C129.589 101.5 131.016 102.556 131.643 103.137C131.859 103.331 131.837 103.654 131.643 103.848L130.951 104.451C130.778 104.623 130.497 104.623 130.303 104.451C129.849 104.042 128.898 103.396 127.492 103.396C125.223 103.396 123.709 105.205 123.709 107.423C123.709 109.641 125.201 111.45 127.492 111.45C129.006 111.45 130 110.696 130.476 110.201C130.67 110.007 130.973 110.007 131.167 110.201L131.794 110.847C132.01 111.041 132.01 111.342 131.816 111.536Z" fill="white"/>
<path d="M134.691 95.7072H135.772C136.031 95.7072 136.247 95.9225 136.247 96.181V112.57C136.247 112.828 136.031 113.044 135.772 113.044H134.691C134.431 113.044 134.215 112.828 134.215 112.57V96.2025C134.194 95.9225 134.41 95.7072 134.691 95.7072Z" fill="white"/>
<path d="M150.514 107.423C150.514 110.739 148.007 113.367 144.678 113.367C141.349 113.367 138.841 110.761 138.841 107.423C138.841 104.085 141.349 101.479 144.678 101.479C148.007 101.479 150.514 104.106 150.514 107.423ZM148.461 107.423C148.461 105.205 146.969 103.395 144.678 103.395C142.408 103.395 140.895 105.205 140.895 107.423C140.895 109.641 142.386 111.45 144.678 111.45C146.969 111.45 148.461 109.641 148.461 107.423Z" fill="white"/>
<path d="M152.871 109.038V102.254C152.871 101.996 153.087 101.78 153.346 101.78H154.427C154.686 101.78 154.903 101.996 154.903 102.254V108.694C154.903 110.632 156.113 111.45 157.626 111.45C159.529 111.45 160.437 109.598 160.437 109.598V102.276C160.437 102.017 160.653 101.802 160.912 101.802H161.993C162.252 101.802 162.469 102.017 162.469 102.276V112.592C162.469 112.85 162.252 113.065 161.993 113.065H161.042C160.782 113.065 160.566 112.85 160.566 112.592V111.321C160.566 111.321 159.529 113.345 157.086 113.345C154.881 113.367 152.871 111.816 152.871 109.038Z" fill="white"/>
<path d="M174.055 103.18V96.2024C174.055 95.944 174.272 95.7286 174.531 95.7286H175.612C175.871 95.7286 176.087 95.944 176.087 96.2024V112.592C176.087 112.85 175.871 113.065 175.612 113.065H174.704C174.444 113.065 174.228 112.85 174.228 112.592V111.429C174.228 111.429 173.126 113.367 170.402 113.367C167.332 113.367 164.911 110.761 164.911 107.423C164.911 104.085 167.332 101.479 170.402 101.479C172.91 101.479 174.055 103.18 174.055 103.18ZM174.055 105.355C174.055 105.355 172.975 103.396 170.726 103.396C168.478 103.396 166.965 105.205 166.965 107.423C166.965 109.641 168.413 111.45 170.726 111.45C172.975 111.45 174.055 109.49 174.055 109.49V105.355Z" fill="white"/>
<path d="M63.7873 108.22C63.7873 104.688 61.0851 101.759 57.6264 101.393C57.1292 99.6051 56.07 98.0114 54.6433 96.8054C53.0004 95.4486 50.8819 94.6948 48.7419 94.6948C46.6018 94.6948 44.4833 95.4486 42.8404 96.8054C41.3921 97.9899 40.3545 99.6051 39.8573 101.393C36.3986 101.759 33.6965 104.688 33.6965 108.22C33.6965 108.564 33.7397 110.976 35.5555 112.828C36.939 114.25 38.9494 114.96 41.5002 114.96C43.9645 114.96 46.4072 114.53 48.7419 113.69C49.4768 113.948 50.2334 114.185 50.99 114.357C52.6329 114.745 54.2974 114.96 55.9835 114.96C58.556 114.96 60.5663 114.25 61.9282 112.828C63.744 110.998 63.7873 108.607 63.7873 108.22C63.7873 108.22 63.7873 108.241 63.7873 108.22ZM61.9066 108.241C61.9066 108.263 61.9282 110.158 60.5663 111.536C59.5503 112.57 58.0155 113.087 55.9835 113.087C52.5465 113.087 49.7579 112.161 48.0285 111.385C46.4072 110.653 45.3696 109.899 45.1102 109.706C45.0886 109.684 45.067 109.663 45.0454 109.641C45.0454 109.619 45.0238 109.598 45.0238 109.555V105.657C45.0238 105.592 45.067 105.528 45.1318 105.484L48.6554 103.675C48.7203 103.654 48.7851 103.654 48.8283 103.675L52.3519 105.484C52.4168 105.528 52.46 105.592 52.46 105.657V109.576C52.46 109.641 52.4384 109.684 52.4167 109.706C52.2438 109.856 51.6385 110.287 50.6874 110.804C51.4656 111.041 52.3519 111.235 53.303 111.385C53.5192 111.235 53.6273 111.149 53.6489 111.127L53.6705 111.105C53.9948 110.825 54.3623 110.266 54.3623 109.555V105.657C54.3623 104.881 53.9299 104.171 53.2382 103.805L49.7146 101.996C49.1094 101.694 48.4176 101.694 47.8123 101.996L44.2672 103.805C43.5754 104.171 43.1431 104.86 43.1431 105.657V109.576C43.1431 110.287 43.5106 110.847 43.8348 111.127L43.8564 111.149C43.8997 111.192 44.6995 111.816 46.1046 112.57C44.613 112.936 43.0566 113.13 41.5002 113.13C39.4682 113.13 37.9334 112.613 36.9174 111.579C35.5555 110.201 35.5771 108.284 35.5771 108.263V108.241C35.5771 105.484 37.8253 103.245 40.5923 103.245H41.3705L41.5218 102.491C41.8461 100.854 42.7324 99.3467 44.0294 98.2698C45.348 97.193 47.0125 96.59 48.7203 96.59C50.428 96.59 52.1141 97.193 53.4111 98.2698C54.7081 99.3467 55.5944 100.833 55.9187 102.491L56.07 103.245H56.8482C59.6152 103.245 61.8634 105.484 61.8634 108.241C61.9066 108.241 61.9066 108.241 61.9066 108.241Z" fill="white"/>
</svg>
