<svg width="209" height="209" viewBox="0 0 209 209" fill="none" xmlns="http://www.w3.org/2000/svg">
<rect width="209" height="209" fill=""/>
<path d="M82.402 107.005C83.0706 107.345 84.2593 107.807 85.3985 107.783C86.4387 107.783 86.9835 107.224 86.9835 106.567C86.9835 105.911 86.5873 105.473 85.4728 104.841C84.086 104.063 83.0459 102.969 83.0459 101.535C83.0459 99.0065 85.2499 97.2075 88.4694 97.2075C89.881 97.2075 90.9706 97.4749 91.565 97.8152L90.723 100.368C90.0048 100.052 89.2371 99.8817 88.4446 99.8817C87.4045 99.8817 86.7358 100.344 86.7358 101.073C86.7358 101.656 87.2064 102.07 88.1474 102.556C89.5838 103.358 90.7725 104.452 90.7725 106.008C90.7725 108.877 88.3951 110.506 85.1014 110.481C83.5907 110.457 82.1791 110.068 81.4857 109.582C81.5104 109.582 82.402 107.005 82.402 107.005ZM91.5155 110.384L95.0816 92.1021H98.7468L97.3352 99.1767L97.3848 99.128C98.3754 97.9854 99.6384 97.1831 101.273 97.1831C103.18 97.1831 104.269 98.3987 104.269 100.417C104.269 101.049 104.17 102.045 103.997 102.848L102.561 110.36H98.8954L100.282 103.066C100.381 102.58 100.431 101.924 100.431 101.438C100.431 100.66 100.109 100.076 99.2917 100.076C98.1277 100.076 96.8647 101.608 96.3942 103.99L95.1807 110.36L91.5155 110.384ZM117.543 102.216C117.543 106.689 114.621 110.481 110.287 110.481C106.994 110.481 105.235 108.245 105.235 105.449C105.235 101.097 108.158 97.1831 112.566 97.1831C116.008 97.1831 117.543 99.6386 117.543 102.216ZM109 105.376C109 106.689 109.52 107.734 110.783 107.734C112.714 107.734 113.804 104.331 113.804 102.118C113.804 101.049 113.383 99.9546 112.07 99.9546C110.089 99.9303 109 103.31 109 105.376ZM116.677 115.465L119.227 102.288C119.525 100.806 119.822 98.8849 119.97 97.5235H123.215L122.992 99.5656H123.041C124.032 98.2042 125.468 97.3047 126.929 97.3047C129.604 97.3047 130.694 99.4198 130.694 101.827C130.694 106.203 127.87 110.53 123.561 110.53C122.67 110.53 121.828 110.384 121.407 110.044H121.332L120.317 115.465H116.677ZM121.902 107.248C122.298 107.564 122.744 107.759 123.413 107.759C125.468 107.759 126.88 104.452 126.88 102.118C126.88 101.146 126.533 100.125 125.419 100.125C124.131 100.125 122.942 101.608 122.521 103.869L121.902 107.248ZM130.817 110.384L133.294 97.5235H136.984L134.483 110.384H130.817ZM135.572 96.1864C134.532 96.1864 133.839 95.3112 133.839 94.2415C133.839 93.0746 134.78 92.0778 135.944 92.0778C137.058 92.0778 137.776 92.9287 137.776 93.9741C137.752 95.3112 136.761 96.1621 135.622 96.1621C135.622 96.1864 135.572 96.1864 135.572 96.1864ZM137.677 110.384L139.609 100.222H137.9L138.42 97.5235H140.129L140.228 96.8671C140.525 95.3598 141.095 93.8039 142.358 92.7828C143.349 91.9562 144.636 91.5673 145.949 91.5673C146.84 91.5673 147.509 91.6888 147.93 91.8833L147.212 94.7034C146.84 94.5818 146.444 94.5089 146.048 94.5089C144.834 94.5089 144.091 95.6515 143.869 96.8914L143.745 97.5478H146.296L145.8 100.246H143.274L141.343 110.408L137.677 110.384ZM150.877 97.5235L151.471 103.285C151.595 104.306 151.694 105.303 151.793 106.324H151.843C152.14 105.643 152.413 104.647 152.933 103.261L155.161 97.5235H159L154.518 106.932C152.933 110.165 151.372 112.524 149.713 114.055C148.401 115.246 146.865 115.854 146.122 116L145.107 112.937C145.726 112.718 146.494 112.402 147.187 111.916C148.029 111.332 148.747 110.554 149.193 109.752C149.292 109.558 149.317 109.436 149.267 109.193L147.063 97.4992C147.014 97.5235 150.877 97.5235 150.877 97.5235ZM68.9546 89.4522L68.0631 89.7196C67.964 89.3549 67.8154 89.0146 67.6421 88.6742C66.9982 87.483 66.0819 86.8509 64.9674 86.8509C64.8931 86.8509 64.8188 86.8509 64.7446 86.8752C64.7198 86.8266 64.6703 86.8023 64.6455 86.7536C64.1502 86.2431 63.5311 86 62.7881 86C61.327 86.0486 59.8906 87.0697 58.7267 88.893C57.9094 90.1815 57.2655 91.7861 57.0922 93.0502L54.2442 93.9254C53.4022 94.1929 53.3774 94.2172 53.2784 94.9951C53.2041 95.5786 51 112.28 51 112.28L69.2518 115.368V89.4279C69.1032 89.4279 69.0289 89.4279 68.9546 89.4522ZM64.7446 90.7407L61.6737 91.6888C61.9709 90.5705 62.5405 89.4522 63.2339 88.7229C63.4815 88.4554 63.853 88.1394 64.274 87.9692C64.6703 88.7958 64.7446 89.9384 64.7446 90.7407ZM62.7634 86.9724C63.0605 86.9481 63.3825 87.0454 63.6301 87.1912C63.2091 87.41 62.8377 87.7018 62.5157 88.0421C61.5994 89.0146 60.8812 90.5219 60.6088 91.9806L58.058 92.7585C58.5781 90.4733 60.5097 87.0454 62.7634 86.9724ZM59.9402 100.003C60.0392 101.535 64.1254 101.851 64.3483 105.425C64.5217 108.245 62.8377 110.165 60.3859 110.311C57.4389 110.506 55.8292 108.804 55.8292 108.804L56.4483 106.203C56.4483 106.203 58.0828 107.418 59.3706 107.321C60.2126 107.272 60.5345 106.592 60.485 106.105C60.3612 104.112 57.0427 104.233 56.8198 100.976C56.6464 98.2285 58.479 95.4327 62.5405 95.1896C64.1007 95.0924 64.8931 95.4814 64.8931 95.4814L63.9768 98.8849C63.9768 98.8849 62.9367 98.423 61.7232 98.4959C59.9402 98.6175 59.9154 99.7358 59.9402 100.003ZM65.7104 90.4489C65.7104 89.7196 65.6113 88.7229 65.2646 87.8477C66.3543 88.0421 66.8991 89.282 67.1468 90.0113C67.122 90.0113 65.7104 90.4489 65.7104 90.4489ZM69.7718 115.319L77.3499 113.472C77.3499 113.472 74.0809 91.8347 74.0809 91.6888C74.0562 91.5673 73.9571 91.47 73.8085 91.4457C73.7095 91.4457 71.5797 91.3971 71.5797 91.3971C71.5797 91.3971 70.2919 90.1572 69.7966 89.6953V115.319H69.7718Z" fill="white"/>
</svg>
