<svg width="209" height="209" viewBox="0 0 209 209" fill="none" xmlns="http://www.w3.org/2000/svg">
<rect width="209" height="209" fill=""/>
<g clip-path="url(#clip0)">
<path d="M54.6095 89.16C54.6898 88.92 55.091 88.92 55.1712 89.16L58.461 99.16H52.9245C52.1221 99.16 51.6407 98.44 51.8814 97.72L54.6095 89.16Z" fill="white"/>
<path d="M64.8809 100.92H71.4605C71.7012 100.92 71.8617 101.24 71.621 101.4L61.6713 108.52L54.6905 113.56L44.821 120.76C44.5803 120.92 44.3396 120.68 44.4198 120.44C45.1419 118.36 47.2282 111.72 47.9503 109.48C48.1108 109 47.9503 108.52 47.5491 108.28C45.5431 106.84 39.6857 102.6 38.0809 101.4C37.8402 101.24 38.0006 100.92 38.2413 100.92H43.6976H64.8809Z" fill="white"/>
<path d="M57.7389 113.8C57.097 114.28 57.097 115.16 57.7389 115.64L64.8802 120.76C65.1209 120.92 65.3616 120.68 65.2814 120.44L62.0718 110.6L57.7389 113.8Z" fill="white"/>
<path d="M93.927 101.72L95.7725 100.84C96.0934 100.68 96.4946 100.92 96.4946 101.24V103.24H98.9821V105.88H96.4946V110.6C96.4946 111.08 96.6551 111.48 96.8958 111.8C97.2168 112.12 97.618 112.2 98.0994 112.2C98.3401 112.2 98.5809 112.2 98.8216 112.04V114.6C98.7413 114.68 98.5809 114.68 98.4204 114.76C98.0994 114.84 97.7785 114.92 97.4575 114.92C96.8958 114.92 96.3341 114.84 95.8527 114.68C95.3713 114.52 94.9701 114.2 94.6491 113.8C94.3282 113.4 94.0072 113 93.8467 112.52C93.6862 112.04 93.606 111.48 93.606 110.84V105.96H91.7605V103.56H93.927V101.72Z" fill="white"/>
<path d="M105.401 114.84C104.679 114.84 103.957 114.68 103.315 114.44C102.673 114.12 102.111 113.72 101.55 113.24C101.068 112.68 100.667 112.12 100.346 111.4C100.186 110.6 100.025 109.8 100.025 109C100.025 108.12 100.186 107.4 100.426 106.68C100.747 105.96 101.148 105.32 101.63 104.84C102.111 104.28 102.673 103.88 103.395 103.64C104.037 103.32 104.759 103.16 105.481 103.16C105.963 103.16 106.444 103.24 106.846 103.32C107.247 103.48 107.568 103.56 107.889 103.72C108.21 103.88 108.531 104.12 108.771 104.36V103.24H111.419V114.68H108.771V113.56C108.531 113.8 108.21 113.96 107.889 114.2C107.568 114.36 107.247 114.52 106.846 114.68C106.364 114.76 105.963 114.84 105.401 114.84ZM108.691 109C108.691 108.04 108.45 107.32 107.889 106.76C107.327 106.2 106.685 105.88 105.802 105.88C105 105.88 104.278 106.2 103.716 106.76C103.154 107.32 102.914 108.04 102.914 109C102.914 109.96 103.154 110.68 103.716 111.24C104.278 111.8 104.92 112.12 105.802 112.12C106.605 112.12 107.327 111.8 107.889 111.24C108.45 110.68 108.691 109.88 108.691 109Z" fill="white"/>
<path d="M119.122 103.16C119.684 103.16 120.245 103.24 120.647 103.4C121.048 103.56 121.369 103.72 121.69 103.88C122.011 104.12 122.251 104.36 122.412 104.6C122.653 104.28 122.974 104.04 123.375 103.88C123.696 103.72 124.017 103.56 124.418 103.4C124.819 103.24 125.301 103.16 125.782 103.16C127.066 103.16 128.029 103.56 128.831 104.36C129.553 105.16 129.954 106.36 129.954 107.88V114.68H127.066V108.12C127.066 107.4 126.905 106.84 126.504 106.44C126.103 106.04 125.702 105.88 125.22 105.88C124.739 105.88 124.257 106.04 123.856 106.44C123.455 106.84 123.295 107.4 123.295 108.12V114.68H120.406V108.12C120.406 107.4 120.245 106.84 119.844 106.44C119.443 106.04 119.042 105.88 118.56 105.88C118.079 105.88 117.598 106.04 117.196 106.44C116.795 106.84 116.635 107.4 116.635 108.12V114.68H113.746V103.24H116.394V104.36C116.635 104.12 116.875 103.96 117.196 103.72C117.437 103.56 117.678 103.4 118.079 103.32C118.32 103.16 118.721 103.16 119.122 103.16Z" fill="white"/>
<path d="M138.059 103.16C138.781 103.16 139.503 103.32 140.145 103.64C140.787 103.96 141.348 104.36 141.83 104.84C142.311 105.32 142.712 105.96 143.033 106.68C143.354 107.4 143.515 108.2 143.515 109C143.515 109.88 143.354 110.6 143.033 111.32C142.712 112.04 142.391 112.68 141.83 113.16C141.348 113.64 140.787 114.04 140.145 114.36C139.503 114.68 138.781 114.76 138.059 114.76C137.577 114.76 137.176 114.68 136.775 114.6C136.454 114.52 136.133 114.36 135.812 114.2C135.491 114.04 135.25 113.88 135.009 113.64V117.32L132.843 118.44C132.522 118.6 132.121 118.36 132.121 118.04V103.24H134.769V104.36C135.009 104.12 135.33 103.96 135.651 103.72C135.972 103.56 136.293 103.4 136.694 103.32C137.096 103.16 137.577 103.16 138.059 103.16ZM134.849 109C134.849 109.96 135.09 110.68 135.651 111.24C136.213 111.8 136.855 112.12 137.738 112.12C138.54 112.12 139.262 111.8 139.824 111.24C140.386 110.68 140.626 109.96 140.626 109C140.626 108.04 140.386 107.32 139.824 106.76C139.262 106.2 138.62 105.88 137.738 105.88C136.935 105.88 136.213 106.2 135.651 106.76C135.09 107.24 134.849 108.04 134.849 109Z" fill="white"/>
<path d="M155.551 111.24C155.39 111.64 155.15 112.12 154.829 112.52C154.508 112.92 154.187 113.32 153.705 113.72C153.304 114.04 152.742 114.36 152.181 114.52C151.619 114.76 151.057 114.84 150.335 114.84C149.533 114.84 148.811 114.68 148.089 114.36C147.366 114.04 146.805 113.64 146.243 113.08C145.762 112.52 145.28 111.96 144.959 111.24C144.638 110.52 144.478 109.8 144.478 108.92C144.478 108.12 144.638 107.32 144.959 106.68C145.28 105.96 145.681 105.32 146.243 104.84C146.805 104.28 147.366 103.88 148.089 103.56C148.811 103.24 149.533 103.08 150.335 103.08C151.057 103.08 151.78 103.24 152.502 103.48C153.144 103.8 153.786 104.12 154.267 104.68C154.748 105.16 155.15 105.8 155.471 106.52C155.792 107.24 155.952 108.04 155.952 108.92C155.952 109.08 155.952 109.16 155.952 109.32C155.952 109.4 155.952 109.56 155.872 109.64C155.872 109.8 155.872 109.88 155.792 110.04H147.768C147.928 110.6 148.169 111.08 148.65 111.48C149.051 111.88 149.693 112.04 150.416 112.04C150.817 112.04 151.138 111.96 151.378 111.88C151.619 111.8 151.86 111.72 152.02 111.56C152.181 111.4 152.421 111.24 152.502 111.08H155.551V111.24ZM150.335 105.88C149.613 105.88 148.971 106.12 148.49 106.52C148.008 106.92 147.687 107.48 147.607 108.12H153.144C152.983 107.48 152.662 106.92 152.181 106.52C151.699 106.12 151.138 105.88 150.335 105.88Z" fill="white"/>
<path d="M162.451 114.84C161.729 114.84 161.007 114.68 160.365 114.44C159.723 114.12 159.162 113.72 158.6 113.24C158.118 112.68 157.717 112.12 157.396 111.4C157.075 110.68 156.995 109.88 156.995 109.08C156.995 108.2 157.156 107.48 157.396 106.76C157.717 106.04 158.118 105.4 158.6 104.92C159.081 104.36 159.643 103.96 160.365 103.72C161.007 103.4 161.729 103.24 162.451 103.24C162.933 103.24 163.334 103.32 163.735 103.4C164.136 103.48 164.457 103.64 164.698 103.8C165.019 103.96 165.26 104.12 165.501 104.36V100.44L167.667 99.32C167.988 99.16 168.389 99.4 168.389 99.72V114.84H165.741V113.72C165.501 113.96 165.18 114.12 164.859 114.36C164.538 114.52 164.217 114.68 163.815 114.84C163.334 114.76 162.933 114.84 162.451 114.84ZM165.661 109C165.661 108.04 165.42 107.32 164.859 106.76C164.297 106.2 163.655 105.88 162.772 105.88C161.97 105.88 161.248 106.2 160.686 106.76C160.124 107.32 159.884 108.04 159.884 109C159.884 109.96 160.124 110.68 160.686 111.24C161.248 111.8 161.89 112.12 162.772 112.12C163.575 112.12 164.297 111.8 164.859 111.24C165.42 110.68 165.661 109.88 165.661 109Z" fill="white"/>
<path d="M79.564 103.4C79.564 102.84 79.7245 102.2 79.9652 101.72C80.206 101.16 80.6072 100.68 81.0886 100.28C81.57 99.88 82.1317 99.56 82.8539 99.32C83.576 99.08 84.2982 98.92 85.1808 98.92C85.9832 98.92 86.7054 99.08 87.267 99.32C87.909 99.56 88.4706 99.88 88.9521 100.36C89.4335 100.84 89.7545 101.32 89.9952 101.96C90.2359 102.52 90.3964 103.24 90.3964 103.88H87.5078C87.5078 103.16 87.267 102.68 86.8658 102.28C86.4646 101.88 85.903 101.72 85.1006 101.72C84.3784 101.72 83.7365 101.88 83.3353 102.28C82.9341 102.68 82.6934 103 82.6934 103.48C82.6934 103.96 82.8539 104.28 83.2551 104.52C83.6563 104.76 84.1377 105 84.7796 105.16C85.3413 105.32 86.0634 105.56 86.7054 105.8C87.4275 106.04 88.0694 106.28 88.7113 106.68C89.273 107.08 89.8347 107.56 90.2359 108.12C90.6371 108.68 90.7976 109.48 90.7976 110.36C90.7976 110.92 90.6371 111.48 90.3964 111.96C90.1557 112.52 89.7545 113 89.273 113.4C88.7916 113.8 88.1497 114.12 87.4275 114.44C86.7054 114.68 85.9832 114.84 85.1006 114.84C84.2179 114.84 83.4155 114.68 82.6934 114.44C81.9712 114.2 81.4096 113.88 80.9281 113.4C80.4467 112.92 80.0455 112.44 79.8048 111.8C79.564 111.16 79.4036 110.52 79.4036 109.72H82.3724C82.3724 110.44 82.6131 111 83.0946 111.4C83.576 111.8 84.2179 112.04 85.0203 112.04C85.903 112.04 86.5449 111.88 87.0263 111.48C87.4275 111.08 87.6682 110.68 87.6682 110.2C87.6682 109.72 87.5078 109.32 87.1066 109.08C86.7054 108.84 86.2239 108.6 85.582 108.36C85.0203 108.12 84.2982 107.96 83.576 107.72C82.8539 107.56 82.2119 107.24 81.6503 106.92C81.0886 106.6 80.5269 106.12 80.1257 105.56C79.8048 105 79.564 104.28 79.564 103.4Z" fill="white"/>
<path d="M170.315 113.48V113.72H169.914V114.68H169.673V113.72H169.272V113.48H170.315Z" fill="white"/>
<path d="M171.84 113.48V114.68H171.599V113.96L171.198 114.6L170.796 113.96V114.68H170.556V113.48H170.796L171.198 114.12L171.599 113.48H171.84Z" fill="white"/>
</g>
<defs>
<clipPath id="clip0">
<rect width="134" height="32" fill="white" transform="translate(38 89)"/>
</clipPath>
</defs>
</svg>
