<?xml version="1.0" encoding="utf-8"?>
<!-- Generator: Adobe Illustrator 25.4.1, SVG Export Plug-In . SVG Version: 6.00 Build 0)  -->
<svg version="1.1" id="Layer_1" xmlns="http://www.w3.org/2000/svg" xmlns:xlink="http://www.w3.org/1999/xlink" x="0px" y="0px"
	 width="37.4px" height="35.7px" viewBox="0 0 37.4 35.7" style="enable-background:new 0 0 37.4 35.7;" xml:space="preserve">
<style type="text/css">
	.st0{fill-rule:evenodd;clip-rule:evenodd;fill:#DB9195;}
	.st1{fill-rule:evenodd;clip-rule:evenodd;fill:#202248;}
	.st2{fill-rule:evenodd;clip-rule:evenodd;fill:#303CF4;}
</style>
<rect x="9.6" y="2.3" class="st0" width="2.2" height="2.2"/>
<rect x="11.8" y="3.4" class="st0" width="2.2" height="2.2"/>
<rect x="7.4" y="3.4" class="st0" width="2.2" height="2.2"/>
<rect x="5.3" y="4.4" class="st0" width="2.2" height="2.2"/>
<rect x="13.9" y="4.4" class="st0" width="2.2" height="2.2"/>
<rect x="16.1" y="5.5" class="st0" width="2.2" height="2.2"/>
<rect x="3.2" y="5.5" class="st0" width="2.2" height="2.2"/>
<rect x="3.2" y="7.7" class="st0" width="2.2" height="2.2"/>
<rect x="3.2" y="9.8" class="st0" width="2.2" height="2.2"/>
<rect x="3.2" y="12" class="st0" width="2.2" height="2.2"/>
<rect x="16.1" y="7.7" class="st0" width="2.2" height="2.2"/>
<rect x="16.1" y="9.8" class="st0" width="2.2" height="2.2"/>
<rect x="16.1" y="12" class="st0" width="2.2" height="2.2"/>
<rect x="15" y="14.2" class="st0" width="2.2" height="2.2"/>
<rect x="4.2" y="14.2" class="st0" width="2.2" height="2.2"/>
<rect x="6.4" y="15.2" class="st0" width="2.2" height="2.2"/>
<rect x="12.8" y="15.2" class="st0" width="2.2" height="2.2"/>
<rect x="8.5" y="15.2" class="st0" width="2.2" height="2.2"/>
<rect x="10.7" y="15.2" class="st0" width="2.2" height="2.2"/>
<rect x="11.8" y="17.2" class="st0" width="2.2" height="2.2"/>
<rect x="7.6" y="17.4" class="st0" width="2.2" height="2.2"/>
<rect x="5.4" y="18.4" class="st0" width="2.2" height="2.2"/>
<rect x="2.2" y="22.7" class="st0" width="14.1" height="12.9"/>
<rect x="13.9" y="18.3" class="st0" width="2.2" height="2.2"/>
<rect x="16.1" y="19.4" class="st1" width="2.2" height="16.3"/>
<rect x="18.2" y="20.4" class="st1" width="2.2" height="2.2"/>
<rect x="17" y="33.4" class="st1" width="2.5" height="2.2"/>
<rect x="3.2" y="19.5" class="st0" width="2.2" height="2.2"/>
<rect x="1.1" y="20.6" class="st0" width="2.2" height="2.2"/>
<rect y="22.7" class="st0" width="2.2" height="2.2"/>
<rect y="24.9" class="st0" width="2.2" height="2.2"/>
<rect y="27" class="st0" width="2.2" height="2.2"/>
<rect y="29.2" class="st0" width="2.2" height="2.2"/>
<rect y="31.4" class="st0" width="2.2" height="2.2"/>
<rect y="33.5" class="st0" width="2.2" height="2.2"/>
<rect x="19.1" y="19.2" class="st1" width="2.2" height="5.5"/>
<rect x="19.3" y="24.8" class="st1" width="2.2" height="2.2"/>
<rect x="19.3" y="26.9" class="st1" width="2.2" height="2.2"/>
<rect x="19.3" y="29.1" class="st1" width="2.2" height="2.2"/>
<rect x="19.3" y="31.2" class="st1" width="2.2" height="2.2"/>
<rect x="19.3" y="33.4" class="st1" width="2.2" height="2.3"/>
<rect x="25.5" class="st2" width="2.2" height="2.2"/>
<rect x="27.7" y="1.1" class="st2" width="2.2" height="2.2"/>
<rect x="23.3" y="1.1" class="st2" width="2.2" height="2.2"/>
<rect x="21.2" y="2.2" class="st2" width="2.2" height="2.2"/>
<rect x="29.8" y="2.2" class="st2" width="2.2" height="2.2"/>
<rect x="32" y="3.2" class="st2" width="2.2" height="2.2"/>
<rect x="19.1" y="3.2" class="st2" width="2.2" height="2.2"/>
<rect x="19.1" y="5.4" class="st2" width="2.2" height="2.2"/>
<rect x="19.1" y="7.6" class="st2" width="2.2" height="2.2"/>
<rect x="19.1" y="9.7" class="st2" width="2.2" height="2.2"/>
<rect x="32" y="5.4" class="st2" width="2.2" height="2.2"/>
<rect x="32" y="7.6" class="st2" width="2.2" height="2.2"/>
<rect x="32" y="9.7" class="st2" width="2.2" height="2.2"/>
<rect x="30.9" y="11.9" class="st2" width="2.2" height="2.2"/>
<rect x="20.2" y="11.9" class="st2" width="2.2" height="2.2"/>
<rect x="22.3" y="13" class="st2" width="2.2" height="2.2"/>
<rect x="28.7" y="13" class="st2" width="2.2" height="2.2"/>
<rect x="24.5" y="13" class="st2" width="2.2" height="2.2"/>
<rect x="26.6" y="13" class="st2" width="2.2" height="2.2"/>
<rect x="27.7" y="14.9" class="st2" width="2.2" height="2.2"/>
<rect x="23.5" y="15.1" class="st2" width="2.2" height="2.2"/>
<rect x="21.3" y="16.1" class="st2" width="2.2" height="2.2"/>
<rect x="29.8" y="16" class="st2" width="2.2" height="2.2"/>
<rect x="32" y="17.1" class="st2" width="2.2" height="2.2"/>
<rect x="34.1" y="18.2" class="st2" width="2.2" height="2.2"/>
<rect x="19.1" y="17.2" class="st2" width="2.2" height="2.2"/>
<rect x="17" y="18.3" class="st1" width="2.2" height="2.2"/>
<rect x="17" y="20.6" class="st1" width="2.2" height="2.2"/>
<rect x="17" y="22.7" class="st1" width="2.2" height="2.2"/>
<rect x="17" y="24.8" class="st1" width="2.7" height="2.2"/>
<rect x="17" y="26.9" class="st1" width="2.7" height="2.2"/>
<rect x="17" y="29.1" class="st1" width="2.7" height="2.2"/>
<rect x="17" y="31.2" class="st1" width="2.7" height="2.2"/>
<rect x="35.2" y="20.3" class="st2" width="2.2" height="2.2"/>
<rect x="35.2" y="22.5" class="st2" width="2.2" height="2.2"/>
<rect x="35.2" y="24.6" class="st2" width="2.2" height="2.2"/>
<rect x="35.2" y="26.8" class="st2" width="2.2" height="2.2"/>
<rect x="35.2" y="29" class="st2" width="2.2" height="2.2"/>
<rect x="35.2" y="31.1" class="st2" width="2.2" height="4.5"/>
<rect x="3.2" y="20.3" class="st0" width="12.8" height="2.4"/>
<rect x="5.8" y="19.2" class="st0" width="10.3" height="2.4"/>
<rect x="9.4" y="17.1" class="st0" width="2.6" height="2.4"/>
<rect x="5.3" y="4.4" class="st0" width="10.7" height="10.8"/>
<rect x="21.2" y="2.2" class="st2" width="10.8" height="10.8"/>
<rect x="21.3" y="20.3" class="st2" width="13.9" height="15.3"/>
<rect x="21.3" y="18.3" class="st2" width="12.8" height="2.2"/>
<rect x="23" y="16.7" class="st2" width="8.9" height="2.2"/>
<rect x="25.3" y="14.9" class="st2" width="2.6" height="2.2"/>
</svg>
