<svg xmlns="http://www.w3.org/2000/svg" viewBox="0 0 500 500"><defs><style>.cls-1{fill:#d09496;}.cls-2{fill:#2c46eb;}.cls-3{fill:#1f2346;}</style></defs><g id="Laag_2" data-name="Laag 2"><polygon class="cls-1" points="66.16 149.95 83.34 149.95 83.34 140.78 98.62 140.78 98.62 133.15 116.18 133.15 116.18 124.75 135.65 124.75 135.65 134.29 152.45 134.29 152.45 141.93 167.34 141.93 167.34 149.95 185.28 149.95 185.28 216.76 175.36 216.76 175.36 235.09 159.32 235.09 159.32 241.58 152.07 241.58 152.07 249.6 168.87 249.6 168.87 384.37 41.35 384.37 41.35 283.19 49.36 283.19 49.36 266.01 65.4 266.01 65.4 258.38 83.73 258.38 83.73 250.74 100.53 250.74 100.53 242.72 90.98 242.72 90.98 235.09 73.42 235.09 73.42 217.91 65.22 217.91 66.16 149.95"/><polygon class="cls-1" points="433.84 149.95 416.66 149.95 416.66 140.78 401.38 140.78 401.38 133.15 383.82 133.15 383.82 124.75 364.35 124.75 364.35 134.29 347.55 134.29 347.55 141.93 332.66 141.93 332.66 149.95 314.71 149.95 314.71 216.76 324.64 216.76 324.64 235.09 340.68 235.09 340.68 241.58 347.93 241.58 347.93 249.6 331.13 249.6 331.13 384.37 458.65 384.37 458.65 283.19 450.64 283.19 450.64 266.01 434.6 266.01 434.6 258.38 416.27 258.38 416.27 250.74 399.48 250.74 399.48 242.72 409.02 242.72 409.02 235.09 426.58 235.09 426.58 217.91 434.79 217.91 433.84 149.95"/><polygon class="cls-2" points="250.05 106.04 259.07 106.04 259.07 114.44 275.49 114.44 275.49 124.75 292.28 124.75 292.28 131.72 309.01 131.72 309.01 198.76 300.81 198.76 300.81 217.91 284.39 217.91 284.39 224.75 274.81 224.75 274.81 231.59 291.23 231.59 291.23 239.8 309.01 239.8 309.01 249.38 325.43 249.38 325.43 258 331.23 258 331.23 384.37 250.05 384.32 168.87 384.37 168.87 258 174.66 258 174.66 249.38 191.08 249.38 191.08 239.8 208.87 239.8 208.87 231.59 225.28 231.59 225.28 224.75 215.71 224.75 215.71 217.91 199.29 217.91 199.29 198.76 191.08 198.76 191.08 131.72 207.81 131.72 207.81 124.75 224.61 124.75 224.61 114.44 241.03 114.44 241.03 106.04 250.05 106.04"/><polygon class="cls-3" points="168.87 258 174.66 258 174.66 249.38 191.08 249.38 191.08 258 208 258 208 384.37 168.87 384.37 168.87 258"/><polygon class="cls-3" points="331.23 258 325.43 258 325.43 249.38 309.01 249.38 309.01 258 292.09 258 292.09 384.37 331.23 384.37 331.23 258"/></g></svg>
