<svg xmlns="http://www.w3.org/2000/svg" width="192" height="96" viewBox="0 0 192 96"><defs><style>.a{fill:none;}.b{fill:#fff;}</style></defs><rect class="a" width="192" height="96" rx="4"/><g transform="translate(32 39)"><path class="b" d="M0,6.261H12V0H0Z" transform="translate(24)"/><path class="b" d="M0,0V6H5.86V18h5.86V6H17.6V0Z"/><path class="b" d="M0,11.739H17.6V5.87H5.86V0H0Z" transform="translate(17.6 6.261)"/><path class="b" d="M8.8,0H0V2.461H2.948v7.713h2.9V2.461H8.8Z" transform="translate(42.4 4.696)"/><path class="b" d="M0,3.923C0,1.321,1.557,0,3.654,0,5.859,0,7.222,1.362,7.2,4.147a3.253,3.253,0,0,1-.022.508H2.487a1.25,1.25,0,0,0,1.362,1.2,4.382,4.382,0,0,0,2.075-.528L6.962,6.972a6.33,6.33,0,0,1-3.243.854C1.319,7.826,0,6.22,0,3.923Z" transform="translate(51.2 7.043)"/><path class="b" d="M3.97,5.747c-.763,0-1.166-.611-1.166-1.814,0-1.182.359-1.855,1.1-1.855.606,0,.875.306,1.278.978L7.133,1.712A3.5,3.5,0,0,0,3.948,0,3.582,3.582,0,0,0,0,3.893,3.564,3.564,0,0,0,3.88,7.826,3.731,3.731,0,0,0,7.2,6.033L5.406,4.749C4.867,5.482,4.508,5.747,3.97,5.747Z" transform="translate(59.2 7.043)"/><path class="b" d="M4.673,2.883A3.037,3.037,0,0,0,2.7,3.567V0L0,1.089v9.867H2.7V6.45c0-.982.34-1.26.913-1.26.552,0,.892.278.892,1.281v4.485H7.2V6.13C7.2,4.058,6.372,2.883,4.673,2.883Z" transform="translate(68 3.913)"/><path class="b" d="M4.636,8.39c-1.21,0-1.7-1.294-1.7-2.912,0-1.682.513-2.912,1.682-2.912.923,0,1.272.625,1.621,1.618L8.779,3.127C8.082,1.122,7.1,0,4.615,0,1.908,0,0,2.071,0,5.478c0,3.149,1.6,5.478,4.6,5.478A4.361,4.361,0,0,0,8.8,8.217L6.441,6.9C5.887,7.894,5.518,8.39,4.636,8.39Z" transform="translate(76.8 4.696)"/><path class="b" d="M2.674.727V.166H0v7.66H2.674V3.654c0-.934.4-1.246,1.053-1.246a1.637,1.637,0,0,1,1.242.644L5.6.332A2.339,2.339,0,0,0,4.337,0,2.287,2.287,0,0,0,2.674.727Z" transform="translate(87.2 7.043)"/><path class="b" d="M4.482,4.38c0,.955-.34,1.225-.892,1.225S2.7,5.335,2.7,4.359V0H0V4.692C0,6.705.828,7.826,2.549,7.826A3.026,3.026,0,0,0,4.5,7.162v.519H7.2V.021H4.5V4.38" transform="translate(94.4 7.043)"/><path class="b" d="M4.673,0A3.085,3.085,0,0,0,2.7.666V.146H0v7.68H2.7V3.434c0-.957.339-1.228.913-1.228.553,0,.892.271.892,1.249V7.826H7.2v-4.7C7.2,1.145,6.393,0,4.673,0Z" transform="translate(103.2 7.043)"/><path class="b" d="M3.993,5.747c-.763,0-1.166-.611-1.166-1.814,0-1.182.358-1.855,1.077-1.855.606,0,.874.306,1.278.978L7.133,1.712A3.5,3.5,0,0,0,3.948,0,3.582,3.582,0,0,0,0,3.893,3.564,3.564,0,0,0,3.88,7.826,3.731,3.731,0,0,0,7.2,6.033L5.406,4.749C4.912,5.482,4.531,5.747,3.993,5.747Z" transform="translate(112 7.043)"/><path class="b" d="M4.672,2.883A3.038,3.038,0,0,0,2.7,3.567V0L0,1.089v9.867H2.7V6.45c0-.982.34-1.26.914-1.26.552,0,.892.278.892,1.281v4.485H7.2V6.13C7.221,4.058,6.393,2.883,4.672,2.883Z" transform="translate(120.8 3.913)"/></g></svg>