<svg xmlns="http://www.w3.org/2000/svg" width="192" height="96" viewBox="0 0 192 96"><defs><style>.a{fill:none;}.b{fill:#fff;}</style></defs><rect class="a" width="192" height="96" rx="4"/><g transform="translate(40 36)"><path class="b" d="M17.735,13.431c-.8-1.77-2.765-5.6-3.908-7.7-.981,1.7-3.258,6.067-4.12,7.7a1.282,1.282,0,0,1-.874.234,1.252,1.252,0,0,1-.879-.236C6.143,9.73,4.282,5.969,2.423,2.557A2,2,0,0,0,.875,1.319L.184,1.152C-.079.885-.079.165.309,0,1.861.066,3.071.1,4.662.1h7.653q3.353,0,6.706-.1c.415.04.386,1.019.112,1.152l-.564.094c-.877.163-1.4.328-1.4.494a2.714,2.714,0,0,0,.3,1.014c.687,1.574,1.745,3.7,2.576,5.275.92-1.9,1.514-3.5,2.113-5.019a4.158,4.158,0,0,0,.35-1.27c0-.167-.3-.331-.949-.464l-.638-.123C20.687.918,20.687.137,21.066,0c1.255.066,2.157.1,3.1.1,1.105,0,2.089-.034,2.923-.1.336.137.414.849.112,1.152l-.53.094c-1.252.233-1.515.557-2.122,1.764q-2.669,5.146-5.08,10.421a1.233,1.233,0,0,1-.869.234A1.231,1.231,0,0,1,17.735,13.431Z" transform="translate(0 10.243)"/><path class="b" d="M32.183,13.832c-.8-1.769-2.759-5.6-3.9-7.695-.988,1.7-3.256,6.067-4.132,7.695a1.254,1.254,0,0,1-.868.234,1.254,1.254,0,0,1-.874-.235c-1.813-3.7-3.679-7.46-5.532-10.872a2,2,0,0,0-1.553-1.238l-.679-.166c-.264-.268-.264-.988.112-1.152q2.176.1,4.354.1h7.654c2.383,0,4.284-.033,6.7-.1.419.04.38,1.019.113,1.152l-.564.094c-.877.163-1.4.328-1.4.494a2.625,2.625,0,0,0,.306,1.014c.681,1.574,1.74,3.7,2.57,5.275.912-1.9,1.519-3.5,2.128-5.019a4.389,4.389,0,0,0,.337-1.27c0-.166-.3-.331-.946-.464l-.643-.123C35.135,1.32,35.135.539,35.519.4q1.55.092,3.1.1c1.1,0,2.083-.033,2.921-.1.336.137.415.848.116,1.152l-.536.094c-1.249.232-1.51.556-2.117,1.764q-2.668,5.148-5.081,10.42a1.739,1.739,0,0,1-1.742,0ZM0,7.341C0,3.212,3.449,0,8.177,0c3.941,0,6.065,2.193,6.065,4.72,0,.622-.184,1.08-1.368,1.08H5.608c-.874,0-.953.065-.953.588,0,2.457,1.824,4.844,5.345,4.844a3.922,3.922,0,0,0,3.525-1.7.837.837,0,0,1,.986.761A7.437,7.437,0,0,1,7.88,14.022C2.766,14.022,0,10.912,0,7.341Z" transform="translate(24.602 9.841)"/><path class="b" d="M0,7.275C-.036,2.586,4.246,0,8.718,0s8.489,2.357,8.489,6.974c0,4.79-4.057,7.048-8.711,7.048C3.98,14.022.045,11.791,0,7.275Z" transform="translate(63.867 9.841)"/><path class="b" d="M8,3.278c.234,0,.57.036,1.438.655a2.256,2.256,0,0,0,1.476.593A2.162,2.162,0,0,0,13.337,2.4,1.981,1.981,0,0,0,11.246.464c-1.585,0-2.68,1.08-3.709,1.634-.3-.06-.379-.16-.379-.391,0-.293.078-.748.148-1.409A.806.806,0,0,0,6.633,0a28.013,28.013,0,0,1-5.54,1.975.706.706,0,0,0,0,.98l.54.3c.716.394.716.785.716,2.1v4.944c0,2.292-.152,2.586-1.4,2.689l-.721.06a.8.8,0,0,0,.04,1.152q2.235-.109,4.472-.1c1.776,0,3.3.029,5.116.1a.8.8,0,0,0,.035-1.151L8.674,12.95c-1.25-.1-1.4-.367-1.4-2.658V5.249c0-1.243.192-1.97.727-1.97" transform="translate(79.532 9.338)"/><path class="b" d="M11.515,22.272l-.49.1a.761.761,0,0,0,.147,1.14c1.061-.065,2.421-.1,4.666-.1,2.2,0,3.6.031,4.766.1a.763.763,0,0,0,.15-1.14l-.563-.1a4.791,4.791,0,0,1-2.232-.75A52.834,52.834,0,0,1,13,15.263a1.16,1.16,0,0,1-.276-.558.646.646,0,0,1,.225-.427,22.487,22.487,0,0,1,2.546-1.9,6.819,6.819,0,0,1,2.54-1.142L19.242,11a.8.8,0,0,0-.153-1.146,63.806,63.806,0,0,1-7.16.458h-.9c-.378.137-.42.852-.08,1.146l.951.137c.337.026.715.156.715.324,0,.2-.182.554-.907,1.3L10.117,14.84a3,3,0,0,1-2.2.914c-.412,0-.534-.1-.534-.46V5.012c0-2.066.048-3.444.122-4.784A.889.889,0,0,0,6.857,0,47.08,47.08,0,0,1,1.063,1.828a.7.7,0,0,0,0,.979l.643.336c.755.395.755.754.755,2.071v14.4c0,2.292-.152,2.555-1.522,2.69l-.72.065a.8.8,0,0,0,.038,1.14q2.311-.1,4.625-.1c1.745,0,3.334.031,4.552.1a.8.8,0,0,0,.036-1.14l-.6-.065c-1.332-.136-1.486-.4-1.486-2.69v-1.9c0-.628.192-.787.454-.787a1.119,1.119,0,0,1,.955.482l2.686,3.546a3.706,3.706,0,0,1,.642,1.054c0,.121-.223.182-.6.253" transform="translate(90.879)"/></g></svg>